<svg width="59" height="59" viewBox="0 0 59 59" fill="none" xmlns="http://www.w3.org/2000/svg">
<g filter="url(#filter0_i_2156_2960)">
<circle cx="29.5" cy="29.5" r="29.5" fill="url(#paint0_linear_2156_2960)"/>
</g>
<path fill-rule="evenodd" clip-rule="evenodd" d="M34.925 17.6318C35.3463 17.6318 35.6879 17.9822 35.6879 18.4143V21.0226C35.6879 21.4548 35.3463 21.8051 34.925 21.8051C34.5036 21.8051 34.162 21.4548 34.162 21.0226V18.4143C34.162 17.9822 34.5036 17.6318 34.925 17.6318ZM24.7525 17.6319C25.1739 17.6319 25.5155 17.9822 25.5155 18.4143V21.0227C25.5155 21.4548 25.1739 21.8051 24.7525 21.8051C24.3312 21.8051 23.9896 21.4548 23.9896 21.0227V18.4143C23.9896 17.9822 24.3312 17.6319 24.7525 17.6319ZM20.8107 20.501C19.8978 20.501 19.1577 21.2601 19.1577 22.1964V24.1526H40.5198V22.1964C40.5198 21.2601 39.7797 20.501 38.8668 20.501H38.7396C38.3182 20.501 37.9767 20.1507 37.9767 19.7185C37.9767 19.2863 38.3182 18.936 38.7396 18.936H38.8668C40.6224 18.936 42.0456 20.3957 42.0456 22.1964V37.9767C42.0456 39.8494 40.5655 41.3675 38.7396 41.3675H20.9379C19.112 41.3675 17.6318 39.8494 17.6318 37.9767V22.1964C17.6318 20.3957 19.0551 18.936 20.8107 18.936H20.9379C21.3592 18.936 21.7008 19.2863 21.7008 19.7185C21.7008 20.1507 21.3592 20.501 20.9379 20.501H20.8107ZM19.1577 25.7176V37.9767C19.1577 38.985 19.9547 39.8025 20.9379 39.8025H38.7396C39.7228 39.8025 40.5198 38.985 40.5198 37.9767V25.7176H19.1577ZM27.8042 19.7185C27.8042 19.2863 28.1458 18.936 28.5672 18.936H31.1103C31.5316 18.936 31.8732 19.2863 31.8732 19.7185C31.8732 20.1507 31.5316 20.501 31.1103 20.501H28.5672C28.1458 20.501 27.8042 20.1507 27.8042 19.7185ZM34.4528 29.6862C34.7813 29.9567 34.8339 30.4492 34.5701 30.7862L30.2814 36.2654C29.5231 37.2341 28.1127 37.313 27.2563 36.4346L25.4846 34.6175C25.1867 34.3119 25.1867 33.8165 25.4846 33.5109C25.7825 33.2053 26.2656 33.2053 26.5636 33.5109L28.3352 35.328C28.5493 35.5476 28.9019 35.5279 29.0915 35.2857L33.3802 29.8065C33.644 29.4695 34.1242 29.4157 34.4528 29.6862Z" fill="white"/>
<defs>
<filter id="filter0_i_2156_2960" x="0" y="0" width="59" height="63" filterUnits="userSpaceOnUse" color-interpolation-filters="sRGB">
<feFlood flood-opacity="0" result="BackgroundImageFix"/>
<feBlend mode="normal" in="SourceGraphic" in2="BackgroundImageFix" result="shape"/>
<feColorMatrix in="SourceAlpha" type="matrix" values="0 0 0 0 0 0 0 0 0 0 0 0 0 0 0 0 0 0 127 0" result="hardAlpha"/>
<feOffset dy="4"/>
<feGaussianBlur stdDeviation="18.5"/>
<feComposite in2="hardAlpha" operator="arithmetic" k2="-1" k3="1"/>
<feColorMatrix type="matrix" values="0 0 0 0 0 0 0 0 0 0 0 0 0 0 0 0 0 0 0.25 0"/>
<feBlend mode="normal" in2="shape" result="effect1_innerShadow_2156_2960"/>
</filter>
<linearGradient id="paint0_linear_2156_2960" x1="15.9368" y1="12.546" x2="49.1667" y2="51.2011" gradientUnits="userSpaceOnUse">
<stop stop-color="#4F66A0"/>
<stop offset="1" stop-color="#257C8F"/>
</linearGradient>
</defs>
</svg>
