<svg width="32" height="32" viewBox="0 0 32 32" fill="none" xmlns="http://www.w3.org/2000/svg">
<path fill-rule="evenodd" clip-rule="evenodd" d="M10.6641 5.33333C10.6641 4.59733 11.2147 4 11.8947 4H20.1001C20.7801 4 21.3307 4.59733 21.3307 5.33333C21.3307 6.06933 20.7801 6.66667 20.1001 6.66667H11.8947C11.2147 6.66667 10.6641 6.06933 10.6641 5.33333ZM13.0347 28H18.9601C23.1214 28 25.2027 28 26.6974 27.0373C27.3405 26.6239 27.8959 26.0879 28.3321 25.46C29.3307 24.02 29.3307 22.0133 29.3307 18C29.3307 13.9867 29.3307 11.9813 28.3307 10.54C27.895 9.91215 27.3401 9.37619 26.6974 8.96267C25.2027 8 23.1214 8 18.9601 8H13.0347C8.8734 8 6.79206 8 5.2974 8.96267C4.65476 9.37622 4.09977 9.91218 3.66406 10.54C2.66406 11.98 2.66406 13.9867 2.66406 17.9973V18C2.66406 22.0133 2.66406 24.0187 3.66273 25.46C4.09473 26.084 4.6494 26.62 5.2974 27.0373C6.79206 28 8.8734 28 13.0347 28ZM10.4414 18C10.4414 15.04 12.9294 12.6427 15.9974 12.6427C19.0654 12.6427 21.5534 15.0413 21.5534 18C21.5534 20.9587 19.0641 23.3573 15.9974 23.3573C12.9294 23.3573 10.4414 20.9573 10.4414 18ZM12.6641 18C12.6641 16.224 14.1574 14.7867 15.9974 14.7867C17.8374 14.7867 19.3307 16.2253 19.3307 18C19.3307 19.7747 17.8374 21.2133 15.9974 21.2133C14.1574 21.2133 12.6641 19.7747 12.6641 18ZM24.1454 12.6427C23.5321 12.6427 23.0347 13.1227 23.0347 13.7147C23.0347 14.3053 23.5321 14.7853 24.1454 14.7853H24.8867C25.5001 14.7853 25.9974 14.3053 25.9974 13.7147C25.9974 13.1227 25.5001 12.6427 24.8867 12.6427H24.1454Z" fill="white"/>
</svg>
