<svg width="14" height="17" viewBox="0 0 14 17" fill="none" xmlns="http://www.w3.org/2000/svg">
<path d="M12.0422 4.71053H12.4422C12.884 4.71053 13.2422 4.3335 13.2422 3.86842V3.44737C13.2422 2.98229 12.884 2.60526 12.4422 2.60526H10.0422M12.0422 4.71053V14.8158C12.0422 15.746 11.3258 16.5 10.4422 16.5H4.04219C3.15853 16.5 2.44219 15.746 2.44219 14.8158V4.71053M12.0422 4.71053H2.44219M2.44219 4.71053H2.04219C1.60036 4.71053 1.24219 4.3335 1.24219 3.86842V3.44737C1.24219 2.98229 1.60036 2.60526 2.04219 2.60526H4.44219M5.64219 7.65789V13.5526M8.84219 7.65789V13.5526M10.0422 2.60526V2.18421C10.0422 1.25405 9.32584 0.5 8.44219 0.5H6.04219C5.15853 0.5 4.44219 1.25405 4.44219 2.18421V2.60526M10.0422 2.60526H4.44219" stroke="#E80909" stroke-linecap="round" stroke-linejoin="round"/>
</svg>
