<svg width="16" height="10" viewBox="0 0 16 10" fill="none" xmlns="http://www.w3.org/2000/svg">
<path d="M15.1 7.51066V7.49977L15.0977 7.48912L14.0151 2.58189V2.57501H14.0157L14.0146 2.56486C13.9834 2.25845 13.7459 2.00844 13.4035 1.80723C13.0577 1.60404 12.582 1.43659 12.0264 1.30318C10.914 1.03606 9.45764 0.9 8.01777 0.9C6.56902 0.9 5.11243 1.03606 4.00206 1.30319C3.44751 1.43661 2.97346 1.60407 2.62907 1.80732C2.28791 2.00866 2.05191 2.25872 2.02092 2.56494L2.02041 2.56489V2.57501V2.58154L0.902498 7.48845L0.9 7.49942V7.51066V7.5633C0.9 7.92662 1.15751 8.22732 1.55156 8.47042C1.94863 8.71538 2.50874 8.91799 3.17041 9.07981C4.49535 9.40384 6.25385 9.57046 7.99996 9.57046C9.74587 9.57046 11.5044 9.40829 12.8294 9.08648C13.4911 8.92577 14.0513 8.7237 14.4486 8.4778C14.8431 8.23355 15.1 7.93058 15.1 7.5633V7.51066ZM7.99996 1.55524C9.66508 1.55524 11.0217 1.72964 11.9593 1.96353C12.4287 2.08064 12.789 2.21166 13.0295 2.34076C13.1501 2.40545 13.2361 2.46735 13.2907 2.52334C13.3463 2.58032 13.3598 2.6211 13.3598 2.64538C13.3598 2.66955 13.3464 2.70998 13.291 2.7664C13.2365 2.82188 13.1505 2.8831 13.0299 2.94699C12.7894 3.07447 12.4291 3.20332 11.9596 3.31824C11.0219 3.54776 9.66518 3.71775 7.99996 3.71775C6.33492 3.71775 4.97832 3.54335 4.04072 3.30946C3.57127 3.19235 3.21098 3.06133 2.97042 2.93223C2.84988 2.86754 2.7638 2.80564 2.70919 2.74965C2.65361 2.69266 2.6401 2.65189 2.6401 2.6276C2.6401 2.60357 2.65345 2.56321 2.7089 2.50681C2.76342 2.45137 2.84942 2.39017 2.96996 2.32629C3.21049 2.19883 3.57078 2.06997 4.0403 1.955C4.97801 1.7254 6.33474 1.55524 7.99996 1.55524ZM1.55665 7.58493L2.48212 3.39542C2.95161 3.7149 3.71959 3.95401 4.6266 4.1179C5.62673 4.29862 6.81407 4.39089 7.99996 4.39089C9.18583 4.39089 10.3776 4.29862 11.38 4.11791C12.287 3.95438 13.0547 3.71586 13.5181 3.39671L14.4432 7.58485C14.4356 7.62712 14.4071 7.68168 14.3418 7.7472C14.2704 7.81892 14.1625 7.89586 14.0159 7.97484C13.7231 8.13262 13.2911 8.29037 12.731 8.43039C11.612 8.71012 9.99739 8.91515 7.99996 8.91515C6.00253 8.91515 4.38772 8.71012 3.2686 8.43038C2.70845 8.29037 2.27646 8.13261 1.98365 7.97484C1.83709 7.89587 1.72925 7.81893 1.65786 7.74723C1.59262 7.6817 1.56424 7.62716 1.55665 7.58493Z" fill="#827397" stroke="#827397" stroke-width="0.2"/>
<path d="M5.79668 7.05549L5.72594 6.98481L5.72591 6.98484L5.72584 6.98491L5.72569 6.98506L5.72538 6.98537L5.72467 6.9861L5.7229 6.98796L5.71816 6.99324C5.71462 6.99735 5.70985 7.00325 5.70493 7.01054C5.7027 7.01384 5.69946 7.01881 5.69602 7.02521H5.64405V7.06008H5.62627V7.13211C5.62119 7.14032 5.61653 7.15005 5.61325 7.16133C5.61038 7.17118 5.60891 7.18104 5.60857 7.19068M5.60857 7.19068C5.60861 7.19011 5.60864 7.18954 5.60868 7.18898L5.7085 7.19494H5.6085C5.6085 7.19353 5.60852 7.19211 5.60857 7.19068ZM4.01719 7.14299H4.01699L4.01739 7.14933C4.05605 7.75829 4.55165 8.25746 5.16779 8.25746C5.64223 8.25746 6.06228 7.94738 6.22017 7.52259H9.80344C9.95894 7.94668 10.364 8.25746 10.8561 8.25746C11.4712 8.25746 11.9712 7.7574 11.9712 7.14231C11.9712 6.90443 11.8956 6.66281 11.7408 6.47416C11.8805 6.29017 11.9712 6.05291 11.9712 5.81202C11.9712 5.19693 11.4712 4.69687 10.8561 4.69687C10.3816 4.69687 9.96156 5.00696 9.80367 5.43175L6.20273 5.43241C6.04723 5.00833 5.64216 4.69756 5.15011 4.69756C4.53502 4.69756 4.03497 5.19761 4.03497 5.81271C4.03497 6.05027 4.11024 6.29008 4.25021 6.47745C4.10901 6.66192 4.01719 6.90061 4.01719 7.14299Z" fill="#827397" stroke="#827397" stroke-width="0.2"/>
</svg>
