<svg width="14" height="14" viewBox="0 0 14 14" fill="none" xmlns="http://www.w3.org/2000/svg">
<path d="M7.95474 3.58594L2.45748 9.08319C2.37249 9.16823 2.31223 9.27478 2.28314 9.39143L0.9375 13.5291L5.07519 12.1835C5.19184 12.1544 5.29839 12.0941 5.38343 12.0091L10.8807 6.51188L7.95474 3.58594Z" fill="#007A65"/>
<path d="M13.3444 3.12022L11.3557 1.13158C11.2314 1.00731 11.0628 0.9375 10.8871 0.9375C10.7113 0.9375 10.5427 1.00731 10.4184 1.13158L8.89844 2.65156L11.8244 5.57751L13.3444 4.05753C13.4686 3.93322 13.5384 3.76465 13.5384 3.58887C13.5384 3.4131 13.4686 3.24453 13.3444 3.12022Z" fill="#007A65"/>
</svg>
