<svg width="8" height="13" viewBox="0 0 8 13" fill="none" xmlns="http://www.w3.org/2000/svg">
<path d="M4.50526 7.25065C5.20585 7.09645 5.81594 6.74783 6.33217 6.20143C7.00259 5.49413 7.34116 4.64269 7.34116 3.67393C7.34116 3.04038 7.18026 2.43029 6.8618 1.86043C6.53665 1.27381 6.07741 0.811214 5.49078 0.486058C4.91757 0.164254 4.30748 0 3.67393 0C3.03703 0 2.42359 0.160902 1.85373 0.479354C1.27381 0.80451 0.811215 1.26375 0.482707 1.85037L0.479355 1.85373C0.160904 2.43029 0 3.04038 0 3.67393C0 4.32424 0.167608 4.94774 0.499467 5.53101L0.502819 5.53771C0.844736 6.12098 1.30733 6.57352 1.88054 6.88191L1.88725 6.88527C2.20905 7.05622 2.5208 7.1769 2.82584 7.25065V8.29651H0.191072V9.97592H2.82584V12.49H4.50526V9.97593H7.13332V8.29651H4.50526L4.50526 7.25065ZM3.66723 1.66265C4.0125 1.66265 4.33765 1.74981 4.66951 1.93082L4.67622 1.93418C4.99467 2.10178 5.23602 2.33978 5.41368 2.65824C5.59805 2.9901 5.68856 3.32531 5.68856 3.67728C5.68856 4.24379 5.49413 4.70974 5.09523 5.11199C4.69968 5.50754 4.23374 5.70197 3.66723 5.70197C3.10742 5.70197 2.63813 5.5109 2.23922 5.11199C1.84367 4.71309 1.64925 4.24379 1.64925 3.67728C1.64925 3.32531 1.73976 2.9901 1.92412 2.65824C2.10178 2.33978 2.34314 2.10178 2.65824 1.93082C2.9968 1.74981 3.32531 1.66265 3.66723 1.66265Z" fill="#F772E1"/>
</svg>
