<svg width="25" height="27" viewBox="0 0 25 27" fill="none" xmlns="http://www.w3.org/2000/svg">
<path d="M15.7059 4.67649L1.73529 4.67647M15.7059 4.67649C15.7059 6.70695 17.3519 8.35294 19.3824 8.35294C21.4128 8.35294 23.0588 6.70693 23.0588 4.67647C23.0588 2.64601 21.4128 1 19.3824 1C17.3519 1 15.7059 2.64604 15.7059 4.67649ZM22.3235 13.5H8.35295M8.35295 13.5C8.35295 15.5304 6.70693 17.1765 4.67647 17.1765C2.64601 17.1765 1 15.5305 1 13.5C1 11.4695 2.64601 9.82353 4.67647 9.82353C6.70693 9.82353 8.35295 11.4695 8.35295 13.5ZM15.7059 22.3236L1.73529 22.3235M15.7059 22.3236C15.7059 24.354 17.3519 26 19.3824 26C21.4128 26 23.0588 24.354 23.0588 22.3235C23.0588 20.2931 21.4128 18.6471 19.3824 18.6471C17.3519 18.6471 15.7059 20.2931 15.7059 22.3236Z" stroke="#444444" stroke-width="2" stroke-linecap="round" stroke-linejoin="round"/>
</svg>
