<svg width="59" height="59" viewBox="0 0 59 59" fill="none" xmlns="http://www.w3.org/2000/svg">
<g filter="url(#filter0_i_2381_1919)">
<g filter="url(#filter1_i_2381_1919)">
<circle cx="29.5" cy="29.5" r="29.5" fill="url(#paint0_linear_2381_1919)"/>
</g>
<path d="M35.7552 15.4058C36.5091 15.7235 37.2416 16.1073 37.9323 16.5466C38.6289 16.9879 39.3139 15.9057 38.6227 15.4659C37.8711 14.9884 37.0746 14.5711 36.2557 14.2257C35.4958 13.9083 34.9894 15.0839 35.7552 15.4058Z" fill="white"/>
<path d="M25.9394 14.7973C25.9967 14.7973 26.054 14.7896 26.1095 14.7744C26.8993 14.5586 27.7128 14.4079 28.5279 14.3263C29.3517 14.2442 29.2235 12.9623 28.3994 13.0513C27.5102 13.1406 26.6255 13.3045 25.7693 13.5386C25.0794 13.7273 25.2224 14.7973 25.9394 14.7973Z" fill="white"/>
<path d="M30.9936 14.2795C31.8135 14.3321 32.632 14.454 33.4261 14.6411C34.2278 14.8328 34.513 13.5803 33.7217 13.3945C32.8555 13.1903 31.9653 13.0582 31.0759 13.0009C30.2554 12.9624 30.1635 14.2261 30.9936 14.2795Z" fill="white"/>
<path d="M41.5758 19.8206C42.0881 20.4653 43.0965 19.6701 42.5827 19.0246C42.0298 18.3293 41.4142 17.6752 40.753 17.0803C40.1416 16.5298 39.2738 17.4765 39.8922 18.0312C40.5006 18.5788 41.0674 19.1807 41.5758 19.8206Z" fill="white"/>
<path d="M43.9389 24.1103C44.2099 24.8885 45.424 24.4683 45.1522 23.6889C44.8598 22.8511 44.4936 22.0311 44.0631 21.2519C43.6674 20.5347 42.5323 21.1368 42.9377 21.8695C43.3329 22.5858 43.6695 23.3397 43.9389 24.1103Z" fill="white"/>
<path d="M15.3211 25.0587C15.6047 25.0587 15.8512 24.877 15.9348 24.6065C16.1756 23.8273 16.4851 23.0623 16.8542 22.3324C17.2305 21.5878 16.0791 21.0233 15.7067 21.7553C15.3048 22.5497 14.9685 23.3818 14.707 24.2292C14.5824 24.6331 14.9006 25.0587 15.3211 25.0587Z" fill="white"/>
<path d="M45.8133 26.2652C45.6776 25.4582 44.4067 25.6528 44.5461 26.4774C44.6674 27.1977 44.7156 28.8145 44.7156 28.9125C44.7156 37.0793 38.1914 43.7233 30.172 43.7233C24.7941 43.7233 19.7766 40.6132 17.2806 35.7669L18.6002 36.457C19.3293 36.84 19.933 35.7088 19.1975 35.3227L16.252 33.7816C15.8778 33.5862 15.3933 33.8231 15.3203 34.2389L14.753 37.4809C14.6129 38.2838 15.8788 38.5014 16.0187 37.701L16.2252 36.5221C18.9659 41.6876 24.3986 45.0042 30.172 45.0042C38.7881 45.0042 45.8866 37.8773 45.9953 29.1175H45.9937C46.0247 28.7845 45.9349 26.9869 45.8133 26.2652C45.9349 26.9869 45.755 25.9186 45.8133 26.2652C45.9349 26.9869 45.6778 25.4582 45.8133 26.2652Z" fill="white"/>
<path d="M15.2848 28.9256C15.2851 28.2814 15.3274 27.634 15.4108 27.0012C15.5194 26.175 14.2434 26.0204 14.1365 26.8345C14.0462 27.5215 14.0003 28.2248 14 28.9251C14 29.2784 14.2883 29.5659 14.6424 29.5659C14.9965 29.5659 15.2848 29.2784 15.2848 28.9256C15.2851 28.2814 15.2848 29.2784 15.2848 28.9256Z" fill="white"/>
<path d="M21.3017 16.9481C21.4326 16.9481 21.5585 16.9089 21.6656 16.835C22.3429 16.3699 23.0617 15.9598 23.8014 15.6163C24.553 15.2674 24.0076 14.1067 23.2589 14.4551C22.4521 14.8296 21.6708 15.2756 20.9368 15.7799C20.435 16.125 20.696 16.9481 21.3017 16.9481Z" fill="white"/>
<path d="M17.6206 20.5001C17.8243 20.5001 18.0179 20.4025 18.1384 20.2394C18.6239 19.5818 19.1685 18.96 19.7569 18.3912C20.3526 17.8166 19.457 16.8957 18.8626 17.4713C18.2241 18.0884 17.6323 18.7641 17.1039 19.4798C16.8002 19.8905 17.1127 20.5001 17.6206 20.5001Z" fill="white"/>
<path d="M23.6831 19.3594C23.5391 19.3594 23.4219 19.4763 23.4219 19.6203V21.6368C23.4219 21.7809 23.5391 21.898 23.6831 21.898H24.4762C24.6202 21.898 24.7371 21.7809 24.7371 21.6368V19.6203C24.7371 19.4763 24.6202 19.3594 24.4762 19.3594H23.6831Z" fill="white"/>
<path d="M32.2688 19.3594C32.1247 19.3594 32.0078 19.4763 32.0078 19.6203V21.6368C32.0078 21.7809 32.1247 21.898 32.2688 21.898H33.0619C33.2059 21.898 33.3231 21.7809 33.3231 21.6368V19.6203C33.3231 19.4763 33.2059 19.3594 33.0619 19.3594H32.2688Z" fill="white"/>
<path d="M20.9922 23.6615H35.7588V21.2702C35.7588 21.104 35.6135 20.9688 35.4351 20.9688H34.1348V21.3727C34.1348 22.1077 33.5368 22.7055 32.802 22.7055H32.5447C31.8099 22.7055 31.2121 22.1075 31.2121 21.3727V20.9688H25.5388V21.3727C25.5388 22.1077 24.9408 22.7055 24.206 22.7055H23.949C23.2139 22.7055 22.6161 22.1075 22.6161 21.3727V20.9688H21.3158C21.1375 20.9688 20.9922 21.104 20.9922 21.2702V23.6615Z" fill="white"/>
<path d="M24.3364 26.8438H22.8516V28.3534H24.3364V26.8438Z" fill="white"/>
<path d="M24.3364 31.6719H22.8516V33.1812H24.3364V31.6719Z" fill="white"/>
<path d="M33.9067 32.7946V31.6719H32.4219V33.1812H33.4894C33.5129 33.1562 33.5382 33.133 33.5622 33.1084C33.5717 33.0986 33.5815 33.0891 33.5913 33.0793C33.654 33.0168 33.7188 32.9564 33.7859 32.8984C33.7957 32.8898 33.8053 32.8816 33.8151 32.8733C33.8458 32.847 33.8752 32.8196 33.9067 32.7946Z" fill="white"/>
<path d="M29.1177 31.6719H27.6328V33.1812H29.1177V31.6719Z" fill="white"/>
<path d="M20.9922 24.7266V35.0043C20.9922 35.1705 21.1375 35.3058 21.3158 35.3058H32.4745C32.5253 34.9364 32.6306 34.5851 32.7775 34.2566H31.8793C31.5832 34.2566 31.3435 34.0166 31.3435 33.7208V31.1398C31.3435 30.8437 31.5835 30.604 31.8793 30.604H34.436C34.732 30.604 34.9718 30.844 34.9718 31.1398V32.1998C35.2235 32.1074 35.486 32.0377 35.7588 32V24.7266H20.9922ZM25.4077 33.7205C25.4077 34.0166 25.1677 34.2563 24.8719 34.2563H22.3152C22.0192 34.2563 21.7794 34.0163 21.7794 33.7205V31.1395C21.7794 30.8435 22.0194 30.6037 22.3152 30.6037H24.8719C25.168 30.6037 25.4077 30.8437 25.4077 31.1395V33.7205ZM25.4077 28.893C25.4077 29.1891 25.1677 29.4289 24.8719 29.4289H22.3152C22.0192 29.4289 21.7794 29.1888 21.7794 28.893V26.3118C21.7794 26.0158 22.0194 25.776 22.3152 25.776H24.8719C25.168 25.776 25.4077 26.016 25.4077 26.3118V28.893ZM30.1898 33.7205C30.1898 34.0166 29.9497 34.2563 29.654 34.2563H27.0972C26.8012 34.2563 26.5614 34.0163 26.5614 33.7205V31.1395C26.5614 30.8435 26.8015 30.6037 27.0972 30.6037H29.654C29.95 30.6037 30.1898 30.8437 30.1898 31.1395V33.7205ZM30.1898 28.893C30.1898 29.1891 29.9497 29.4289 29.654 29.4289H27.0972C26.8012 29.4289 26.5614 29.1888 26.5614 28.893V26.3118C26.5614 26.0158 26.8015 25.776 27.0972 25.776H29.654C29.95 25.776 30.1898 26.016 30.1898 26.3118V28.893ZM34.9718 28.893C34.9718 29.1891 34.7318 29.4289 34.436 29.4289H31.8793C31.5832 29.4289 31.3435 29.1888 31.3435 28.893V26.3118C31.3435 26.0158 31.5835 25.776 31.8793 25.776H34.436C34.732 25.776 34.9718 26.016 34.9718 26.3118V28.893Z" fill="white"/>
<path d="M33.9067 26.8438H32.4219V28.3534H33.9067V26.8438Z" fill="white"/>
<path d="M29.1177 26.8438H27.6328V28.3534H29.1177V26.8438Z" fill="white"/>
<path d="M36.2746 33.0312C34.7445 33.0312 33.5 34.29 33.5 35.8376C33.5 37.3851 34.7448 38.6441 36.2746 38.6441C37.8048 38.6441 39.0494 37.3851 39.0494 35.8376C39.0494 34.29 37.8048 33.0312 36.2746 33.0312ZM36.8106 35.8376C36.8106 35.9632 36.7667 36.0846 36.686 36.1811L35.8066 37.2341C35.3627 37.7658 34.5422 37.0767 34.9841 36.5471L35.739 35.6429V34.2833C35.739 33.9872 35.979 33.7475 36.2748 33.7475C36.5709 33.7475 36.8106 33.9875 36.8106 34.2833V35.8376Z" fill="white"/>
</g>
<defs>
<filter id="filter0_i_2381_1919" x="0" y="0" width="59" height="63" filterUnits="userSpaceOnUse" color-interpolation-filters="sRGB">
<feFlood flood-opacity="0" result="BackgroundImageFix"/>
<feBlend mode="normal" in="SourceGraphic" in2="BackgroundImageFix" result="shape"/>
<feColorMatrix in="SourceAlpha" type="matrix" values="0 0 0 0 0 0 0 0 0 0 0 0 0 0 0 0 0 0 127 0" result="hardAlpha"/>
<feOffset dy="4"/>
<feGaussianBlur stdDeviation="18.5"/>
<feComposite in2="hardAlpha" operator="arithmetic" k2="-1" k3="1"/>
<feColorMatrix type="matrix" values="0 0 0 0 0 0 0 0 0 0 0 0 0 0 0 0 0 0 0.25 0"/>
<feBlend mode="normal" in2="shape" result="effect1_innerShadow_2381_1919"/>
</filter>
<filter id="filter1_i_2381_1919" x="0" y="0" width="59" height="63" filterUnits="userSpaceOnUse" color-interpolation-filters="sRGB">
<feFlood flood-opacity="0" result="BackgroundImageFix"/>
<feBlend mode="normal" in="SourceGraphic" in2="BackgroundImageFix" result="shape"/>
<feColorMatrix in="SourceAlpha" type="matrix" values="0 0 0 0 0 0 0 0 0 0 0 0 0 0 0 0 0 0 127 0" result="hardAlpha"/>
<feOffset dy="4"/>
<feGaussianBlur stdDeviation="18.5"/>
<feComposite in2="hardAlpha" operator="arithmetic" k2="-1" k3="1"/>
<feColorMatrix type="matrix" values="0 0 0 0 0 0 0 0 0 0 0 0 0 0 0 0 0 0 0.25 0"/>
<feBlend mode="normal" in2="shape" result="effect1_innerShadow_2381_1919"/>
</filter>
<linearGradient id="paint0_linear_2381_1919" x1="15.9368" y1="12.546" x2="49.1667" y2="51.2011" gradientUnits="userSpaceOnUse">
<stop stop-color="#4F9CA0"/>
<stop offset="1" stop-color="#326D66"/>
</linearGradient>
</defs>
</svg>
