<svg width="15" height="13" viewBox="0 0 15 13" fill="none" xmlns="http://www.w3.org/2000/svg">
<path d="M13.1519 0.84375H10.6068C10.4442 0.84375 10.3125 0.975955 10.3125 1.13853C10.3125 1.3011 10.4442 1.4333 10.6068 1.4333H12.1241V2.20084H10.6068C10.4442 2.20084 10.3125 2.33211 10.3125 2.49468C10.3125 2.65725 10.4442 2.78945 10.6068 2.78945H12.1241V3.55699H10.6068C10.4442 3.55699 10.3125 3.68919 10.3125 3.85176C10.3125 4.01433 10.4442 4.1456 10.6068 4.1456H12.1241V4.91408H10.6068C10.4442 4.91408 10.3125 5.04535 10.3125 5.20792C10.3125 5.37049 10.4442 5.50269 10.6068 5.50269H12.1241V6.27023H10.6068C10.4442 6.27023 10.3125 6.4015 10.3125 6.56407C10.3125 6.72757 10.4442 6.85884 10.6068 6.85884H12.1241V7.62731H10.6068C10.4442 7.62731 10.3125 7.75858 10.3125 7.92115C10.3125 8.08372 10.4442 8.21593 10.6068 8.21593H12.1241V8.98347H10.6068C10.4442 8.98347 10.3125 9.11474 10.3125 9.27824C10.3125 9.44081 10.4442 9.57208 10.6068 9.57208H12.1241V12.3465C12.1241 12.5091 12.2559 12.6404 12.4184 12.6404H13.1519C13.7419 12.6404 14.2221 12.1606 14.2221 11.5701V1.91494C14.2221 1.32445 13.7419 0.84375 13.1519 0.84375ZM13.634 11.5682C13.634 11.8336 13.4177 12.0499 13.1523 12.0499H12.7132V1.4333H13.1523C13.4177 1.4333 13.634 1.64866 13.634 1.91494V11.5682Z" fill="#827397"/>
<path d="M7.95478 8.59111L6.90742 7.09481L8.68635 4.55442C9.73792 3.05252 8.64103 1.07645 8.59432 0.992363C8.5448 0.904537 8.45324 0.848012 8.35186 0.843807C8.25236 0.842873 8.15472 0.885851 8.0968 0.969005L5.3574 4.88143L2.61753 0.969005C2.56007 0.885851 2.46664 0.841939 2.36246 0.843807C2.26156 0.848479 2.17046 0.905005 2.12001 0.992363C2.07283 1.07645 0.976881 3.05252 2.02845 4.55442L3.80738 7.09481L2.76001 8.59111C2.15038 8.63222 1.58745 8.94335 1.23522 9.44694C0.924093 9.89027 0.804501 10.4289 0.898399 10.9624C0.992297 11.4954 1.28894 11.9607 1.73227 12.2709C2.07516 12.511 2.47692 12.6385 2.89362 12.6385C3.55605 12.6385 4.17736 12.3148 4.55716 11.7734C4.92248 11.2506 5.0061 10.6148 4.84119 10.0454L5.35693 9.30913L5.87267 10.0454C5.70823 10.6148 5.79139 11.2506 6.15717 11.7734C6.53697 12.3143 7.15828 12.6385 7.81977 12.6385C8.23741 12.6385 8.63916 12.511 8.98159 12.2709C9.42539 11.9607 9.7211 11.4954 9.815 10.9624C9.90889 10.4284 9.78977 9.89027 9.47911 9.44694C9.12688 8.94335 8.56442 8.63222 7.95478 8.59111ZM8.28319 1.72953C8.5107 2.32329 8.77978 3.39448 8.20424 4.21667L6.54818 6.58188L5.71711 5.3939L8.28319 1.72953ZM4.07459 11.4361C3.80551 11.8201 3.36405 12.0495 2.89409 12.0495C2.59838 12.0495 2.31388 11.9602 2.07003 11.7893C1.75516 11.5683 1.54541 11.239 1.47861 10.8606C1.41134 10.4817 1.49589 10.0996 1.71686 9.7847C1.98594 9.40069 2.4274 9.17132 2.89736 9.17132C3.19307 9.17132 3.47803 9.26055 3.72142 9.43153C4.37123 9.88654 4.5296 10.7853 4.07459 11.4361ZM4.54782 9.4376C4.41701 9.25307 4.25491 9.0863 4.05871 8.94849C3.86624 8.81348 3.65321 8.71865 3.43085 8.65838L4.16615 7.60822L4.99722 8.79526L4.54782 9.4376ZM6.16651 9.4376L2.51055 4.21714C1.93502 3.39494 2.2041 2.32376 2.43114 1.73L7.28348 8.65885C7.06065 8.71911 6.84809 8.81395 6.65562 8.94895C6.45942 9.0863 6.29778 9.25354 6.16651 9.4376ZM9.23619 10.8601C9.16939 11.239 8.95917 11.5683 8.6443 11.7888C8.40092 11.9593 8.11595 12.049 7.81977 12.049C7.34982 12.049 6.90882 11.8201 6.63974 11.4356C6.18473 10.7849 6.3431 9.88654 6.99338 9.43106C7.23676 9.26055 7.52173 9.17085 7.81744 9.17085C8.2874 9.17085 8.72886 9.39976 8.99794 9.78423C9.21797 10.0991 9.30253 10.4817 9.23619 10.8601Z" fill="#827397"/>
</svg>
