<svg width="59" height="59" viewBox="0 0 59 59" fill="none" xmlns="http://www.w3.org/2000/svg">
<g filter="url(#filter0_i_2156_2965)">
<circle cx="29.5" cy="29.5" r="29.5" fill="url(#paint0_linear_2156_2965)"/>
</g>
<path d="M40.9944 18H35.8165C35.4858 18 35.2178 18.269 35.2178 18.5997C35.2178 18.9305 35.4858 19.1994 35.8165 19.1994H38.9035V20.761H35.8165C35.4858 20.761 35.2178 21.028 35.2178 21.3588C35.2178 21.6895 35.4858 21.9585 35.8165 21.9585H38.9035V23.52H35.8165C35.4858 23.52 35.2178 23.789 35.2178 24.1198C35.2178 24.4505 35.4858 24.7176 35.8165 24.7176H38.9035V26.281H35.8165C35.4858 26.281 35.2178 26.5481 35.2178 26.8788C35.2178 27.2096 35.4858 27.4785 35.8165 27.4785H38.9035V29.0401H35.8165C35.4858 29.0401 35.2178 29.3071 35.2178 29.6379C35.2178 29.9705 35.4858 30.2376 35.8165 30.2376H38.9035V31.801H35.8165C35.4858 31.801 35.2178 32.0681 35.2178 32.3989C35.2178 32.7296 35.4858 32.9986 35.8165 32.9986H38.9035V34.5601H35.8165C35.4858 34.5601 35.2178 34.8272 35.2178 35.1598C35.2178 35.4906 35.4858 35.7576 35.8165 35.7576H38.9035V41.4022C38.9035 41.7329 39.1715 42 39.5023 42H40.9944C42.1948 42 43.1718 41.0239 43.1718 39.8226V20.1793C43.1718 18.978 42.1948 18 40.9944 18ZM41.9753 39.8188C41.9753 40.3586 41.5352 40.7987 40.9954 40.7987H40.102V19.1994H40.9954C41.5352 19.1994 41.9753 19.6376 41.9753 20.1793V39.8188Z" fill="white"/>
<path d="M30.4196 33.7638L28.2887 30.7196L31.9079 25.5513C34.0473 22.4957 31.8158 18.4754 31.7207 18.3043C31.62 18.1256 31.4337 18.0106 31.2274 18.0021C31.025 18.0002 30.8264 18.0876 30.7085 18.2568L25.1353 26.2165L19.561 18.2568C19.4441 18.0876 19.2541 17.9983 19.0421 18.0021C18.8368 18.0116 18.6515 18.1266 18.5488 18.3043C18.4529 18.4754 16.2232 22.4957 18.3626 25.5513L21.9818 30.7196L19.8509 33.7638C18.6106 33.8475 17.4654 34.4804 16.7488 35.505C16.1158 36.4069 15.8725 37.5028 16.0635 38.5882C16.2545 39.6726 16.8581 40.6192 17.76 41.2503C18.4576 41.7388 19.275 41.9983 20.1227 41.9983C21.4704 41.9983 22.7345 41.3396 23.5072 40.2381C24.2504 39.1746 24.4205 37.881 24.085 36.7225L25.1343 35.2246L26.1836 36.7225C25.849 37.881 26.0182 39.1746 26.7624 40.2381C27.5351 41.3387 28.7991 41.9983 30.1449 41.9983C30.9946 41.9983 31.812 41.7388 32.5086 41.2503C33.4115 40.6192 34.0131 39.6726 34.2042 38.5882C34.3952 37.5018 34.1528 36.4069 33.5208 35.505C32.8042 34.4804 31.6599 33.8475 30.4196 33.7638ZM31.0877 19.8041C31.5506 21.012 32.098 23.1914 30.9271 24.8641L27.5579 29.6761L25.8671 27.2592L31.0877 19.8041ZM22.5254 39.5519C21.978 40.3331 21.0798 40.7998 20.1237 40.7998C19.5221 40.7998 18.9433 40.6183 18.4472 40.2704C17.8066 39.8209 17.3798 39.1508 17.2439 38.381C17.1071 37.6102 17.2791 36.8327 17.7286 36.1922C18.2761 35.4109 19.1742 34.9443 20.1303 34.9443C20.732 34.9443 21.3117 35.1258 21.8069 35.4736C23.1289 36.3993 23.4511 38.228 22.5254 39.5519ZM23.4882 35.486C23.2221 35.1106 22.8923 34.7713 22.4931 34.4909C22.1015 34.2162 21.6681 34.0233 21.2157 33.9007L22.7117 31.7641L24.4025 34.1792L23.4882 35.486ZM26.7814 35.486L19.3434 24.8651C18.1725 23.1923 18.7199 21.013 19.1818 19.805L29.0538 33.9016C28.6005 34.0242 28.168 34.2172 27.7765 34.4919C27.3773 34.7713 27.0485 35.1115 26.7814 35.486ZM33.0266 38.38C32.8907 39.1508 32.463 39.8209 31.8224 40.2695C31.3272 40.6164 30.7475 40.7988 30.1449 40.7988C29.1888 40.7988 28.2916 40.3331 27.7442 39.5509C26.8184 38.227 27.1406 36.3993 28.4636 35.4727C28.9588 35.1258 29.5386 34.9433 30.1402 34.9433C31.0963 34.9433 31.9944 35.409 32.5419 36.1912C32.9895 36.8318 33.1616 37.6102 33.0266 38.38Z" fill="white"/>
<defs>
<filter id="filter0_i_2156_2965" x="0" y="0" width="59" height="63" filterUnits="userSpaceOnUse" color-interpolation-filters="sRGB">
<feFlood flood-opacity="0" result="BackgroundImageFix"/>
<feBlend mode="normal" in="SourceGraphic" in2="BackgroundImageFix" result="shape"/>
<feColorMatrix in="SourceAlpha" type="matrix" values="0 0 0 0 0 0 0 0 0 0 0 0 0 0 0 0 0 0 127 0" result="hardAlpha"/>
<feOffset dy="4"/>
<feGaussianBlur stdDeviation="18.5"/>
<feComposite in2="hardAlpha" operator="arithmetic" k2="-1" k3="1"/>
<feColorMatrix type="matrix" values="0 0 0 0 0 0 0 0 0 0 0 0 0 0 0 0 0 0 0.25 0"/>
<feBlend mode="normal" in2="shape" result="effect1_innerShadow_2156_2965"/>
</filter>
<linearGradient id="paint0_linear_2156_2965" x1="15.9368" y1="12.546" x2="49.1667" y2="51.2011" gradientUnits="userSpaceOnUse">
<stop stop-color="#7D4FA0"/>
<stop offset="1" stop-color="#C53BA6"/>
</linearGradient>
</defs>
</svg>
