<svg width="28" height="28" viewBox="0 0 28 28" fill="none" xmlns="http://www.w3.org/2000/svg">
<path fill-rule="evenodd" clip-rule="evenodd" d="M8.94648 25.6693H19.0576C23.0129 25.6693 25.6693 22.8948 25.6693 18.7664V9.23878C25.6693 5.1104 23.0129 2.33594 19.0587 2.33594H8.94648C4.99232 2.33594 2.33594 5.1104 2.33594 9.23878V18.7664C2.33594 22.8948 4.99232 25.6693 8.94648 25.6693ZM9.91729 12.836C8.30887 12.836 7.00195 11.5273 7.00195 9.91933C7.00195 8.31135 8.30887 7.00266 9.91729 7.00266C11.5245 7.00266 12.8326 8.31135 12.8326 9.91933C12.8326 11.5273 11.5245 12.836 9.91729 12.836ZM23.1264 17.4256C23.517 18.4273 23.3141 19.6313 22.8964 20.6234C22.4013 21.8033 21.4534 22.6967 20.2591 23.0868C19.7288 23.2602 19.1728 23.336 18.6179 23.336H8.78549C7.80707 23.336 6.94126 23.1012 6.23149 22.6642C5.78686 22.3897 5.70826 21.7564 6.03792 21.3458C6.58931 20.6595 7.13366 19.9709 7.68271 19.2761C8.72918 17.9469 9.43426 17.5617 10.2179 17.9C10.5359 18.0397 10.855 18.2491 11.1835 18.4707C12.0586 19.0655 13.2752 19.883 14.8778 18.9956C15.9744 18.3814 16.6105 17.3278 17.1644 16.4103L17.1737 16.395C17.2129 16.3306 17.2518 16.2663 17.2906 16.2021L17.2906 16.2021C17.4768 15.8941 17.6604 15.5902 17.8682 15.3102C18.1286 14.9598 19.0942 13.8642 20.3448 14.6444C21.1413 15.1356 21.8112 15.8002 22.528 16.5118C22.8014 16.7839 22.9961 17.0933 23.1264 17.4256Z" fill="#9E9E9E"/>
</svg>
