<svg width="14" height="17" viewBox="0 0 14 17" fill="none" xmlns="http://www.w3.org/2000/svg">
<path d="M13 7.05068C13 9.42124 9.98062 13.3472 8.22568 15.4288C7.58363 16.1904 6.41637 16.1904 5.77432 15.4288C4.01938 13.3472 1 9.42124 1 7.05068C1 3.70898 3.68629 1 7 1C10.3137 1 13 3.70898 13 7.05068Z" stroke="#C2C2C2" stroke-linecap="round" stroke-linejoin="round"/>
<path d="M9.22891 6.83026C9.22891 8.02623 8.23114 8.99577 7.00033 8.99577C5.76953 8.99577 4.77176 8.02623 4.77176 6.83026C4.77176 5.63428 5.76953 4.66475 7.00033 4.66475C8.23114 4.66475 9.22891 5.63428 9.22891 6.83026Z" stroke="#C2C2C2" stroke-linecap="round" stroke-linejoin="round"/>
</svg>
