<svg width="256" height="266" viewBox="0 0 256 266" fill="none" xmlns="http://www.w3.org/2000/svg">
<g clip-path="url(#clip0_1473_13225)">
<path d="M176.668 144.301C176.165 167.532 185.541 254.467 185.541 254.467H202.282L203.288 182.057L224.431 254.467H241.129C241.129 254.467 229.047 155.333 223.254 143.117L176.668 144.301Z" fill="#7253A2"/>
<path d="M200.183 173.148L197.641 250.959" stroke="#462E69" stroke-width="1.1" stroke-linecap="round" stroke-linejoin="round"/>
<path d="M219.133 145.18L237.195 250.958" stroke="#462E69" stroke-width="1.1" stroke-linecap="round" stroke-linejoin="round"/>
<path d="M202.833 263.937C202.848 264.201 202.809 264.466 202.718 264.715C202.627 264.964 202.486 265.192 202.304 265.385C202.122 265.578 201.903 265.732 201.659 265.837C201.416 265.943 201.153 265.998 200.887 265.998H172.927C172.638 266.001 172.35 265.946 172.082 265.837C171.814 265.727 171.57 265.565 171.366 265.359C171.123 265.117 170.939 264.821 170.831 264.496C170.723 264.17 170.692 263.824 170.742 263.484C170.792 263.145 170.92 262.822 171.118 262.541C171.315 262.26 171.575 262.029 171.878 261.867L179.847 257.539L184.113 261.798H202.679L202.833 263.937Z" fill="#462E69"/>
<path d="M255.967 263.799C255.967 264.382 255.735 264.941 255.322 265.353C254.909 265.765 254.349 265.997 253.766 265.997H225.84C225.574 265.997 225.311 265.944 225.067 265.839C224.822 265.734 224.602 265.58 224.42 265.387C224.238 265.193 224.097 264.965 224.007 264.715C223.916 264.466 223.878 264.2 223.894 263.935L224.014 261.772H243.476L247.418 257.836L254.849 261.865C255.193 262.057 255.478 262.338 255.675 262.679C255.871 263.019 255.972 263.406 255.967 263.799Z" fill="#462E69"/>
<path d="M202.748 250.117H184.907C184.492 250.117 184.156 250.453 184.156 250.867V253.712C184.156 254.126 184.492 254.462 184.907 254.462H202.748C203.163 254.462 203.499 254.126 203.499 253.712V250.867C203.499 250.453 203.163 250.117 202.748 250.117Z" fill="#977EBA"/>
<path d="M241.092 250.117H223.251C222.836 250.117 222.5 250.453 222.5 250.867V253.712C222.5 254.126 222.836 254.462 223.251 254.462H241.092C241.506 254.462 241.842 254.126 241.842 253.712V250.867C241.842 250.453 241.506 250.117 241.092 250.117Z" fill="#977EBA"/>
<path d="M203.289 182.082L198.102 167.148" stroke="#462E69" stroke-width="1.1" stroke-linecap="round" stroke-linejoin="round"/>
<path d="M202.718 261.82H184.152L179.852 257.544L185.543 254.469H202.291L202.718 261.82Z" fill="#F5A4C6"/>
<path d="M247.419 257.851L243.486 261.778H224.016L224.434 254.469H241.191L247.419 257.851Z" fill="#F5A4C6"/>
<path d="M142.776 121.818H129.124C128.565 121.799 128.03 121.589 127.607 121.223C127.185 120.857 126.901 120.358 126.804 119.808L122.794 93.706C122.748 93.458 122.758 93.2031 122.823 92.9595C122.889 92.716 123.007 92.4899 123.17 92.2976C123.333 92.1052 123.537 91.9515 123.767 91.8474C123.997 91.7433 124.248 91.6914 124.5 91.6955H138.151C138.711 91.7143 139.246 91.9243 139.669 92.2903C140.091 92.6563 140.375 93.1561 140.472 93.706L144.517 119.782C144.567 120.035 144.559 120.296 144.494 120.545C144.429 120.794 144.309 121.026 144.141 121.222C143.973 121.418 143.764 121.573 143.527 121.677C143.291 121.78 143.034 121.828 142.776 121.818Z" fill="#462E69"/>
<path d="M141.058 121.818H127.406C126.848 121.798 126.313 121.587 125.891 121.221C125.469 120.856 125.185 120.357 125.086 119.808L121.067 93.706C121.021 93.458 121.032 93.2031 121.097 92.9595C121.162 92.716 121.28 92.4899 121.444 92.2976C121.607 92.1052 121.811 91.9515 122.041 91.8474C122.271 91.7433 122.521 91.6914 122.773 91.6955H136.425C136.984 91.7143 137.52 91.9243 137.942 92.2903C138.364 92.6563 138.648 93.1561 138.746 93.706L142.79 119.782C142.84 120.034 142.833 120.294 142.768 120.543C142.704 120.792 142.584 121.022 142.417 121.218C142.25 121.414 142.042 121.57 141.806 121.674C141.571 121.778 141.315 121.827 141.058 121.818Z" fill="#7253A2"/>
<path d="M125.569 100.667C125.187 100.649 124.822 100.503 124.532 100.252C124.243 100.002 124.046 99.6619 123.974 99.2865L123.428 95.8023C123.394 95.632 123.4 95.4565 123.444 95.2886C123.487 95.1207 123.568 94.9648 123.681 94.8323C123.793 94.6999 123.933 94.5942 124.092 94.5233C124.25 94.4523 124.423 94.4178 124.597 94.4223C124.979 94.4402 125.344 94.5861 125.634 94.8364C125.923 95.0867 126.12 95.4269 126.192 95.8023L126.73 99.2865C126.764 99.4563 126.76 99.6317 126.718 99.7996C126.675 99.9675 126.595 100.124 126.483 100.256C126.372 100.389 126.232 100.495 126.073 100.566C125.915 100.637 125.743 100.671 125.569 100.667Z" fill="#462E69"/>
<path d="M156.818 119.466L152.996 126.852C152.996 126.852 137.467 122.592 136.077 121.74C134.686 120.889 133.27 117.728 133.406 114.925C133.543 112.123 132.041 110.751 131.29 111.058C131.094 111.128 130.916 111.241 130.768 111.389C130.621 111.536 130.507 111.714 130.437 111.91C129.761 111.475 128.979 111.233 128.176 111.211C127.918 111.243 127.675 111.35 127.476 111.518C127.278 111.686 127.132 111.908 127.058 112.157C127.058 112.157 126.504 111.347 124.746 112.046C122.988 112.745 124.575 121.187 126.452 123.972C128.329 126.758 129.993 127.235 129.993 127.235L150.735 143.114C151.927 144.023 153.307 144.653 154.775 144.958C156.243 145.263 157.76 145.235 159.216 144.878C160.641 144.532 161.972 143.877 163.114 142.96C164.257 142.042 165.184 140.885 165.828 139.57L172.475 126.077L156.818 119.466Z" fill="#F5A4C6"/>
<path d="M242.389 117.384L236.613 120.681L235.265 121.456L228.439 125.324L226.11 126.661L225.248 125.324L224.907 124.838L223.541 122.904L223.251 122.487V144.304H176.41C176.435 142.313 176.358 140.323 176.179 138.34C176.136 137.889 176.085 137.437 176.017 137.003C175.88 135.622 175.535 134.269 174.993 132.991C174.013 130.949 173.222 128.822 172.63 126.636C172.527 126.269 172.476 126.056 172.476 126.056L170.701 125.298L166.282 123.441L164.942 122.87L156.828 119.463L159.047 114.956L159.721 113.61L164.84 103.243L166.273 100.33L168.133 96.5642C169.13 94.5732 170.594 92.8519 172.399 91.5466C173.111 91.0245 173.874 90.5764 174.677 90.2092C175.301 89.9032 175.949 89.6496 176.614 89.451H176.691L178.031 89.0421L188.406 85.9668L189.754 85.5749L193.832 84.3397L200.112 83.6838L201.443 83.5389L204.131 83.2578L211.81 85.4642L213.149 85.8475L223.541 88.8462L224.454 89.1102C224.596 89.1479 224.736 89.1934 224.872 89.2465C225.67 89.4944 226.442 89.8197 227.176 90.2177C227.895 90.6014 228.577 91.049 229.215 91.5551C230.974 92.9418 232.366 94.7377 233.268 96.7857L235.256 101.284L236.604 104.325L240.717 113.619L241.305 114.965L242.389 117.384Z" fill="#7B64AC"/>
<path d="M240.726 113.617H236.613V104.323L235.265 101.282V101.921H224.881V91.5532H229.224C228.586 91.0471 227.904 90.5994 227.185 90.2157H224.881V89.2446C224.745 89.1915 224.605 89.1459 224.463 89.1083L223.55 88.8442V90.2157H213.167V85.8711L211.827 85.4878V90.2157H201.443V83.5625L200.112 83.7073V90.2157H189.729V85.5815L188.381 85.9733V90.2327H178.005V89.0657L176.666 89.4746V90.2327H174.661C173.858 90.5999 173.094 91.0481 172.383 91.5702H176.649V101.938H166.282V100.353L164.849 103.267H164.943V113.634H159.721L159.047 114.98H164.943V122.911L166.282 123.482V115.005H176.666V125.364H170.693L172.468 126.123C172.468 126.123 172.519 126.335 172.622 126.702H176.657V137.069H176.009C176.077 137.504 176.128 137.921 176.171 138.407H176.657V144.37H177.997V138.407H188.372V144.37H189.72V138.407H200.104V144.37H201.435V138.407H211.818V144.37H213.158V138.407H223.252V137.069H213.167V126.659H223.26V125.322H213.167V115.005H223.542V122.945L224.873 124.879V115.005H235.256V121.497L236.605 120.722V115.005H241.306L240.726 113.617ZM176.666 113.617H166.282V103.249H176.666V113.617ZM188.381 137.027H178.005V126.659H188.381V137.027ZM188.381 125.322H178.005V115.005H188.381V125.322ZM188.381 113.617H178.005V103.249H188.381V113.617ZM188.381 101.921H178.005V91.5532H188.381V101.921ZM200.112 137.027H189.729V126.659H200.112V137.027ZM200.112 125.322H189.729V115.005H200.112V125.322ZM200.112 113.617H189.729V103.249H200.112V113.617ZM200.112 101.921H189.729V91.5532H200.112V101.921ZM211.827 137.027H201.443V126.659H211.827V137.027ZM211.827 125.322H201.443V115.005H211.827V125.322ZM211.827 113.617H201.443V103.249H211.827V113.617ZM211.827 101.921H201.443V91.5532H211.827V101.921ZM223.542 113.617H213.167V103.249H223.542V113.617ZM223.542 101.921H213.167V91.5532H223.542V101.921ZM235.256 113.617H224.881V103.249H235.265L235.256 113.617ZM225.248 125.322L226.17 126.659L228.499 125.322H225.248Z" fill="#8874B5"/>
<path d="M226.146 126.661L230.412 132.93L211.215 136.168C211.215 136.168 207.606 132.428 204.585 132.01C201.565 131.593 200.49 132.428 200.865 133.561C201.241 134.694 204.543 136.968 204.543 136.968C204.543 136.968 197.845 138.561 196.864 138.595C195.883 138.629 191.668 135.631 190.627 136.338C189.586 137.045 190.627 139.268 190.627 139.268C190.627 139.268 190.541 141.526 191.335 142.676C191.717 143.296 192.215 143.837 192.802 144.269C192.802 144.269 192.384 145.649 194.509 147.063C196.511 148.41 198.878 149.111 201.292 149.074C203.8 149.116 209.824 146.109 209.824 146.109L238.919 149.38C240.505 149.556 242.11 149.364 243.609 148.819C245.108 148.274 246.461 147.39 247.562 146.237C248.928 144.801 249.852 143.003 250.224 141.058C250.597 139.113 250.401 137.102 249.661 135.265L242.434 117.375L226.146 126.661Z" fill="#F5A4C6"/>
<path d="M230.414 132.931L237.197 131.594" stroke="#ED5B96" stroke-width="0.55" stroke-linecap="round" stroke-linejoin="round"/>
<path d="M223.25 122.483L215.008 111.195" stroke="#573C97" stroke-width="0.83" stroke-linecap="round" stroke-linejoin="round"/>
<path d="M172.48 126.08C170.773 118.976 175.893 112.288 176.336 109.188" stroke="#573C97" stroke-width="0.83" stroke-linecap="round" stroke-linejoin="round"/>
<path d="M153 126.852L159.254 128.095" stroke="#ED5B96" stroke-width="0.55" stroke-linecap="round" stroke-linejoin="round"/>
<path d="M130.4 111.898C128.864 112.997 130.997 120.647 130.997 120.647" stroke="#ED5B96" stroke-width="0.55" stroke-linecap="round" stroke-linejoin="round"/>
<path d="M127.022 112.141C125.64 113.844 127.483 120.659 127.483 120.659" stroke="#ED5B96" stroke-width="0.55" stroke-linecap="round" stroke-linejoin="round"/>
<path d="M190.648 139.281C194.829 142.127 195.665 142.127 197.594 142.203C199.954 142.081 202.303 141.796 204.624 141.351" stroke="#ED5B96" stroke-width="0.55" stroke-linecap="round" stroke-linejoin="round"/>
<path d="M192.828 144.297C194.532 145.518 196.557 146.217 198.653 146.306C200.749 146.395 202.826 145.872 204.628 144.799" stroke="#ED5B96" stroke-width="0.55" stroke-linecap="round" stroke-linejoin="round"/>
<path d="M208.062 47.1669C212.789 43.0267 218.984 45.4631 220.118 50.9662C221.253 56.4694 214.88 63.5911 211.236 58.4117C210.175 56.9579 209.468 55.2767 209.172 53.502C208.875 51.7273 208.998 49.9081 209.53 48.1891" fill="#881A4E"/>
<path d="M187.783 71.1325C180.01 68.4576 179.174 56.8039 181.52 53.243C183.866 49.6821 187.783 53.9671 187.783 53.9671C187.783 53.9671 187.706 47.5609 193.678 46.6068C199.651 45.6527 204.77 47.5609 207.569 47.1094C208.019 47.0013 208.493 47.0475 208.914 47.2406C209.335 47.4338 209.678 47.7626 209.89 48.1743C210.316 48.6939 210.93 49.0262 210.692 50.0058C210.188 52.127 211.084 53.8052 213.089 58.7376C215.094 63.67 214.096 80.9377 201.997 77.479" fill="#B62E68"/>
<path d="M205.467 75.0391V85.9857C205.467 85.9857 202.054 89.1718 197.899 89.1718C193.744 89.1718 192.703 85.9857 192.703 85.9857V80.3463L205.467 75.0391Z" fill="#F5A4C6"/>
<path d="M205.462 75.0391V77.3732C200.172 85.0402 194.797 85.2957 192.664 85.0402V80.3463L205.462 75.0391Z" fill="#462E69"/>
<path d="M186.969 59.0391V71.8173C186.968 73.1451 187.23 74.46 187.74 75.6865C188.249 76.913 188.996 78.027 189.938 78.9646L190.791 79.8165C191.44 80.4666 192.212 80.9825 193.061 81.3348C193.91 81.6871 194.82 81.8687 195.74 81.8695C196.998 81.8686 198.233 81.5302 199.315 80.8898L204.528 77.806C205.628 77.1542 206.539 76.228 207.172 75.1182C207.804 74.0085 208.137 72.7535 208.137 71.4765C208.137 71.4765 210.765 73.1121 212.335 70.4713C212.634 70.0111 212.804 69.4788 212.825 68.9305C212.847 68.3822 212.72 67.8382 212.458 67.3559C212.196 66.8736 211.809 66.4708 211.336 66.19C210.864 65.9092 210.325 65.7608 209.775 65.7604C208.069 65.8541 206.175 69.4065 206.175 69.4065V62.9066C204.455 62.8516 202.739 63.0878 201.098 63.6051C198.086 64.4741 189.827 64.5678 186.969 59.0391Z" fill="#F5A4C6"/>
<path d="M210.661 67.6494C209.987 66.9764 208.102 69.1743 209.962 70.1284" stroke="#ED5B96" stroke-width="0.55" stroke-linecap="round" stroke-linejoin="round"/>
<path d="M192.826 68.2578L191.512 71.6653C191.478 71.7574 191.464 71.8556 191.47 71.9535C191.477 72.0515 191.504 72.147 191.55 72.2338C191.596 72.3206 191.659 72.3968 191.737 72.4573C191.814 72.5179 191.903 72.5615 191.999 72.5854L193.074 72.8409" stroke="#ED5B96" stroke-width="0.55" stroke-linecap="round" stroke-linejoin="round"/>
<path d="M198.964 69.2581C198.964 69.4266 198.914 69.5913 198.82 69.7314C198.727 69.8715 198.593 69.9807 198.438 70.0452C198.282 70.1096 198.11 70.1265 197.945 70.0936C197.779 70.0608 197.627 69.9796 197.508 69.8605C197.388 69.7414 197.307 69.5896 197.274 69.4243C197.241 69.2591 197.258 69.0878 197.323 68.9321C197.387 68.7765 197.497 68.6434 197.637 68.5498C197.777 68.4562 197.942 68.4062 198.111 68.4062C198.337 68.4062 198.554 68.496 198.714 68.6558C198.874 68.8155 198.964 69.0322 198.964 69.2581Z" fill="#462E69"/>
<path d="M190.371 69.2581C190.371 69.4841 190.281 69.7007 190.121 69.8605C189.961 70.0203 189.744 70.11 189.517 70.11C189.291 70.11 189.074 70.0203 188.914 69.8605C188.754 69.7007 188.664 69.4841 188.664 69.2581C188.664 69.0322 188.754 68.8155 188.914 68.6558C189.074 68.496 189.291 68.4062 189.517 68.4062C189.744 68.4062 189.961 68.496 190.121 68.6558C190.281 68.8155 190.371 69.0322 190.371 69.2581Z" fill="#462E69"/>
<path d="M196.672 66.1664C196.672 66.1664 197.79 64.9482 200.085 66.1664" stroke="#462E69" stroke-width="0.55" stroke-linecap="round" stroke-linejoin="round"/>
<path d="M191.225 66.1664C191.225 66.1664 190.108 64.9482 187.812 66.1664" stroke="#462E69" stroke-width="0.55" stroke-linecap="round" stroke-linejoin="round"/>
<path d="M197.772 74.7188C197.863 75.3548 197.697 76.0006 197.31 76.5142C196.924 77.0279 196.349 77.3672 195.712 77.4576C195.075 77.5479 194.428 77.3819 193.914 76.9961C193.399 76.6103 193.059 76.0363 192.969 75.4003" fill="white"/>
<path d="M211.092 50.4583L207.44 46.94C207.377 46.8782 207.328 46.8046 207.294 46.7235C207.26 46.6423 207.242 46.5552 207.242 46.4672C207.242 46.3793 207.26 46.2922 207.294 46.211C207.328 46.1299 207.377 46.0563 207.44 45.9945C207.502 45.9319 207.576 45.8822 207.657 45.8483C207.738 45.8143 207.826 45.7969 207.914 45.7969C208.002 45.7969 208.089 45.8143 208.17 45.8483C208.252 45.8822 208.325 45.9319 208.387 45.9945L212.03 49.5127C212.155 49.6387 212.225 49.8085 212.225 49.9855C212.225 50.1625 212.155 50.3324 212.03 50.4583C211.905 50.5801 211.736 50.6482 211.561 50.6482C211.386 50.6482 211.218 50.5801 211.092 50.4583Z" fill="#7B64AC"/>
<path d="M177.992 30.3964V53.542C177.992 54.3057 177.688 55.038 177.148 55.578C176.607 56.118 175.873 56.4214 175.108 56.4214H168.214V62.0779C168.215 62.1977 168.181 62.3152 168.115 62.4153C168.049 62.5154 167.955 62.5937 167.844 62.6403C167.733 62.6868 167.611 62.6995 167.493 62.6767C167.376 62.654 167.267 62.5967 167.182 62.5123L161.081 56.4214H138.548C137.783 56.4214 137.05 56.118 136.509 55.578C135.968 55.038 135.664 54.3057 135.664 53.542V30.3964C135.663 30.0164 135.737 29.64 135.882 29.2886C136.027 28.9373 136.24 28.6179 136.508 28.3488C136.777 28.0798 137.096 27.8663 137.448 27.7206C137.799 27.575 138.176 27.5 138.556 27.5H175.1C175.48 27.5 175.857 27.575 176.209 27.7206C176.56 27.8663 176.879 28.0798 177.148 28.3488C177.417 28.6179 177.63 28.9373 177.775 29.2886C177.919 29.64 177.993 30.0164 177.992 30.3964Z" fill="white"/>
<path d="M151.283 42.6515C151.283 42.8823 151.215 43.1079 151.086 43.2998C150.958 43.4918 150.775 43.6414 150.562 43.7297C150.348 43.818 150.113 43.8411 149.886 43.7961C149.659 43.7511 149.451 43.6399 149.288 43.4767C149.124 43.3135 149.013 43.1055 148.968 42.8791C148.923 42.6527 148.946 42.4181 149.034 42.2048C149.123 41.9916 149.273 41.8093 149.465 41.6811C149.657 41.5528 149.883 41.4844 150.114 41.4844C150.424 41.4844 150.722 41.6073 150.941 41.8262C151.16 42.0451 151.283 42.3419 151.283 42.6515Z" fill="#7253A2"/>
<path d="M157.995 42.6515C157.997 42.8847 157.929 43.1132 157.801 43.3078C157.672 43.5024 157.488 43.6544 157.273 43.7445C157.057 43.8345 156.82 43.8585 156.59 43.8134C156.361 43.7683 156.151 43.6562 155.985 43.4912C155.82 43.3263 155.708 43.1161 155.663 42.8872C155.618 42.6584 155.642 42.4213 155.732 42.2062C155.822 41.991 155.974 41.8075 156.169 41.679C156.364 41.5505 156.593 41.4827 156.827 41.4844C157.137 41.4844 157.434 41.6074 157.653 41.8262C157.872 42.0451 157.995 42.342 157.995 42.6515Z" fill="#7253A2"/>
<path d="M164.674 42.6515C164.674 42.8823 164.605 43.1079 164.477 43.2998C164.348 43.4918 164.166 43.6414 163.952 43.7297C163.739 43.818 163.504 43.8411 163.277 43.7961C163.05 43.7511 162.842 43.6399 162.678 43.4767C162.515 43.3135 162.404 43.1055 162.358 42.8791C162.313 42.6527 162.336 42.4181 162.425 42.2048C162.513 41.9916 162.663 41.8093 162.855 41.6811C163.048 41.5528 163.274 41.4844 163.505 41.4844C163.815 41.4844 164.112 41.6073 164.331 41.8262C164.551 42.0451 164.674 42.3419 164.674 42.6515Z" fill="#7253A2"/>
<path d="M118.726 100.323L110.321 108.722V185.025C110.322 185.562 110.218 186.094 110.013 186.59C109.808 187.086 109.507 187.536 109.127 187.916C108.748 188.296 108.297 188.597 107.8 188.803C107.304 189.009 106.772 189.114 106.234 189.114H4.09546C3.55732 189.116 3.02426 189.011 2.52687 188.806C2.02948 188.6 1.57755 188.299 1.19703 187.919C0.816509 187.539 0.514884 187.088 0.309466 186.592C0.104049 186.095 -0.00111571 185.563 8.92572e-06 185.025V15.6288C-0.00111304 15.0911 0.103991 14.5585 0.309305 14.0614C0.514618 13.5643 0.816109 13.1125 1.19652 12.7319C1.57693 12.3513 2.02879 12.0493 2.52623 11.8433C3.02367 11.6373 3.55692 11.5312 4.09546 11.5313H106.234C106.772 11.5324 107.305 11.6392 107.801 11.8458C108.297 12.0523 108.748 12.3544 109.128 12.7349C109.507 13.1154 109.808 13.5668 110.013 14.0633C110.218 14.5599 110.322 15.0918 110.321 15.6288V100.323H118.726Z" fill="#D3C7E2"/>
<path d="M100.915 20.9219H9.39062V179.747H100.915V20.9219Z" fill="#7253A2"/>
<path d="M72.3078 124.252V179.735H41.9844V123.229L46.0628 121.781L64.9872 122.565L72.3078 124.252Z" fill="#79D1EE"/>
<path d="M72.2993 130.906H41.9844V134.697H72.2993V130.906Z" fill="#9FDCEE"/>
<path d="M72.2993 143.289H41.9844V147.08H72.2993V143.289Z" fill="#9FDCEE"/>
<path d="M72.2993 155.672H41.9844V159.463H72.2993V155.672Z" fill="#9FDCEE"/>
<path d="M72.2993 168.047H41.9844V171.838H72.2993V168.047Z" fill="#9FDCEE"/>
<path d="M41.9836 123.234V179.74H9.39062V134.769L36.0025 125.356L41.9836 123.234Z" fill="white"/>
<path d="M100.929 130.86V179.741H72.3125V124.258L80.9215 126.243L100.929 130.86Z" fill="white"/>
<path d="M36.0021 125.356L41.9746 123.234V145.187H34.3725C33.6847 145.179 33.0091 145.005 32.4033 144.68C31.7974 144.355 31.2792 143.889 30.8929 143.321C30.5065 142.753 30.2635 142.1 30.1845 141.418C30.1055 140.735 30.1928 140.044 30.4391 139.403L36.0021 125.356Z" fill="#E3D6EA"/>
<path d="M80.4607 145.189H72.3125V124.258L80.9215 126.243L84.5562 139.873C84.7167 140.499 84.7325 141.153 84.6023 141.786C84.4721 142.419 84.1994 143.014 83.8048 143.526C83.4102 144.038 82.9041 144.454 82.3247 144.742C81.7453 145.03 81.1079 145.183 80.4607 145.189Z" fill="#E3D6EA"/>
<path d="M33.172 125.688C19.9557 131.029 23.1211 159.567 23.1211 159.567" stroke="#462E69" stroke-width="2.2" stroke-linecap="round" stroke-linejoin="round"/>
<path d="M23.1234 163.243C25.1591 163.243 26.8093 161.595 26.8093 159.563C26.8093 157.53 25.1591 155.883 23.1234 155.883C21.0877 155.883 19.4375 157.53 19.4375 159.563C19.4375 161.595 21.0877 163.243 23.1234 163.243Z" fill="#462E69"/>
<path d="M82.7109 126.656C95.2874 133.096 91.61 154.496 91.61 154.496" stroke="#462E69" stroke-width="2.2" stroke-linecap="round" stroke-linejoin="round"/>
<path d="M77.3422 165.262C76.943 163.431 77.0965 161.523 77.7832 159.779C78.47 158.036 79.6592 156.535 81.2005 155.466C82.7418 154.397 84.5659 153.809 86.4421 153.775C88.3184 153.741 90.1625 154.264 91.7413 155.277C93.3201 156.289 94.5626 157.747 95.3118 159.465C96.0609 161.182 96.283 163.083 95.95 164.927C95.617 166.771 94.7439 168.475 93.441 169.823C92.1381 171.172 90.4639 172.104 88.6303 172.503" stroke="#462E69" stroke-width="2.2" stroke-linecap="round" stroke-linejoin="round"/>
<path d="M75.618 69.4879C75.5327 64.8026 61.301 55.4404 44.3049 61.625C27.3087 67.8097 26.0545 85.0603 28.3155 91.3131C30.5766 97.5659 23.0341 108.606 31.5663 115.856C40.0985 123.105 47.2229 117.653 55.593 118.411C63.963 119.17 79.2869 121.572 81.1298 116.469C82.9728 111.366 88.0068 69.1472 75.618 69.4879Z" fill="#462E69"/>
<path d="M45.1562 106.875V125.497C45.1562 125.497 50.924 130.907 58.0399 130.907C65.1557 130.907 66.8707 125.497 66.8707 125.497V115.905L45.1562 106.875Z" fill="#F5A4C6"/>
<path d="M45.1562 106.875V110.845C54.1577 123.802 63.2957 124.313 66.8707 123.913V115.905L45.1562 106.875Z" fill="#462E69"/>
<path d="M76.6176 77.9297V101.373C76.6184 103.632 76.1734 105.869 75.3082 107.957C74.443 110.044 73.1745 111.941 71.575 113.538L70.1843 114.927C67.9468 117.156 64.9155 118.409 61.7545 118.411C59.6126 118.401 57.5135 117.812 55.6796 116.707L46.8146 111.46C44.9413 110.353 43.3894 108.778 42.3121 106.89C41.2348 105.001 40.6693 102.865 40.6714 100.692C40.6714 100.692 36.192 103.478 33.53 98.9882C33.0244 98.2087 32.7376 97.308 32.6996 96.38C32.6617 95.4521 32.8739 94.531 33.3141 93.7129C33.7543 92.8948 34.4063 92.2097 35.2022 91.7291C35.9981 91.2484 36.9086 90.9899 37.8387 90.9805C40.7482 91.1339 43.9649 97.1652 43.9649 97.1652V86.227C46.7259 87.2303 49.6702 87.6312 52.5994 87.4026C57.9065 87.13 71.7542 87.3345 76.6176 77.9297Z" fill="#F5A4C6"/>
<path d="M36.3203 94.293C37.4636 93.1515 40.6632 96.8487 37.5063 98.5524" stroke="#ED5B96" stroke-width="0.94" stroke-linecap="round" stroke-linejoin="round"/>
<path d="M66.2647 95.3359L68.4916 101.154C68.549 101.312 68.5721 101.481 68.5593 101.648C68.5466 101.816 68.4982 101.979 68.4175 102.126C68.3368 102.274 68.2256 102.402 68.0913 102.503C67.9569 102.605 67.8025 102.676 67.6384 102.713L65.8125 103.156" stroke="#ED5B96" stroke-width="0.94" stroke-linecap="round" stroke-linejoin="round"/>
<path d="M57.6863 98.5008C58.4968 98.5008 59.1538 97.8448 59.1538 97.0355C59.1538 96.2263 58.4968 95.5703 57.6863 95.5703C56.8758 95.5703 56.2188 96.2263 56.2188 97.0355C56.2188 97.8448 56.8758 98.5008 57.6863 98.5008Z" fill="#462E69"/>
<path d="M72.3035 98.5008C73.114 98.5008 73.771 97.8448 73.771 97.0355C73.771 96.2263 73.114 95.5703 72.3035 95.5703C71.493 95.5703 70.8359 96.2263 70.8359 97.0355C70.8359 97.8448 71.493 98.5008 72.3035 98.5008Z" fill="#462E69"/>
<path d="M60.1017 91.7792C60.1017 91.7792 58.2075 89.6921 54.2656 91.7792" stroke="#462E69" stroke-width="0.94" stroke-linecap="round" stroke-linejoin="round"/>
<path d="M69.3828 91.7792C69.3828 91.7792 71.277 89.6921 75.2188 91.7792" stroke="#462E69" stroke-width="0.94" stroke-linecap="round" stroke-linejoin="round"/>
<path d="M66.2204 106.953C66.2079 108.047 65.7609 109.09 64.9777 109.855C64.1944 110.619 63.1391 111.042 62.0439 111.029C60.9486 111.017 59.9032 110.571 59.1376 109.789C58.3719 109.007 57.9488 107.953 57.9612 106.859L66.2204 106.953Z" fill="#462E69"/>
<path d="M64.2609 110.409C63.4187 110.924 62.4201 111.12 61.4454 110.964C60.4706 110.808 59.5839 110.309 58.9453 109.557C59.5859 109.226 60.2971 109.053 61.0186 109.055C61.6218 109.056 62.2188 109.176 62.7753 109.409C63.3317 109.641 63.8366 109.981 64.2609 110.409Z" fill="#ED5B96"/>
<path d="M52.5506 94.0781H62.4309C62.8201 94.0781 63.1934 94.2325 63.4686 94.5073C63.7438 94.7821 63.8984 95.1548 63.8984 95.5434V97.6134C63.8984 98.969 63.3591 100.269 62.399 101.228C61.4389 102.186 60.1368 102.725 58.7791 102.725H56.2365C54.8788 102.725 53.5767 102.186 52.6166 101.228C51.6565 100.269 51.1172 98.969 51.1172 97.6134V95.5434C51.1172 95.1548 51.2718 94.7821 51.547 94.5073C51.8222 94.2325 52.1955 94.0781 52.5847 94.0781H52.5506Z" stroke="white" stroke-width="1.1" stroke-miterlimit="10"/>
<path d="M70.2772 94.0781H80.2001C80.5893 94.0781 80.9626 94.2325 81.2378 94.5073C81.513 94.7821 81.6676 95.1548 81.6676 95.5434V97.6134C81.6676 98.969 81.1283 100.269 80.1682 101.228C79.2082 102.186 77.906 102.725 76.5483 102.725H73.9631C72.6053 102.725 71.3032 102.186 70.3432 101.228C69.3831 100.269 68.8438 98.969 68.8438 97.6134V95.5434C68.8436 95.1606 68.9936 94.793 69.2614 94.5191C69.5293 94.2453 69.8939 94.087 70.2772 94.0781Z" stroke="white" stroke-width="1.1" stroke-miterlimit="10"/>
<path d="M63.8984 96.2656H68.813" stroke="white" stroke-width="1.1" stroke-miterlimit="10"/>
<path d="M51.0876 95.8984H43.1953" stroke="white" stroke-width="1.1" stroke-miterlimit="10"/>
<path d="M32.5369 29.5H18.1772C17.2725 29.5 16.5391 30.2323 16.5391 31.1356V33.7338C16.5391 34.6372 17.2725 35.3695 18.1772 35.3695H32.5369C33.4417 35.3695 34.1751 34.6372 34.1751 33.7338V31.1356C34.1751 30.2323 33.4417 29.5 32.5369 29.5Z" fill="#EE307D"/>
<path d="M29.4371 33.1204H21.2803C21.2214 33.1215 21.1627 33.1109 21.1079 33.0892C21.0531 33.0674 21.0032 33.035 20.9611 32.9937C20.919 32.9525 20.8855 32.9033 20.8627 32.8489C20.8399 32.7946 20.8281 32.7363 20.8281 32.6774C20.8281 32.6185 20.8399 32.5602 20.8627 32.5059C20.8855 32.4516 20.919 32.4024 20.9611 32.3612C21.0032 32.3199 21.0531 32.2875 21.1079 32.2657C21.1627 32.2439 21.2214 32.2333 21.2803 32.2345H29.4371C29.4961 32.2333 29.5547 32.2439 29.6095 32.2657C29.6643 32.2875 29.7143 32.3199 29.7564 32.3612C29.7985 32.4024 29.8319 32.4516 29.8547 32.5059C29.8776 32.5602 29.8893 32.6185 29.8893 32.6774C29.8893 32.7363 29.8776 32.7946 29.8547 32.8489C29.8319 32.9033 29.7985 32.9525 29.7564 32.9937C29.7143 33.035 29.6643 33.0674 29.6095 33.0892C29.5547 33.1109 29.4961 33.1215 29.4371 33.1204Z" fill="white"/>
<path d="M93.8997 32.6818C93.8997 32.9851 93.8096 33.2816 93.6409 33.5337C93.4721 33.7859 93.2323 33.9824 92.9516 34.0985C92.671 34.2145 92.3622 34.2449 92.0643 34.1857C91.7664 34.1266 91.4927 33.9805 91.278 33.7661C91.0632 33.5516 90.9169 33.2784 90.8576 32.981C90.7984 32.6835 90.8288 32.3752 90.945 32.095C91.0613 31.8148 91.2581 31.5753 91.5107 31.4069C91.7632 31.2384 92.0602 31.1484 92.3639 31.1484C92.7705 31.1507 93.1599 31.3129 93.4474 31.6C93.7349 31.8871 93.8975 32.2758 93.8997 32.6818Z" fill="#EE307D"/>
<path d="M57.9612 174.226C62.3105 174.226 65.8364 170.705 65.8364 166.363C65.8364 162.02 62.3105 158.5 57.9612 158.5C53.6118 158.5 50.0859 162.02 50.0859 166.363C50.0859 170.705 53.6118 174.226 57.9612 174.226Z" fill="#EE307D"/>
<path d="M55.8879 167.93C55.7391 167.772 55.6562 167.563 55.6562 167.347C55.6562 167.13 55.7391 166.921 55.8879 166.763L58.8741 163.79C59.0328 163.639 59.2436 163.555 59.4629 163.555C59.6821 163.555 59.8929 163.639 60.0516 163.79C60.2028 163.948 60.2872 164.159 60.2872 164.378C60.2872 164.597 60.2028 164.807 60.0516 164.966L57.0824 167.93C56.9229 168.086 56.7084 168.174 56.4851 168.174C56.2618 168.174 56.0474 168.086 55.8879 167.93Z" fill="#E9E8EA"/>
<path d="M55.8841 163.79C56.0428 163.639 56.2536 163.555 56.4728 163.555C56.692 163.555 56.9029 163.639 57.0615 163.79L60.0307 166.763C60.1795 166.921 60.2623 167.13 60.2623 167.347C60.2623 167.563 60.1795 167.772 60.0307 167.93C59.8721 168.081 59.6612 168.165 59.442 168.165C59.2228 168.165 59.012 168.081 58.8533 167.93L55.8841 164.966C55.7328 164.807 55.6484 164.597 55.6484 164.378C55.6484 164.159 55.7328 163.948 55.8841 163.79Z" fill="#E9E8EA"/>
<path d="M62.4219 4.05496V36.5202C62.4219 37.5911 62.848 38.6181 63.6064 39.3754C64.3649 40.1327 65.3935 40.5581 66.4661 40.5581H76.1416V48.4891C76.1423 48.6566 76.1924 48.8201 76.2857 48.9593C76.379 49.0985 76.5113 49.2071 76.666 49.2716C76.8208 49.3362 76.9912 49.3538 77.1559 49.3221C77.3206 49.2905 77.4723 49.2112 77.5921 49.0939L86.1243 40.5751H117.745C118.276 40.5751 118.802 40.4707 119.292 40.2677C119.783 40.0648 120.229 39.7674 120.604 39.3924C120.98 39.0175 121.278 38.5723 121.481 38.0824C121.684 37.5925 121.789 37.0675 121.789 36.5372V4.05496C121.789 2.98246 121.363 1.95364 120.605 1.19368C119.847 0.433712 118.819 0.00450628 117.745 0L66.4832 0C65.9499 0 65.4217 0.104885 64.929 0.308665C64.4363 0.512446 63.9885 0.811132 63.6114 1.18767C63.2343 1.56421 62.9351 2.01122 62.731 2.50319C62.5269 2.99516 62.4219 3.52245 62.4219 4.05496Z" fill="white"/>
<path d="M99.8751 21.2465C99.8768 21.5709 99.9746 21.8876 100.156 22.1567C100.338 22.4258 100.595 22.6352 100.896 22.7586C101.196 22.8819 101.527 22.9138 101.845 22.8501C102.164 22.7864 102.456 22.6299 102.686 22.4005C102.916 22.1711 103.073 21.8789 103.136 21.5608C103.2 21.2427 103.168 20.9128 103.045 20.6127C102.921 20.3126 102.711 20.0558 102.442 19.8745C102.172 19.6932 101.855 19.5955 101.53 19.5938C101.312 19.5916 101.096 19.6328 100.894 19.715C100.692 19.7972 100.509 19.9189 100.355 20.0728C100.201 20.2267 100.079 20.4098 99.9964 20.6114C99.9141 20.8129 99.8728 21.0288 99.8751 21.2465Z" fill="#7253A2"/>
<path d="M90.4376 21.2478C90.4395 21.57 90.5362 21.8846 90.7156 22.1524C90.8951 22.4203 91.1494 22.6295 91.447 22.7542C91.7446 22.8789 92.0723 22.9136 92.3894 22.8539C92.7066 22.7942 92.9992 22.6427 93.2308 22.4184C93.4625 22.194 93.623 21.9066 93.6924 21.592C93.7619 21.2773 93.7372 20.9492 93.6214 20.6484C93.5056 20.3476 93.3038 20.0874 93.0412 19.9002C92.7785 19.7129 92.4666 19.6069 92.144 19.5952C91.9218 19.5859 91.7 19.6219 91.4921 19.701C91.2843 19.7802 91.0948 19.9007 90.9351 20.0553C90.7754 20.21 90.649 20.3954 90.5634 20.6005C90.4779 20.8055 90.4351 21.0257 90.4376 21.2478Z" fill="#7253A2"/>
<path d="M81.0548 21.2464C81.0565 21.5716 81.1547 21.889 81.337 22.1584C81.5194 22.4278 81.7777 22.6372 82.0792 22.7601C82.3807 22.883 82.712 22.9138 83.0311 22.8487C83.3502 22.7836 83.6428 22.6255 83.8719 22.3944C84.101 22.1633 84.2563 21.8695 84.3182 21.5503C84.3801 21.231 84.3457 20.9006 84.2195 20.6008C84.0934 20.3011 83.881 20.0454 83.6092 19.8661C83.3375 19.6869 83.0186 19.5921 82.693 19.5938C82.4764 19.5938 82.262 19.6366 82.0621 19.7199C81.8622 19.8031 81.6809 19.9252 81.5285 20.0788C81.3762 20.2325 81.2559 20.4149 81.1745 20.6153C81.0932 20.8157 81.0525 21.0302 81.0548 21.2464Z" fill="#7253A2"/>
<g clip-path="url(#clip1_1473_13225)">
<path d="M157.043 260.011C157.043 260.011 171.419 246.689 162.572 234.391C162.572 234.391 171.049 241.052 168.809 248.924L171.564 245.29C171.564 245.29 173.308 254.482 167.501 256.85C167.501 256.85 170.311 257.171 171.812 255.827C171.812 255.827 168.518 264.462 155.317 264.498C155.317 264.486 154.131 260.096 157.043 260.011Z" fill="#EDC75E"/>
<path d="M121.985 200.568L117.352 198.884C117.037 198.77 116.7 198.728 116.367 198.759C116.033 198.79 115.71 198.894 115.421 199.064C115.132 199.234 114.884 199.465 114.694 199.742C114.505 200.019 114.379 200.334 114.325 200.664C113.998 202.638 113.852 205.182 114.93 206.429C116.838 208.621 123.614 212.382 123.614 212.382C123.614 212.382 132.709 214.126 135.04 210.111C137.372 206.096 144.559 204.661 142.864 201.67C141.701 199.556 135.434 198.491 131.849 198.042C131.067 197.943 130.272 198.018 129.522 198.261C128.771 198.504 128.083 198.909 127.507 199.447C126.779 200.125 125.878 200.588 124.904 200.786C123.929 200.983 122.919 200.908 121.985 200.568Z" fill="#EDC75E"/>
<path d="M125.085 209.683L121.719 222.169C119.578 225.905 118.481 230.147 118.541 234.451C118.602 238.756 119.819 242.965 122.064 246.639C126.563 253.978 132.188 261.929 135.882 262.595C142.864 263.867 155.81 262.595 155.81 262.595C155.81 262.595 164.518 247.493 155.81 241.074C147.103 234.655 139.315 225.203 142.912 203.367L125.085 209.683Z" fill="#EDC75E"/>
<path d="M146.349 245.129C144.524 245.465 142.664 245.567 140.814 245.432C138.71 245.352 136.635 244.912 134.68 244.13C131.101 242.628 128.376 239.673 126.324 236.457C124.422 233.394 122.935 230.091 121.903 226.636C121.407 225.934 120.96 225.2 120.565 224.438C119.001 227.982 118.319 231.853 118.576 235.719C118.834 239.584 120.023 243.33 122.042 246.637C126.56 253.976 132.185 261.926 135.879 262.592C141.547 263.628 151.145 262.986 154.554 262.708C153.373 256.289 150.854 249.864 146.349 245.129Z" fill="#D2953D"/>
<path d="M130.196 215.401C128.216 215.552 125.437 213.736 124.207 212.852L121.719 222.171C119.578 225.906 118.481 230.148 118.541 234.453C118.602 238.758 119.819 242.967 122.064 246.641C123.123 248.366 124.25 250.129 125.394 251.824C131.958 242.45 128.422 232.598 128.622 229.201C128.821 225.804 132.812 215.201 130.196 215.401Z" fill="#EADFD1"/>
<path d="M144.725 236.92C144.725 236.92 137.725 235.709 133.928 241.123C130.131 246.536 140.407 257.733 140.407 257.733C140.407 257.733 137.64 257.127 134.606 256.855C134.745 258.587 134.891 260.318 135.03 262.056C141.691 262.056 152.7 262.002 152.7 262.002C152.7 262.002 161.68 237.72 144.725 236.92Z" fill="#D2953D"/>
<path d="M147.409 239.397C147.409 239.397 140.409 238.186 136.613 243.599C132.816 249.013 143.122 260.209 143.122 260.209C143.122 260.209 131.55 257.787 129.764 260.209C127.978 262.631 130.775 264.369 132.973 264.484C135.171 264.599 155.409 264.484 155.409 264.484C155.409 264.484 164.407 240.196 147.409 239.397Z" fill="#EDC75E"/>
<path d="M132.754 223.969C132.754 223.969 129.599 263.329 127.607 264.14C125.614 264.952 118.523 264.425 118.523 262.39C118.523 259.508 123.222 259.102 123.222 259.102L122.508 242.547C122.508 242.547 119.292 227.566 132.754 223.969Z" fill="#EDC75E"/>
<path d="M137.838 201.815C133.502 203.286 131.225 208.203 133.169 212.345C133.525 213.107 134.011 213.802 134.604 214.398C137.201 216.956 139.925 219.382 142.767 221.665C142.767 221.665 149.004 211.57 148.405 207.374C147.805 203.177 141.61 200.531 141.61 200.531L137.838 201.815Z" fill="#D2953D"/>
<path d="M114.315 200.662C114.315 200.662 114.212 203.133 115.411 203.363C116.61 203.593 120.721 200.111 119.583 199.73C118.444 199.348 114.515 197.156 114.315 200.662Z" fill="#332C5E"/>
<path d="M115.812 210.234L124.799 211.106L128.601 215.182L119.785 213.444C117.363 212.753 116.569 211.833 115.812 210.234Z" fill="#EDC75E"/>
<path d="M129.458 203.035C129.083 203.689 128.495 204.052 128.144 203.858C127.793 203.664 127.823 202.968 128.205 202.308C128.586 201.648 129.173 201.285 129.519 201.484C129.864 201.684 129.839 202.375 129.458 203.035Z" fill="#332C5E"/>
</g>
</g>
<defs>
<clipPath id="clip0_1473_13225">
<rect width="256" height="266" fill="white"/>
</clipPath>
<clipPath id="clip1_1473_13225">
<rect width="62.8125" height="71.9622" fill="white" transform="translate(109 198)"/>
</clipPath>
</defs>
</svg>
