<svg width="181" height="263" viewBox="0 0 181 263" fill="none" xmlns="http://www.w3.org/2000/svg">
<g clip-path="url(#clip0_1473_13070)">
<path d="M0 240.149C0 241.129 0.3919 242.068 1.08949 242.761C1.78707 243.453 2.7332 243.842 3.71973 243.842H13.49C15.6818 243.842 17.8506 244.286 19.8637 245.146C21.8768 246.007 23.6919 247.266 25.198 248.847L25.7332 249.412C27.2383 250.993 29.0522 252.252 31.0642 253.112C33.0761 253.973 35.2438 254.417 37.4345 254.417H49.7049C53.7805 254.419 57.7044 255.952 60.6879 258.709C63.6669 261.475 67.5921 263.016 71.671 263.021H109.336C113.412 263.02 117.336 261.487 120.319 258.729C123.301 255.97 127.226 254.436 131.302 254.437H143.566C145.757 254.438 147.926 253.994 149.939 253.133C151.952 252.273 153.767 251.013 155.274 249.432L155.802 248.867C157.309 247.287 159.124 246.029 161.137 245.168C163.15 244.308 165.318 243.864 167.51 243.863H177.28C177.769 243.863 178.252 243.767 178.704 243.582C179.155 243.396 179.565 243.124 179.911 242.781C180.256 242.438 180.53 242.031 180.717 241.583C180.904 241.135 181 240.655 181 240.17C181 239.19 180.608 238.251 179.911 237.558C179.213 236.866 178.267 236.477 177.28 236.477H3.71973C2.73671 236.477 1.79365 236.863 1.09665 237.551C0.399641 238.239 0.00537171 239.173 0 240.149Z" fill="#422C4F"/>
<path d="M74.0268 66.3098C71.0552 66.5946 68.0584 66.1558 65.2961 65.0313C62.5338 63.9068 60.0894 62.1305 58.1746 59.8564C56.2598 57.5823 54.9324 54.8789 54.3074 51.9806C53.6825 49.0822 53.7788 46.0763 54.588 43.2232C53.4442 42.2549 52.5214 41.0557 51.8812 39.7056C51.241 38.3554 50.8979 36.8853 50.875 35.3931C50.8764 33.9105 51.1983 32.4454 51.8189 31.0969C52.4396 29.7484 53.3446 28.5479 54.4728 27.5765C52.3453 23.157 53.3752 17.3786 56.3225 13.4501C57.828 11.4969 59.8308 9.97733 62.1245 9.048C64.4181 8.11866 66.9199 7.8131 69.372 8.16278C71.2353 4.38902 75.2464 1.03904 79.3997 0.238544C81.488 -0.144127 83.6366 -0.0498419 85.6828 0.514254C87.7289 1.07835 89.6188 2.09746 91.2094 3.49434C93.0694 2.25191 95.1802 1.42762 97.3944 1.07906C99.6086 0.730498 101.873 0.866063 104.029 1.47629C106.145 2.09833 108.094 3.18142 109.735 4.64656C111.376 6.11171 112.667 7.92199 113.514 9.9454C116.022 9.69415 118.553 10.1005 120.854 11.1239C123.154 12.1473 125.144 13.7519 126.625 15.7776C127.975 17.8174 128.747 20.1809 128.86 22.6194C128.972 25.058 128.42 27.4815 127.262 29.6349C129.306 31.0014 130.977 32.8498 132.126 35.0146C133.274 37.1795 133.864 39.5933 133.842 42.04C133.821 44.4866 133.189 46.8898 132.002 49.0345C130.816 51.1791 129.113 52.9983 127.045 54.3292C128.495 59.4282 126.3 65.442 122.065 68.6642C119.914 70.2452 117.346 71.1693 114.674 71.3234C112.003 71.4776 109.344 70.855 107.023 69.5319C104.95 72.4716 101.244 73.7967 97.6461 73.4806C95.8424 73.2979 94.1164 72.6573 92.6343 71.6206C91.1522 70.5838 89.9638 69.1858 89.1835 67.561C88.3332 68.6435 87.2381 69.5121 85.9868 70.0964C84.7356 70.6807 83.3634 70.9644 81.9812 70.9244C79.271 70.7428 75.3887 68.6103 74.0268 66.3098Z" fill="#422C4F"/>
<path d="M57.7714 14.7117C59.3843 13.0474 61.414 11.8389 63.6523 11.21C65.8907 10.5812 68.2572 10.5546 70.5093 11.1331C71.6815 7.17767 75.3741 4.33893 79.4191 3.42408C81.4566 2.98991 83.5729 3.09036 85.5595 3.71555C87.546 4.34073 89.3341 5.46905 90.7477 6.98931C94.1313 4.99235 98.0723 4.12915 101.988 4.52728C105.762 5.03852 110.796 7.21803 113.506 9.90877C112.66 7.88536 111.369 6.07508 109.728 4.60993C108.087 3.14479 106.137 2.0617 104.021 1.43966C101.865 0.829432 99.6008 0.693867 97.3866 1.04243C95.1725 1.39099 93.0616 2.21528 91.2016 3.45771C89.6088 2.0677 87.7187 1.05533 85.6739 0.497124C83.6292 -0.0610857 81.4834 -0.150531 79.3987 0.235548C75.2454 1.03604 71.2682 4.38602 69.371 8.15979C66.9183 7.81086 64.4161 8.11745 62.1224 9.04799C59.8286 9.97853 57.8263 11.4994 56.3215 13.4538C53.3741 17.3823 52.3443 23.1607 54.4718 27.5802C52.9608 23.2212 54.6005 18.0685 57.7714 14.7117Z" fill="#5B456B"/>
<path d="M127.23 29.6016C131.383 37.8016 130.726 47.3605 123.286 52.3518C123.791 54.5268 123.637 56.8013 122.843 58.8897C122.05 60.978 120.653 62.7872 118.828 64.0902C116.965 65.3085 114.778 65.9483 112.547 65.9279C110.316 65.9075 108.141 65.228 106.3 63.9758C101.933 66.4119 96.8928 67.3905 91.9228 66.7675C86.6735 65.9453 81.7942 63.5758 77.9179 59.9666C75.3281 60.6694 72.6125 60.7871 69.9708 60.311C67.3292 59.8348 64.8285 58.7771 62.6528 57.2153C58.3368 54.0672 54.7797 48.5444 54.617 43.2302C53.8078 46.0833 53.7116 49.0892 54.3365 51.9876C54.9615 54.886 56.2889 57.5893 58.2037 59.8634C60.1185 62.1375 62.5629 63.9138 65.3252 65.0383C68.0874 66.1628 71.0842 66.6016 74.0559 66.3168C75.411 68.6173 79.2933 70.743 81.9764 70.8978C83.3586 70.9377 84.7308 70.6541 85.982 70.0698C87.2333 69.4855 88.3284 68.6169 89.1787 67.5343C89.959 69.1591 91.1474 70.5572 92.6295 71.5939C94.1117 72.6307 95.8376 73.2713 97.6413 73.454C101.239 73.7701 104.945 72.4449 107.019 69.5053C109.339 70.8284 111.998 71.4509 114.67 71.2968C117.341 71.1427 119.909 70.2185 122.06 68.6375C126.295 65.4154 128.49 59.4016 127.04 54.3026C129.108 52.9697 130.811 51.1484 131.995 49.0019C133.18 46.8553 133.81 44.4504 133.829 42.0028C133.848 39.5551 133.255 37.141 132.103 34.9767C130.951 32.8124 129.277 30.9656 127.23 29.6016Z" fill="#2E2138"/>
<path d="M120.605 31.7377C120.089 29.6257 118.932 27.7216 117.292 26.2822C116.892 25.9358 116.464 25.6231 116.012 25.3472C116.298 23.4131 116.064 21.4382 115.334 19.6226C114.404 17.1698 112.67 15.0986 110.412 13.742C108.153 12.3853 105.501 11.8219 102.881 12.1424C100.646 12.3661 98.5366 13.2734 96.8438 14.7389C98.7637 13.8985 100.844 13.4787 102.942 13.5079C105.239 13.494 107.496 14.1096 109.463 15.287C111.431 16.4643 113.033 18.1578 114.094 20.181C114.945 21.7331 115.5 23.4273 115.734 25.179C114.399 24.4076 112.914 23.9283 111.377 23.7731C109.513 23.5696 107.629 23.911 105.957 24.7552C107.688 24.4583 109.461 24.5064 111.174 24.8965C113.056 25.2943 114.804 26.1605 116.256 27.4137C117.708 28.6668 118.815 30.2659 119.474 32.0606C120.102 33.6883 120.397 35.4241 120.341 37.1663C120.955 35.42 121.047 33.5346 120.605 31.7377Z" fill="#5B456B"/>
<path d="M84.2037 13.5944C82.0732 12.9866 79.8055 13.0482 77.7117 13.7708C75.6179 14.4935 73.8006 15.8417 72.5093 17.6305C71.4516 19.0389 70.7899 20.7011 70.5918 22.4469C69.1855 22.5718 67.8191 22.9767 66.5739 23.6376C64.7389 24.6533 63.2487 26.1867 62.2918 28.0436C61.4617 29.6269 61.0977 31.4104 61.2416 33.1897C61.6191 31.546 62.309 29.9889 63.2743 28.602C64.2955 27.0715 65.6768 25.811 67.2989 24.9296C68.921 24.0482 70.7349 23.5724 72.5838 23.5434C74.2787 23.4962 75.967 23.7725 77.557 24.3573C76.1307 23.2698 74.4223 22.6072 72.6312 22.4469C71.9912 22.3865 71.3469 22.3865 70.707 22.4469C71.3619 20.9525 72.2796 19.5858 73.4172 18.4108C74.7387 16.9865 76.3953 15.9098 78.2387 15.277C80.0821 14.6443 82.0548 14.4752 83.9801 14.785C85.7398 15.0418 87.433 15.6334 88.9669 16.5273C87.6952 15.1165 86.0418 14.0985 84.2037 13.5944Z" fill="#5B456B"/>
<path d="M150.836 185.179L140.178 82.7422H120.746C119.328 86.6669 116.662 90.0269 113.151 92.3145C111.242 93.5257 109.074 94.2779 106.82 94.5115C104.567 94.745 102.29 94.4534 100.169 93.6599C98.2469 92.8664 96.5387 91.6363 95.182 90.0685C93.8253 88.5007 92.8577 86.6388 92.3572 84.6324H79.5516C74.9555 84.632 70.4917 86.1592 66.8716 88.9706C63.2516 91.782 60.6837 95.7157 59.5775 100.145L52.1719 129.77L68.7718 137.6L63.4463 185.179H150.836Z" fill="#6CA8BF"/>
<path d="M83.5168 114.36C83.5168 114.36 80.6982 96.9169 86.3761 84.6875H80.9963C75.3185 96.8698 78.1371 114.36 78.1371 114.36H83.5168Z" fill="#495375"/>
<path d="M128.614 112.387C128.614 112.387 125.795 94.938 131.446 82.7422H126.094C120.416 94.9716 123.227 112.421 123.227 112.421L128.614 112.387Z" fill="#495375"/>
<path d="M123.223 112.382H128.609C128.609 112.382 128.304 110.512 128.101 107.586L122.789 108.528C122.986 110.909 123.223 112.382 123.223 112.382Z" fill="#422C4F"/>
<path d="M77.6406 109.766C77.8507 112.564 78.1352 114.326 78.1352 114.326H83.515C83.515 114.326 83.2575 112.712 83.0542 110.129C81.2436 110.126 79.4352 110.004 77.6406 109.766Z" fill="#422C4F"/>
<path d="M63.4531 185.181L70.7639 119.93C73.3995 118.8 75.3373 115.787 76.2994 113.991C76.5206 113.58 76.8577 113.242 77.2692 113.019C77.6808 112.795 78.149 112.696 78.6166 112.733C92.757 113.816 117.067 112.457 128.606 110.419C129.102 110.332 129.613 110.403 130.066 110.62C130.519 110.837 130.893 111.19 131.133 111.629C134.975 118.625 139.894 123.738 144.684 126.126L150.83 185.208L63.4531 185.181Z" fill="#495375"/>
<path d="M136.414 119.287C138.703 122.068 141.515 124.38 144.694 126.095L150.839 185.177L141.821 98.5078L138.169 109.647C137.15 112.768 136.56 116.01 136.414 119.287Z" fill="#468097"/>
<path d="M66.6918 156.258L63.4531 185.177L66.6918 156.258Z" fill="white"/>
<path d="M136.411 119.289C136.378 120.076 136.364 120.863 136.378 121.65L136.811 142.181L114.337 132.38L96.077 140.384L66.6918 156.26L63.4531 185.185H150.857L144.711 126.103C141.525 124.389 138.706 122.074 136.411 119.289Z" fill="#422C4F"/>
<path d="M82.916 118.275L78.932 118.019C78.6294 118 78.3467 117.863 78.146 117.637C77.9453 117.411 77.843 117.116 77.8615 116.815C77.8807 116.514 78.0192 116.234 78.2465 116.035C78.4739 115.835 78.7716 115.734 79.0743 115.752L83.0651 116.008C83.3678 116.027 83.6505 116.164 83.8512 116.39C84.0519 116.616 84.1542 116.911 84.1356 117.212C84.1147 117.513 83.9748 117.794 83.7463 117.993C83.5179 118.192 83.2194 118.293 82.916 118.275Z" fill="#797C99"/>
<path d="M124.254 116.376L128.245 116.121C128.547 116.102 128.83 115.964 129.031 115.738C129.232 115.513 129.334 115.217 129.315 114.917C129.296 114.616 129.158 114.335 128.93 114.136C128.703 113.937 128.405 113.835 128.102 113.854L124.112 114.109C123.809 114.128 123.526 114.266 123.326 114.492C123.125 114.717 123.023 115.013 123.041 115.313C123.06 115.614 123.199 115.895 123.426 116.094C123.654 116.293 123.951 116.395 124.254 116.376Z" fill="#797C99"/>
<path d="M68.7792 137.6L73.0003 99.9297C70.2804 102.153 68.4201 105.243 67.7358 108.675L62.6406 134.667L68.7792 137.6Z" fill="#468097"/>
<path d="M121.782 88.7261C120.237 91.3476 118.054 93.5425 115.434 95.1099C112.572 96.8061 109.279 97.647 105.948 97.5316C102.593 97.4307 99.3236 96.4614 96.4624 94.7198C93.8509 93.1106 91.5683 91.027 89.7344 88.5781C90.5967 90.9779 91.9767 93.1616 93.7778 94.9766C95.579 96.7915 97.7578 98.1939 100.162 99.0855C101.986 99.7575 103.908 100.13 105.853 100.189C107.803 100.24 109.748 99.9653 111.606 99.3747C113.403 98.8012 115.08 97.9101 116.558 96.7445C119.174 94.7453 121.018 91.9144 121.782 88.7261Z" fill="#468097"/>
<path d="M116.922 102.041C115.256 102.49 113.563 102.836 111.854 103.076C108.025 103.629 104.129 103.527 100.335 102.774C98.6415 102.438 96.9695 102.002 95.3281 101.469C96.7777 102.494 98.3773 103.293 100.071 103.837C102 104.475 104.014 104.828 106.047 104.886C108.082 104.935 110.113 104.69 112.077 104.159C113.791 103.701 115.424 102.986 116.922 102.041Z" fill="#468097"/>
<path d="M100.171 93.6858C102.292 94.4794 104.569 94.771 106.823 94.5374C109.076 94.3039 111.244 93.5516 113.153 92.3405C116.669 90.046 119.336 86.6759 120.749 82.7412H116.053L107.625 58.7734L93.1995 76.64L96.0656 84.6584H92.3594C92.8599 86.6648 93.8274 88.5266 95.1842 90.0944C96.5409 91.6622 98.2491 92.8923 100.171 93.6858Z" fill="#BD6C67"/>
<path d="M102.056 79.7044C104.734 77.6603 106.643 74.7819 107.476 71.5313C108.297 68.2969 108.452 64.9311 107.93 61.6361C107.808 60.7279 107.652 59.8333 107.469 58.9453L93.1797 76.6437L95.0429 81.8704C97.5578 81.9411 100.025 81.179 102.056 79.7044Z" fill="#422C4F"/>
<path d="M174.729 151.89L168.726 135.719L146.266 141.282L174.729 151.89Z" fill="#A64F5A"/>
<path d="M168.726 135.719L169.77 138.531L157.228 145.372L146.266 141.282L168.726 135.719Z" fill="#422C4F"/>
<path d="M140.459 82.7422H140.181L137.986 89.3076C135.876 95.6408 135.685 102.45 137.437 108.889L146.245 141.32L173.889 134.472L159.864 96.1959C158.407 92.2496 155.765 88.8428 152.294 86.4365C148.824 84.0302 144.692 82.7406 140.459 82.7422Z" fill="#6CA8BF"/>
<path d="M169.469 129.828C166.243 130.38 162.144 131.395 158.072 132.519C154 133.642 149.942 134.84 146.906 135.997C150.826 135.743 154.707 135.078 158.486 134.012C162.284 133.003 165.965 131.6 169.469 129.828Z" fill="#468097"/>
<path d="M94.1808 94.4651C91.7533 94.0968 89.2777 94.6991 87.2969 96.1401L88.4216 105.497L97.8056 103.21L94.1808 94.4651Z" fill="#CC6164"/>
<path d="M92.9773 101.274C92.5755 101.372 92.1574 101.385 91.7501 101.313C91.3427 101.241 90.9551 101.085 90.6123 100.855C90.2695 100.625 89.979 100.326 89.7597 99.9775C89.5404 99.6291 89.397 99.2389 89.3389 98.8322L88.8172 95.2266C88.271 95.4802 87.7513 95.7866 87.2656 96.1414L88.3904 105.498L97.7744 103.211L96.7174 100.655C95.4578 100.776 94.2082 100.982 92.9773 101.274Z" fill="#A34262"/>
<path d="M106.034 113.809C106.034 113.809 116.129 130.417 121.123 147.443C121.326 148.141 121.385 148.873 121.296 149.594C121.207 150.315 120.972 151.011 120.605 151.64C120.238 152.268 119.746 152.816 119.16 153.251C118.573 153.686 117.904 153.999 117.193 154.17L101.88 157.896C100.488 158.238 99.0155 158.018 97.7862 157.284C96.5568 156.55 95.6706 155.363 95.3216 153.981C92.9705 144.698 89.0814 127.034 88.248 117.838C85.8834 117.044 84.3928 114.064 84.4063 111.589C84.4595 110.347 84.7804 109.131 85.3473 108.023C85.9142 106.914 86.7139 105.94 87.6924 105.165C89.6701 103.625 91.9955 102.586 94.4679 102.137C97.3407 101.525 100.518 101.465 103.012 102.998C106.142 104.943 107.761 110.553 106.034 113.809Z" fill="#F4D071"/>
<path d="M100.951 153.134C98.5998 143.851 92.739 124.578 91.9057 115.376C89.541 114.589 88.0572 111.602 88.064 109.126C88.1409 106.952 89.0609 104.892 90.6319 103.375C89.5695 103.836 88.5774 104.443 87.6845 105.178C86.706 105.953 85.9063 106.928 85.3394 108.036C84.7725 109.144 84.4516 110.36 84.3984 111.602C84.3984 114.077 85.8755 117.057 88.2401 117.851C89.0735 127.047 92.983 144.712 95.3137 153.995C95.6627 155.376 96.5489 156.564 97.7783 157.298C99.0076 158.031 100.48 158.252 101.872 157.91L105.192 157.102C104.178 156.911 103.24 156.435 102.489 155.732C101.737 155.029 101.204 154.127 100.951 153.134Z" fill="#ECA85E"/>
<path d="M128.216 134.016L117.856 121.235C116.804 119.925 115.403 118.936 113.812 118.378C112.222 117.82 110.505 117.717 108.858 118.08C103.527 119.267 98.5497 121.677 94.3249 125.116C93.3967 125.89 92.4549 126.771 92.3668 128.063C92.3417 128.34 92.3804 128.619 92.4802 128.879C92.58 129.139 92.7382 129.373 92.9427 129.563C93.749 130.276 94.745 129.933 95.6123 129.563L108.289 124.531C103.546 126.657 98.7561 128.823 94.7382 132.072C93.8778 132.744 93.024 133.538 92.8547 134.688C92.811 134.961 92.8292 135.239 92.9077 135.503C92.9863 135.767 93.1232 136.011 93.3086 136.215C94.1623 137.09 95.4361 136.659 96.466 136.215L101.636 133.996L111.914 129.509L99.4269 135.879C98.4796 136.296 97.6129 136.875 96.8657 137.588C96.4972 137.949 96.2307 138.4 96.0928 138.896C95.9549 139.392 95.9504 139.915 96.0798 140.413C96.466 141.57 97.8008 142.196 99.0271 142.175C100.255 142.061 101.445 141.694 102.523 141.099L113.52 135.879L105.925 140.225C105.167 140.592 104.498 141.115 103.96 141.758C103.691 142.036 103.519 142.392 103.47 142.773C103.42 143.155 103.495 143.543 103.684 143.879C103.873 144.215 104.166 144.482 104.519 144.64C104.873 144.799 105.268 144.84 105.647 144.759C106.319 144.643 106.967 144.415 107.564 144.086L115.119 140.487C116.072 141.872 117.529 142.837 119.184 143.178C120.889 143.468 122.623 143.547 124.347 143.413L154.532 165.699C156.935 167.475 159.83 168.475 162.824 168.564C165.818 168.653 168.768 167.827 171.274 166.197C172.773 165.222 174.004 163.892 174.856 162.326C175.707 160.761 176.153 159.009 176.152 157.23C176.154 154.967 175.434 152.761 174.095 150.929C172.756 149.097 170.867 147.733 168.699 147.032L128.216 134.016Z" fill="#BD6C67"/>
<path d="M172.54 165.062C170.291 165.811 167.9 166.036 165.55 165.72C163.2 165.404 160.955 164.555 158.989 163.239L125.728 140.966C124.071 141.384 122.357 141.528 120.653 141.39C119.794 141.271 118.977 140.949 118.27 140.452C117.563 139.954 116.986 139.296 116.588 138.531L108.166 142.608C107.315 143.094 106.371 143.396 105.395 143.496C104.712 143.524 104.045 143.296 103.525 142.857C103.487 143.074 103.493 143.296 103.541 143.51C103.59 143.725 103.681 143.928 103.809 144.108C104.033 144.364 104.319 144.56 104.64 144.678C104.961 144.796 105.307 144.831 105.645 144.78C106.318 144.664 106.966 144.437 107.563 144.108L115.117 140.509C116.071 141.894 117.528 142.859 119.183 143.2C120.887 143.49 122.621 143.569 124.346 143.435L154.53 165.721C156.934 167.497 159.828 168.497 162.823 168.586C165.817 168.675 168.767 167.849 171.273 166.219C171.842 165.85 172.373 165.427 172.858 164.954L172.54 165.062Z" fill="#A64F5A"/>
<path d="M144.815 86.2969C143.259 87.3029 141.896 88.5763 140.79 90.0572C138.216 93.4844 136.923 97.6937 137.131 101.964C137.215 103.805 137.63 105.616 138.358 107.312C138.184 105.539 138.161 103.754 138.29 101.977C138.593 98.0065 139.777 94.1517 141.759 90.6895C142.65 89.1416 143.672 87.672 144.815 86.2969Z" fill="#468097"/>
<path d="M65.0781 44.6651C65.9793 51.7687 66.9075 59 69.821 65.5184C72.7344 72.0367 78.0667 77.9294 85.0251 79.7995C91.1705 81.4543 98.0273 79.7053 102.946 75.6894C107.837 71.5277 110.922 65.6531 111.558 59.2893C113.509 60.6347 116.673 60.2378 118.652 58.9328C119.622 58.2512 120.428 57.3654 121.014 56.3386C121.6 55.3119 121.95 54.1695 122.04 52.993C122.245 51.1369 121.748 49.2712 120.644 47.7595C120.07 47.0189 119.309 46.4421 118.438 46.0877C117.567 45.7333 116.617 45.6139 115.684 45.7414C114.763 45.9638 113.907 46.3964 113.183 47.0047C112.46 47.6131 111.89 48.3805 111.517 49.2461C110.786 50.9809 110.351 52.8247 110.23 54.7016C108.197 53.2284 106.693 50.5646 106.984 48.0689C104.22 47.7124 101.449 46.2863 100.026 43.8982C99.3256 42.6953 98.9054 41.352 98.7963 39.9667C98.6873 38.5815 98.8922 37.1896 99.3959 35.8933C96.7485 37.147 93.7234 37.3679 90.9198 36.5121C88.2558 35.6715 86.0346 33.8193 84.7405 31.3594C83.5955 33.4312 81.739 35.3417 79.476 36.0682C77.1734 36.7921 74.6801 36.6239 72.4973 35.5973C72.5989 37.6759 72.1856 40.0707 70.7898 41.6515C69.3176 43.3112 67.2874 44.3823 65.0781 44.6651Z" fill="#BD6C67"/>
<path d="M116.759 48.8672C115.844 49.4531 115.084 50.2468 114.539 51.1826C113.995 52.1184 113.683 53.1694 113.629 54.2487C113.585 54.5883 113.616 54.9334 113.72 55.2599C113.824 55.5864 113.999 55.8863 114.232 56.1389C114.478 56.3322 114.772 56.4561 115.083 56.4975C115.395 56.5389 115.711 56.4964 116 56.3744C116.575 56.1185 117.051 55.6841 117.355 55.1366C117.685 54.6135 117.85 54.0045 117.83 53.3876C117.813 53.0818 117.724 52.7842 117.569 52.5189C117.415 52.2536 117.2 52.0281 116.942 51.8606C116.676 51.7034 116.367 51.6355 116.059 51.667C115.751 51.6985 115.462 51.8278 115.235 52.0355C115.404 50.8493 115.936 49.7432 116.759 48.8672Z" fill="#A64F5A"/>
<path d="M97.3327 48.7483L86.1328 47.5105C86.7105 46.3965 87.6283 45.4923 88.7549 44.9274C89.8382 44.4405 91.0536 44.3246 92.2104 44.5978C94.2566 45.0687 95.964 47.1204 97.3327 48.7483Z" fill="#422C4F"/>
<path d="M67.7578 51.2149L73.7744 48.7932C73.3165 47.951 72.5721 47.2977 71.674 46.95C71.1416 46.8305 70.5855 46.871 70.0763 47.0663C69.5672 47.2615 69.128 47.6027 68.8148 48.0465C68.1237 48.9008 67.9746 50.1655 67.7578 51.2149Z" fill="#422C4F"/>
<path d="M91.33 56.4536C91.33 57.7317 90.5441 58.7743 89.5752 58.7743C88.6063 58.7743 87.8203 57.7317 87.8203 56.4536C87.8203 55.1755 88.6063 54.1328 89.5752 54.1328C90.5441 54.1328 91.33 55.162 91.33 56.4536Z" fill="#422C4F"/>
<path d="M74.3076 56.6995C74.5515 57.843 74.0637 58.9193 73.2032 59.1009C72.3427 59.2826 71.4551 58.5023 71.2112 57.3587C70.9673 56.2151 71.4551 55.1456 72.3089 54.9639C73.1626 54.7823 74.0637 55.5559 74.3076 56.6995Z" fill="#422C4F"/>
<path d="M84.6221 63.0859C82.7669 63.2663 80.9029 63.3427 79.0391 63.3147C79.2566 63.8772 79.6387 64.3623 80.1361 64.7075C80.6336 65.0528 81.2237 65.2424 81.8306 65.252C82.4564 65.1959 83.0527 64.9617 83.5479 64.5775C84.043 64.1932 84.416 63.6754 84.6221 63.0859Z" fill="#A64F5A"/>
<path d="M94.4618 67.8438C90.1294 69.5863 85.61 70.83 80.9922 71.5503C82.5237 72.5511 84.2075 73.3007 85.9789 73.7701C87.7599 74.196 89.6381 73.911 91.2096 72.9763C92.8222 71.9135 93.8182 69.6667 94.4618 67.8438Z" fill="white"/>
<path d="M93.9821 74.5859L88.25 76.0658C89.2625 76.5877 90.4232 76.7537 91.5429 76.5367C92.5642 76.1959 93.4292 75.5041 93.9821 74.5859Z" fill="#A64F5A"/>
<path d="M106.538 60.9584C107.013 62.7141 104.824 64.8263 101.647 65.6672C98.4689 66.508 95.508 65.7748 95.0269 64.0191C94.5459 62.2634 96.7479 60.1511 99.9256 59.3103C103.103 58.4694 106.064 59.1959 106.538 60.9584Z" fill="#E68799"/>
<path d="M73.3067 67.4432C74.9345 67.4432 76.254 66.3348 76.254 64.9677C76.254 63.6005 74.9345 62.4922 73.3067 62.4922C71.6789 62.4922 70.3594 63.6005 70.3594 64.9677C70.3594 66.3348 71.6789 67.4432 73.3067 67.4432Z" fill="#E68799"/>
<path d="M73.5173 37.6694C75.4889 38.739 78.1856 39.1224 80.2521 38.2479C81.2853 37.8003 82.2052 37.1297 82.9447 36.2849C83.6842 35.4402 84.2249 34.4424 84.5274 33.3642C84.6271 34.2713 84.9286 35.1451 85.4102 35.9222C85.8918 36.6994 86.5415 37.3605 87.3121 37.8577C88.8335 38.7987 90.6216 39.2236 92.4073 39.0686C94.1799 38.9163 95.9092 38.442 97.5092 37.6694C97.1475 38.9487 97.0933 40.2944 97.3511 41.5983C97.6088 42.9022 98.1712 44.1278 98.993 45.1766C100.619 47.1946 104.041 48.3315 106.988 48.022C104.224 47.6655 101.453 46.2394 100.03 43.8514C99.3292 42.6485 98.909 41.3051 98.8 39.9199C98.691 38.5346 98.8958 37.1427 99.3996 35.8464C96.7522 37.1001 93.7271 37.321 90.9234 36.4653C88.2595 35.6247 86.0383 33.7724 84.7442 31.3125C83.5992 33.3844 81.7427 35.2948 79.4797 36.0213C77.183 36.7599 74.6898 36.6085 72.5009 35.5975C72.6026 37.6761 72.1893 40.0709 70.7935 41.6517C69.3178 43.3246 67.2765 44.4037 65.0547 44.6855C65.136 45.3582 65.2241 45.9771 65.3054 46.6228C67.5955 46.6228 70.1498 45.782 71.6675 44.0733C72.4345 43.2086 72.9982 42.1855 73.3181 41.078C73.638 39.9705 73.706 38.8062 73.5173 37.6694Z" fill="#A64F5A"/>
<path d="M146.578 246.041H30.4873C29.789 246.039 29.1129 245.797 28.5733 245.357C28.0337 244.917 27.6639 244.306 27.5265 243.626L17.7969 194.836H159.282L149.539 243.626C149.403 244.306 149.033 244.919 148.494 245.359C147.954 245.799 147.277 246.04 146.578 246.041Z" fill="#57A0CF"/>
<path d="M138.766 194.836H17.7969L19.2265 202.013H118.968C121.198 202.013 123.4 202.503 125.416 203.449C127.432 204.395 129.211 205.773 130.627 207.483C132.042 209.194 133.057 211.195 133.6 213.342C134.143 215.489 134.2 217.729 133.766 219.9L129.023 243.626C128.886 244.306 128.516 244.917 127.976 245.357C127.437 245.797 126.76 246.039 126.062 246.041H146.572C147.27 246.04 147.947 245.799 148.487 245.359C149.027 244.919 149.396 244.306 149.532 243.626L159.276 194.836H138.766Z" fill="#386693"/>
<path d="M31.8441 215.892L34.7914 230.691C35.1174 232.323 36.0033 233.792 37.2981 234.848C38.5929 235.905 40.2164 236.482 41.8921 236.483H46.3978C46.9102 236.482 47.4165 236.373 47.8833 236.164C48.3501 235.954 48.7667 235.648 49.1056 235.267C49.4444 234.885 49.6978 234.436 49.8489 233.95C50 233.464 50.0453 232.952 49.982 232.447L48.1052 217.856C47.8797 216.125 47.027 214.535 45.7066 213.382C44.3861 212.23 42.6882 211.594 40.93 211.594H35.3944C34.8587 211.593 34.3296 211.711 33.8453 211.938C33.3609 212.166 32.9335 212.497 32.5938 212.908C32.2541 213.319 32.0107 213.8 31.881 214.316C31.7514 214.833 31.7387 215.371 31.8441 215.892Z" fill="#70CDE2"/>
<path d="M13.4837 185.18L10.6719 190.01H166.826L164.014 185.18H13.4837Z" fill="#57A0CF"/>
<path d="M13.4837 194.838H164.014L166.826 190.008H10.6719L13.4837 194.838Z" fill="#4883B2"/>
<path d="M146.664 124.793C146.665 123.935 146.438 123.093 146.007 122.349C145.577 121.606 144.957 120.989 144.21 120.558C143.462 120.128 142.615 119.901 141.751 119.898C140.887 119.896 140.038 120.12 139.289 120.546C138.54 120.972 137.916 121.587 137.482 122.328C137.047 123.069 136.816 123.91 136.813 124.767C136.809 125.625 137.032 126.468 137.46 127.213C137.888 127.958 138.506 128.578 139.252 129.01C138.891 129.555 138.691 130.189 138.674 130.84C138.657 131.492 138.824 132.135 139.157 132.697C139.489 133.259 139.973 133.718 140.554 134.021C141.136 134.324 141.791 134.459 142.445 134.412C143.1 134.364 143.728 134.136 144.259 133.752C144.79 133.368 145.202 132.845 145.448 132.241C145.695 131.637 145.766 130.976 145.654 130.334C145.542 129.692 145.251 129.093 144.814 128.607C145.391 128.15 145.858 127.57 146.178 126.909C146.498 126.249 146.664 125.526 146.664 124.793Z" fill="#E6FBFC"/>
<path d="M35.7615 155.013C36.8214 154.013 37.5821 152.74 37.9593 151.337C38.3366 149.934 38.3159 148.455 37.8995 147.063C37.483 145.671 36.6871 144.42 35.5995 143.449C34.512 142.478 33.1752 141.824 31.7369 141.56C31.8981 141.197 31.9812 140.806 31.9808 140.409C31.9816 140.025 31.9032 139.645 31.7504 139.293C32.9642 139.209 34.1121 138.714 35.0023 137.89C35.8925 137.067 36.471 135.965 36.641 134.769C36.811 133.573 36.5623 132.355 35.9364 131.319C35.3106 130.283 34.3454 129.492 33.2025 129.078C32.0595 128.663 30.808 128.651 29.6571 129.043C28.5063 129.435 27.5259 130.208 26.8798 131.231C26.2338 132.255 25.9613 133.468 26.1079 134.667C26.2544 135.866 26.8112 136.979 27.6851 137.82C27.2919 138.011 26.9475 138.289 26.6779 138.632C26.4084 138.975 26.2205 139.374 26.1286 139.799C26.0367 140.225 26.043 140.665 26.1471 141.088C26.2512 141.51 26.4505 141.904 26.7298 142.239C25.3662 142.903 24.2232 143.942 23.4365 145.231C22.6498 146.521 22.2525 148.008 22.2917 149.515C22.331 151.022 22.8051 152.487 23.6579 153.735C24.5106 154.982 25.7061 155.961 27.1024 156.554C26.4555 157.537 26.1125 158.686 26.1159 159.861C26.1192 161.035 26.4687 162.182 27.1213 163.162C27.7738 164.141 28.7009 164.909 29.788 165.371C30.8751 165.834 32.0748 165.97 33.2391 165.763C34.4033 165.557 35.4812 165.016 36.3396 164.209C37.1981 163.401 37.7996 162.361 38.07 161.218C38.3404 160.075 38.2678 158.879 37.8612 157.776C37.4546 156.673 36.7317 155.713 35.7818 155.013H35.7615Z" fill="#E6FBFC"/>
<path d="M23.9764 148.471C23.8689 149.676 24.1359 150.885 24.7416 151.935C25.3473 152.985 26.2626 153.826 27.3641 154.343C27.7124 154.534 28.121 154.584 28.5055 154.484C28.89 154.384 29.2212 154.141 29.4306 153.805C29.6204 153.465 29.67 153.064 29.5689 152.688C29.4679 152.312 29.2241 151.989 28.8886 151.787C28.2444 151.532 27.7056 151.068 27.359 150.471C27.0124 149.875 26.8781 149.18 26.9779 148.498C27.1473 146.581 24.1322 146.587 23.9628 148.498L23.9764 148.471Z" fill="white"/>
<path d="M29.1381 162.923C31.0827 162.923 31.0827 159.93 29.1381 159.93C27.1935 159.93 27.1935 162.923 29.1381 162.923Z" fill="white"/>
<path d="M137.111 185.179C135.871 180.679 134.123 173.428 133.934 168.759C133.744 164.091 134.699 159.227 137.504 155.48C140.465 151.511 145.12 149.191 148.724 145.794C152.244 142.556 154.567 138.241 155.324 133.537C155.678 131.197 155.532 128.809 154.896 126.528C154.26 124.247 153.147 122.125 151.631 120.299C148.528 116.727 143.44 114.453 138.758 115.26C141.425 117.167 143.278 119.994 143.955 123.187C144.632 126.38 144.083 129.709 142.416 132.522C140.004 136.558 135.641 139.04 132.45 142.558C127.334 148.249 125.329 157.041 128.215 164.084C119.766 158.702 83.7137 157.048 72.5545 163.788L74.9666 155.252C76.9751 153.836 78.7218 152.086 80.1295 150.079C80.7626 149.137 81.1768 148.067 81.3421 146.947C81.5073 145.826 81.4194 144.683 81.0849 143.601C78.8101 135.984 75.4833 128.717 71.1994 122.007C71.1994 122.007 70.5964 112.718 68.7806 106.583C66.5244 108.305 61.8967 113.411 60.0335 120.696C60.0335 120.696 51.1373 120.4 46.3064 121.449C46.3064 121.449 44.6531 110.215 40.886 105.305C23.5204 128.815 29.9571 155.702 42.2411 185.213L137.111 185.179Z" fill="#CFB59D"/>
<path d="M150.742 143.624C153.164 140.736 154.748 137.248 155.322 133.534C155.676 131.193 155.531 128.805 154.894 126.524C154.258 124.243 153.146 122.121 151.629 120.295C148.526 116.723 143.438 114.449 138.756 115.257C141.423 117.163 143.277 119.99 143.953 123.184C144.63 126.377 144.082 129.705 142.415 132.518C140.294 136.09 136.635 138.424 133.641 141.33C136.183 142.851 139.012 143.837 141.954 144.228C144.895 144.62 147.886 144.407 150.742 143.604V143.624Z" fill="#978093"/>
<path d="M101.579 177.432C104.054 178.543 106.774 179.004 109.479 178.771C112.185 178.538 114.785 177.619 117.029 176.101C119.274 174.584 121.088 172.519 122.298 170.105C123.508 167.691 124.073 165.009 123.938 162.316C115.056 159.626 98.1915 158.529 85.5078 160.171L89.8306 166.104C93.076 170.55 96.5451 175.178 101.579 177.432Z" fill="#978093"/>
<path d="M53.1986 120.729C50.8835 120.781 48.5766 121.022 46.3012 121.449C46.3012 121.449 44.648 110.215 40.8808 105.305C32.2082 117.043 29.4709 129.622 30.433 142.975C35.9142 141.709 40.9378 138.967 44.9517 135.051C48.9655 131.134 51.8143 126.195 53.1851 120.776L53.1986 120.729Z" fill="#978093"/>
<path d="M70.8444 138.523C73.61 139.525 76.6307 139.598 79.4424 138.731C77.3379 132.877 74.5717 127.278 71.1967 122.042C71.1967 122.042 70.5937 112.752 68.7778 106.617C66.5216 108.299 61.894 113.405 60.0307 120.69H58.5469C58.985 124.171 60.084 127.537 61.7856 130.612C63.7819 134.218 66.9868 137.017 70.8444 138.523Z" fill="#978093"/>
<path d="M129.326 147.164C126.656 152.404 126.026 158.754 128.215 164.136C129.318 164.975 130.374 165.873 131.379 166.827C128.732 160.623 128.017 153.775 129.326 147.164Z" fill="#8E7564"/>
<path d="M82.3188 160.656C78.3009 161.376 74.8658 162.419 72.5553 163.825C71.4063 167.448 69.8134 170.919 67.8125 174.157C74.5338 171.944 80.2658 164.356 82.3188 160.656Z" fill="#8E7564"/>
<path d="M45.3281 157.987C57.9712 167.72 70.1602 160.879 74.1781 158.067L74.964 155.289C70.7429 158.081 51.7377 160.099 45.3281 157.987Z" fill="#8E7564"/>
<path d="M63.4531 120.946C65.2748 120.965 67.0902 121.161 68.8735 121.531C68.6844 117.464 68.0875 113.426 67.0916 109.477C65.4216 113.142 64.2001 116.992 63.4531 120.946Z" fill="#422C4F"/>
<path d="M68.9069 121.524C70.262 121.786 71.1971 122.042 71.1971 122.042C71.1971 122.042 70.594 112.752 68.7782 106.617C68.1575 107.526 67.6049 108.48 67.125 109.469C68.1209 113.419 68.7178 117.457 68.9069 121.524Z" fill="#645B79"/>
<path d="M38.462 123.941C39.901 123.296 41.3867 122.758 42.9067 122.334C42.5501 117.766 41.5158 113.276 39.8374 109.008C38.9634 112.613 37.9403 118.331 38.462 123.941Z" fill="#422C4F"/>
<path d="M42.9099 122.337C44.1566 121.974 45.3694 121.664 46.2977 121.449C46.2977 121.449 44.6445 110.215 40.8773 105.305C40.8773 105.305 40.3759 106.744 39.8203 109.045C41.5024 113.301 42.5435 117.78 42.9099 122.337Z" fill="#645B79"/>
<path d="M55.9552 134.293C56.1178 136.311 55.4402 137.972 54.4442 138.053C53.4482 138.134 52.5064 136.573 52.3506 134.575C52.1948 132.577 52.8655 130.889 53.8615 130.815C54.8575 130.741 55.7993 132.288 55.9552 134.293Z" fill="#422C4F"/>
<path d="M69.8723 133.864C69.7301 135.64 70.3331 137.134 71.2274 137.228C72.1218 137.322 72.9416 135.882 73.0839 134.133C73.2262 132.384 72.6232 130.864 71.7288 130.77C70.8345 130.676 70.0146 132.115 69.8723 133.864Z" fill="#422C4F"/>
<path d="M73.1762 147.995C72.0237 148.234 70.8237 148.088 69.7635 147.58C68.7033 147.071 67.8425 146.228 67.3154 145.183C67.1199 144.814 66.9632 144.426 66.8479 144.026C66.8853 143.344 66.8004 142.66 66.5972 142.008C66.5972 142.149 66.5972 142.297 66.5972 142.438C66.5972 142.331 66.5972 142.216 66.5972 142.109C66.3899 142.702 66.3091 143.332 66.3601 143.959C66.1901 144.597 65.9397 145.212 65.6147 145.788C64.9457 147.069 63.8824 148.104 62.5796 148.743C61.2768 149.382 59.8027 149.591 58.3718 149.34C57.0514 149.152 55.7988 148.641 54.7266 147.853C55.5791 149 56.8006 149.824 58.1888 150.188C59.0627 150.438 59.9783 150.511 60.8812 150.402C61.7841 150.294 62.6557 150.006 63.4441 149.556C64.2326 149.106 64.9217 148.503 65.4704 147.783C66.019 147.063 66.4161 146.24 66.6378 145.365L66.6785 145.465C67.1485 146.76 68.1098 147.82 69.357 148.42C70.6042 149.019 72.0382 149.111 73.3523 148.674C74.466 148.338 75.4253 147.623 76.0625 146.656C75.2331 147.342 74.2387 147.804 73.1762 147.995Z" fill="#422C4F"/>
<path d="M69.2399 141.009C67.0505 140.38 64.7053 140.561 62.6406 141.52C63.7574 142.642 65.1877 143.406 66.7466 143.713C67.7561 143.215 68.6437 141.977 69.2399 141.009Z" fill="#422C4F"/>
<path d="M21.3125 149.338C25.6353 148.1 31.2792 146.559 37.018 145.416C42.7569 144.272 48.5363 143.479 53.0217 142.947C42.1048 142.71 31.2721 144.893 21.3125 149.338Z" fill="#967F92"/>
<path d="M22.2109 154.447C26.3372 153.102 31.6966 151.212 37.117 149.53C42.5374 147.848 47.9577 146.328 52.1789 145.117C41.7429 146.579 31.6192 149.731 22.2109 154.447Z" fill="#967F92"/>
<path d="M27.0625 160.585C30.5586 158.735 35.0711 156.239 39.6175 153.797C44.1638 151.355 48.7372 148.967 52.2063 147.07C47.7287 148.737 43.3748 150.716 39.177 152.99C34.9631 155.234 30.9148 157.772 27.0625 160.585Z" fill="#967F92"/>
<path d="M102.502 145.974C99.1212 144.138 95.4587 142.868 91.6617 142.213C86.5219 141.289 81.2793 141.062 76.0781 141.541C80.821 141.904 86.3836 142.422 91.3297 143.303C95.1026 143.979 98.833 144.871 102.502 145.974Z" fill="#967F92"/>
<path d="M100.955 150.409C97.8463 148.696 94.5378 147.368 91.1034 146.454C86.489 145.176 81.7558 144.367 76.9766 144.039C81.2248 145.062 86.259 146.212 90.7308 147.402C94.7893 148.506 98.3938 149.643 100.955 150.409Z" fill="#967F92"/>
<path d="M96.7432 155.863C94.2231 153.945 91.5178 152.28 88.6669 150.892C84.9 149.016 80.9785 147.463 76.9453 146.25C80.394 147.965 84.5338 149.896 88.2197 151.692C91.5668 153.313 94.5751 154.84 96.7432 155.863Z" fill="#967F92"/>
<path d="M81.3031 181.673C80.7757 181.674 80.2494 181.723 79.7312 181.821C79.6026 181.181 79.2966 180.59 78.8478 180.115C78.399 179.639 77.8251 179.297 77.1911 179.128C76.557 178.959 75.8879 178.969 75.2593 179.157C74.6306 179.345 74.0675 179.704 73.6333 180.193C72.7155 179.266 71.5216 178.657 70.2282 178.456C68.9348 178.255 67.6105 178.472 66.4513 179.076C66.085 178.086 65.5117 177.185 64.7693 176.431C64.0269 175.678 63.1321 175.089 62.1439 174.703C61.1556 174.317 60.0963 174.144 59.0356 174.193C57.9749 174.243 56.937 174.516 55.9899 174.993C55.0206 172.75 53.455 170.811 51.4607 169.384C49.4664 167.956 47.1186 167.095 44.6688 166.891C42.219 166.687 39.7595 167.148 37.5537 168.226C35.3479 169.304 33.479 170.957 32.1471 173.008C31.4467 172.809 30.7112 172.762 29.9908 172.871C29.2705 172.98 28.5825 173.243 27.9741 173.641C27.3658 174.039 26.8515 174.563 26.4665 175.177C26.0816 175.792 25.8352 176.481 25.7442 177.199C25.5071 177.199 25.2699 177.166 25.026 177.166C22.8593 177.166 20.7774 178.002 19.219 179.496C17.6606 180.991 16.7474 183.027 16.6719 185.177H88.1938C87.4109 184.089 86.3766 183.203 85.1777 182.593C83.9788 181.983 82.6502 181.668 81.3031 181.673Z" fill="#E6FBFC"/>
<path d="M154.754 179.046C153.906 179.047 153.065 179.193 152.267 179.477C152.267 179.356 152.267 179.242 152.267 179.12C152.261 177.797 151.819 176.512 151.008 175.463C150.197 174.413 149.062 173.655 147.776 173.307C146.491 172.958 145.125 173.037 143.889 173.532C142.653 174.027 141.614 174.91 140.932 176.046C140.023 174.599 138.723 173.435 137.18 172.685C135.637 171.935 133.913 171.631 132.205 171.806C130.496 171.981 128.871 172.629 127.515 173.676C126.16 174.723 125.127 176.127 124.535 177.728C124.251 177.677 123.963 177.65 123.675 177.647C122.595 177.647 121.545 177.993 120.68 178.635C119.816 179.276 119.183 180.178 118.878 181.206C117.654 180.155 116.193 179.412 114.619 179.039C113.046 178.667 111.405 178.675 109.835 179.064C108.265 179.453 106.813 180.212 105.6 181.275C104.387 182.339 103.45 183.676 102.867 185.175H162.092C161.79 183.459 160.889 181.904 159.547 180.783C158.205 179.663 156.508 179.047 154.754 179.046Z" fill="#E6FBFC"/>
<path d="M120.603 158.43C120.016 158.432 119.439 158.585 118.929 158.874C118.807 157.888 118.327 156.98 117.579 156.319C116.83 155.659 115.865 155.293 114.864 155.289C114.637 155.288 114.41 155.309 114.186 155.349V155.289C114.186 153.444 113.533 151.659 112.343 150.243C111.152 148.827 109.499 147.871 107.671 147.541C105.843 147.211 103.957 147.529 102.341 148.438C100.724 149.347 99.4806 150.791 98.8265 152.517C98.1539 151.48 97.1609 150.686 95.996 150.255C94.8312 149.825 93.5571 149.78 92.3647 150.129C91.1723 150.477 90.1256 151.2 89.3814 152.188C88.6372 153.177 88.2355 154.378 88.2364 155.612C88.236 155.971 88.27 156.329 88.338 156.681C88.0208 156.605 87.6955 156.567 87.3691 156.567C86.5035 156.567 85.6572 156.822 84.9374 157.299C84.2177 157.777 83.6566 158.456 83.3254 159.25C82.9941 160.044 82.9074 160.917 83.0763 161.76C83.2452 162.603 83.662 163.378 84.2742 163.985C84.8863 164.593 85.6662 165.007 86.5152 165.175C87.3643 165.342 88.2443 165.256 89.0441 164.927C89.8439 164.598 90.5275 164.041 91.0084 163.327C91.4894 162.612 91.7461 161.772 91.7461 160.913V160.872C92.2748 161.094 92.8346 161.235 93.4061 161.289C93.3082 161.699 93.2582 162.119 93.257 162.54C93.2548 163.436 93.4712 164.318 93.8877 165.112C94.3042 165.906 94.9084 166.587 95.6485 167.099C96.3886 167.61 97.2425 167.935 98.137 168.047C99.0315 168.159 99.94 168.054 100.785 167.74C101.174 169.341 102.142 170.744 103.504 171.684C104.866 172.624 106.528 173.035 108.175 172.839C109.822 172.643 111.34 171.854 112.44 170.622C113.541 169.39 114.148 167.8 114.146 166.153C114.146 166.092 114.146 166.032 114.146 165.964C114.551 166.39 115.053 166.713 115.61 166.905C116.167 167.097 116.762 167.154 117.346 167.069C117.929 166.985 118.484 166.762 118.962 166.42C119.441 166.078 119.829 165.626 120.095 165.103C120.256 165.131 120.419 165.144 120.583 165.144C121.481 165.144 122.343 164.789 122.978 164.159C123.613 163.528 123.97 162.672 123.97 161.78C123.97 160.888 123.613 160.033 122.978 159.402C122.343 158.771 121.481 158.417 120.583 158.417L120.603 158.43Z" fill="#E6FBFC"/>
<path d="M65.1933 117.98C65.3319 117.489 65.4025 116.982 65.4034 116.473C65.4043 115.725 65.2566 114.985 64.9689 114.294C64.6811 113.603 64.2589 112.975 63.7265 112.447C63.194 111.918 62.5618 111.499 61.8659 111.213C61.1701 110.927 60.4243 110.781 59.6713 110.782C58.7558 110.78 57.8537 111 57.0424 111.421C56.398 110.25 55.457 109.266 54.3124 108.567C53.1679 107.868 51.8594 107.477 50.5162 107.434C49.173 107.39 47.8416 107.695 46.6536 108.319C45.4656 108.943 44.4621 109.864 43.7422 110.99C44.8849 114.392 45.7416 117.882 46.3033 121.424L46.9809 121.289H47.1232L47.8007 121.181H47.9091L48.5867 121.094H48.6951L49.481 121.007H49.6165C50.1653 120.96 50.7209 120.912 51.2901 120.879H51.3917L52.2522 120.825L53.1533 120.785C53.9867 120.751 54.7998 120.738 55.5586 120.724H55.7619C56.813 121.689 58.1922 122.225 59.6239 122.224C59.9969 122.223 60.3689 122.187 60.7351 122.117C60.8995 122.961 61.3702 123.716 62.0581 124.239C62.7459 124.761 63.603 125.015 64.4668 124.952C65.3307 124.889 66.1412 124.513 66.7446 123.897C67.3481 123.28 67.7026 122.464 67.7409 121.605C67.744 121.547 67.744 121.489 67.7409 121.43C67.7585 120.657 67.5183 119.899 67.0576 119.275C66.597 118.651 65.9416 118.196 65.1933 117.98Z" fill="#E6FBFC"/>
<path d="M157.231 140.843C157.23 139.721 156.858 138.63 156.172 137.738C155.486 136.847 154.524 136.203 153.434 135.908C152.344 135.612 151.186 135.68 150.139 136.101C149.091 136.522 148.212 137.274 147.637 138.24C147.121 138.029 146.569 137.919 146.011 137.917C145.455 137.917 144.906 138.025 144.393 138.236C143.88 138.447 143.414 138.756 143.021 139.146C142.628 139.536 142.317 139.999 142.105 140.508C141.892 141.017 141.783 141.563 141.783 142.114C141.785 142.821 141.969 143.516 142.318 144.132C140.9 144.383 139.616 145.121 138.691 146.217C137.766 147.312 137.258 148.696 137.257 150.126C137.26 150.476 137.294 150.825 137.358 151.169C136.783 151.321 136.255 151.617 135.826 152.028C135.397 152.438 135.08 152.95 134.905 153.516C134.73 154.082 134.703 154.682 134.826 155.261C134.948 155.84 135.217 156.379 135.607 156.826C135.998 157.273 136.496 157.615 137.055 157.819C137.615 158.023 138.217 158.082 138.806 157.991C139.395 157.9 139.951 157.663 140.422 157.3C140.893 156.937 141.263 156.462 141.498 155.918C142.111 156.113 142.751 156.213 143.395 156.214C144.202 156.218 145.001 156.064 145.747 155.759C146.493 155.455 147.171 155.007 147.741 154.441C148.311 153.874 148.763 153.202 149.069 152.461C149.376 151.72 149.532 150.927 149.527 150.126C149.527 150.065 149.527 150.012 149.527 149.951C149.84 150.04 150.164 150.086 150.489 150.086C151.038 150.088 151.581 149.963 152.073 149.723C152.566 149.482 152.996 149.131 153.33 148.698C153.663 148.265 153.891 147.76 153.995 147.225C154.1 146.69 154.078 146.138 153.931 145.612C154.901 145.24 155.735 144.585 156.324 143.734C156.912 142.883 157.229 141.875 157.231 140.843Z" fill="#E6FBFC"/>
<path d="M46.2541 113.409C46.5614 113.519 46.8945 113.538 47.2124 113.463C47.5302 113.388 47.8189 113.222 48.0428 112.985C48.7445 112.398 49.6144 112.045 50.5294 111.976C50.9135 111.868 51.2391 111.614 51.4357 111.269C51.6322 110.924 51.684 110.516 51.5796 110.133C51.4659 109.756 51.2105 109.436 50.8661 109.241C50.5218 109.046 50.115 108.989 49.7299 109.084C48.8977 109.193 48.0855 109.419 47.3179 109.756C46.7872 109.948 46.269 110.173 45.7663 110.429C44.6077 111.142 44.9736 112.931 46.1796 113.382L46.2541 113.409Z" fill="white"/>
<path d="M62.1069 115.306C64.0514 115.306 64.0514 112.312 62.1069 112.312C60.1623 112.312 60.1623 115.306 62.1069 115.306Z" fill="white"/>
<path d="M65.8334 122.751C67.778 122.751 67.778 119.758 65.8334 119.758C63.8889 119.758 63.8889 122.751 65.8334 122.751Z" fill="white"/>
<path d="M35.2671 179.778C35.4948 177.626 36.4887 175.625 38.0698 174.135C39.6509 172.646 41.7155 171.765 43.8923 171.652C45.8233 171.531 45.8368 168.531 43.8923 168.652C40.9226 168.788 38.1042 169.992 35.9625 172.04C33.8208 174.087 32.5021 176.837 32.252 179.778C32.0488 181.695 35.0638 181.682 35.2671 179.778Z" fill="white"/>
<path d="M21.9694 182.973C22.5684 182.232 23.4327 181.75 24.3815 181.627C24.7652 181.52 25.0912 181.268 25.289 180.924C25.4868 180.581 25.5405 180.173 25.4384 179.791C25.3247 179.412 25.0682 179.092 24.7223 178.896C24.3765 178.701 23.968 178.645 23.582 178.741C22.1236 178.982 20.7984 179.728 19.8419 180.847C19.5673 181.132 19.4141 181.512 19.4141 181.906C19.4141 182.301 19.5673 182.681 19.8419 182.966C20.1249 183.244 20.5072 183.401 20.9056 183.401C21.3041 183.401 21.6864 183.244 21.9694 182.966V182.973Z" fill="white"/>
<path d="M56.8706 179.665C56.9102 179.606 56.9464 179.545 56.979 179.483C56.857 179.624 56.8367 179.658 56.9045 179.57L56.979 179.496L57.1281 179.342C56.8435 179.51 57.25 179.214 57.1281 179.342L57.3178 179.234C57.5143 179.113 57.2704 179.234 57.25 179.234C57.2975 179.153 57.6769 179.126 57.7717 179.113C58.1477 179.011 58.4701 178.771 58.6729 178.44C58.8753 178.092 58.9313 177.679 58.8287 177.29C58.7093 176.914 58.4504 176.597 58.1045 176.403C57.7585 176.21 57.3513 176.154 56.9655 176.247C56.4003 176.344 55.864 176.565 55.3953 176.893C54.9265 177.221 54.5372 177.648 54.2553 178.144C54.0617 178.487 54.0115 178.892 54.1155 179.271C54.2194 179.651 54.4692 179.974 54.8111 180.173C55.1529 180.371 55.5595 180.428 55.9434 180.332C56.3273 180.236 56.6578 179.994 56.8638 179.658L56.8706 179.665Z" fill="white"/>
<path d="M75.724 182.797C77.6618 182.797 77.6686 179.797 75.724 179.797C73.7795 179.797 73.7795 182.797 75.724 182.797Z" fill="white"/>
<path d="M84.3716 159.271C84.1568 159.85 84.1214 160.48 84.2699 161.079C84.4184 161.678 84.7441 162.22 85.205 162.634C85.3425 162.784 85.5093 162.906 85.6954 162.99C85.8814 163.075 86.0828 163.121 86.2873 163.126C86.4918 163.131 86.6952 163.094 86.8851 163.019C87.0751 162.943 87.2476 162.83 87.3923 162.687C87.5369 162.543 87.6507 162.372 87.7267 162.183C87.8027 161.995 87.8393 161.793 87.8344 161.59C87.8294 161.387 87.783 161.187 87.6979 161.002C87.6128 160.817 87.4908 160.652 87.3393 160.515L87.1835 160.374C87.3122 160.542 87.3257 160.562 87.2377 160.428C87.1496 160.293 87.1631 160.307 87.2377 160.508L87.1767 160.307C87.1767 160.145 87.1767 160.172 87.1767 160.401C87.1767 160.333 87.1767 160.259 87.1767 160.192C87.136 160.421 87.1428 160.455 87.1767 160.286C87.1956 160.221 87.2205 160.158 87.2512 160.098C87.3571 159.714 87.3053 159.305 87.1071 158.959C86.9089 158.614 86.5805 158.36 86.1942 158.255C85.8093 158.162 85.403 158.218 85.0582 158.411C84.7133 158.605 84.4557 158.922 84.3378 159.298L84.3716 159.271Z" fill="white"/>
<path d="M92.3789 155.5L92.4398 155.251C92.3992 155.211 92.5279 154.969 92.4398 155.251C92.4805 155.292 92.5482 155.056 92.5686 155.022L92.6228 154.935C92.686 154.85 92.6589 154.883 92.5415 155.036C92.6431 154.989 92.7854 154.78 92.8667 154.7C92.616 154.841 92.948 154.619 92.8667 154.7C92.9548 154.652 93.0429 154.592 93.1377 154.552C93.4732 154.35 93.717 154.027 93.818 153.651C93.9191 153.275 93.8695 152.874 93.6798 152.534C93.4703 152.198 93.1392 151.955 92.7546 151.855C92.3701 151.755 91.9616 151.805 91.6132 151.995C91.0824 152.261 90.6174 152.64 90.2518 153.105C89.8863 153.57 89.6293 154.11 89.4993 154.686C89.4468 154.876 89.4324 155.074 89.4569 155.269C89.4815 155.464 89.5445 155.652 89.6423 155.823C89.7401 155.994 89.8709 156.144 90.0271 156.264C90.1834 156.385 90.362 156.474 90.5529 156.526C90.7437 156.578 90.9431 156.592 91.1395 156.568C91.3359 156.544 91.5255 156.481 91.6976 156.384C91.8697 156.287 92.0208 156.157 92.1424 156.002C92.2639 155.847 92.3535 155.669 92.406 155.48L92.3789 155.5Z" fill="white"/>
<path d="M101.632 155.669C101.985 153.039 104.383 151.512 106.917 151.687C108.855 151.821 108.848 148.828 106.917 148.693C102.56 148.384 99.1795 151.498 98.6171 155.669C98.3597 157.573 101.375 157.552 101.632 155.669Z" fill="white"/>
<path d="M127.827 181.005C128.099 180.072 128.554 179.203 129.167 178.446C129.78 177.69 130.538 177.062 131.398 176.599C133.091 175.657 131.574 173.074 129.873 174.016C127.464 175.352 125.683 177.578 124.92 180.211C124.371 182.061 127.278 182.855 127.827 181.005Z" fill="white"/>
<path d="M134.771 176.103C136.715 176.103 136.715 173.109 134.771 173.109C132.826 173.109 132.826 176.103 134.771 176.103Z" fill="white"/>
<path d="M141.278 145.676C140.264 146.356 139.49 147.334 139.063 148.472C138.637 149.611 138.58 150.853 138.899 152.026C139.374 153.889 142.287 153.102 141.813 151.225C141.655 150.696 141.664 150.132 141.84 149.609C142.016 149.085 142.349 148.628 142.795 148.299C143.125 148.092 143.363 147.769 143.463 147.395C143.564 147.021 143.519 146.623 143.337 146.281C143.134 145.948 142.809 145.706 142.43 145.606C142.051 145.505 141.648 145.554 141.305 145.743L141.278 145.676Z" fill="white"/>
<path d="M144.464 143.283C146.408 143.283 146.408 140.289 144.464 140.289C142.519 140.289 142.526 143.283 144.464 143.283Z" fill="white"/>
<path d="M110.44 182.771C112.256 182.098 111.477 179.232 109.641 179.885C107.01 180.796 104.847 182.697 103.617 185.179H107.1C107.964 184.082 109.122 183.247 110.44 182.771Z" fill="white"/>
<g opacity="0.8">
<path d="M121.779 110.119C124.185 110.119 126.135 108.183 126.135 105.794C126.135 103.405 124.185 101.469 121.779 101.469C119.372 101.469 117.422 103.405 117.422 105.794C117.422 108.183 119.372 110.119 121.779 110.119Z" fill="#E6FBFC"/>
<path d="M122.232 104.58C122.233 104.953 122.123 105.318 121.915 105.628C121.708 105.939 121.412 106.181 121.065 106.325C120.719 106.468 120.337 106.507 119.969 106.435C119.6 106.363 119.262 106.184 118.996 105.921C118.73 105.658 118.548 105.322 118.474 104.957C118.401 104.591 118.438 104.212 118.581 103.867C118.725 103.523 118.968 103.228 119.28 103.021C119.592 102.814 119.959 102.703 120.335 102.703C120.837 102.703 121.318 102.901 121.674 103.252C122.029 103.604 122.23 104.082 122.232 104.58Z" fill="white"/>
</g>
<g opacity="0.8">
<path d="M142.088 93.6774C143.801 93.6774 145.191 92.2981 145.191 90.5965C145.191 88.895 143.801 87.5156 142.088 87.5156C140.374 87.5156 138.984 88.895 138.984 90.5965C138.984 92.2981 140.374 93.6774 142.088 93.6774Z" fill="#E6FBFC"/>
<path d="M142.405 89.736C142.405 90.0021 142.326 90.2622 142.177 90.4834C142.028 90.7047 141.817 90.8771 141.569 90.979C141.321 91.0808 141.049 91.1074 140.786 91.0555C140.523 91.0036 140.282 90.8755 140.092 90.6873C139.903 90.4992 139.774 90.2594 139.721 89.9985C139.669 89.7375 139.696 89.467 139.798 89.2211C139.901 88.9753 140.075 88.7652 140.298 88.6174C140.52 88.4695 140.782 88.3906 141.05 88.3906C141.41 88.3906 141.754 88.5324 142.009 88.7847C142.263 89.037 142.405 89.3792 142.405 89.736Z" fill="white"/>
</g>
<g opacity="0.8">
<path d="M136.455 103.714C136.456 104.104 136.341 104.486 136.124 104.811C135.906 105.136 135.597 105.39 135.234 105.54C134.871 105.69 134.472 105.73 134.086 105.655C133.701 105.58 133.347 105.392 133.068 105.117C132.79 104.842 132.6 104.49 132.523 104.108C132.446 103.725 132.485 103.329 132.635 102.968C132.785 102.608 133.039 102.3 133.366 102.083C133.693 101.866 134.077 101.75 134.47 101.75C134.995 101.75 135.499 101.957 135.871 102.325C136.243 102.693 136.453 103.193 136.455 103.714Z" fill="#E6FBFC"/>
<path d="M133.814 104.021C134.289 104.021 134.674 103.639 134.674 103.167C134.674 102.695 134.289 102.312 133.814 102.312C133.338 102.312 132.953 102.695 132.953 103.167C132.953 103.639 133.338 104.021 133.814 104.021Z" fill="white"/>
</g>
<path d="M163.256 80.6619C166.113 79.4802 167.463 76.2232 166.273 73.3871C165.083 70.551 161.802 69.2099 158.946 70.3916C156.089 71.5733 154.738 74.8303 155.929 77.6664C157.119 80.5025 160.399 81.8436 163.256 80.6619Z" fill="#E6FBFC"/>
<path d="M159.244 76.3902C160.591 76.3902 161.683 75.306 161.683 73.9685C161.683 72.6311 160.591 71.5469 159.244 71.5469C157.897 71.5469 156.805 72.6311 156.805 73.9685C156.805 75.306 157.897 76.3902 159.244 76.3902Z" fill="white"/>
<path d="M170.414 89.736C170.414 90.4428 170.203 91.1337 169.807 91.7212C169.412 92.3088 168.85 92.7666 168.192 93.0367C167.534 93.3069 166.81 93.3772 166.112 93.2389C165.414 93.1005 164.773 92.7596 164.27 92.2594C163.767 91.7592 163.425 91.1221 163.287 90.4288C163.149 89.7354 163.221 89.017 163.495 88.3644C163.768 87.7119 164.23 87.1545 164.823 86.7628C165.415 86.3711 166.111 86.1627 166.823 86.1641C167.295 86.1641 167.763 86.2565 168.199 86.4361C168.635 86.6157 169.031 86.8789 169.365 87.2107C169.698 87.5425 169.963 87.9363 170.143 88.3696C170.323 88.8029 170.415 89.2673 170.414 89.736Z" fill="#E6FBFC"/>
<path d="M167.201 88.7414C167.201 89.0487 167.109 89.3492 166.937 89.6047C166.765 89.8602 166.52 90.0594 166.234 90.177C165.948 90.2946 165.634 90.3254 165.33 90.2654C165.026 90.2055 164.748 90.0575 164.529 89.8402C164.31 89.6229 164.161 89.346 164.1 89.0446C164.04 88.7431 164.071 88.4307 164.189 88.1467C164.308 87.8628 164.509 87.6201 164.766 87.4494C165.023 87.2786 165.326 87.1875 165.635 87.1875C166.051 87.1875 166.449 87.3512 166.742 87.6426C167.036 87.934 167.201 88.3293 167.201 88.7414Z" fill="white"/>
<path d="M20.1532 126.839C23.1243 126.839 25.5329 124.447 25.5329 121.497C25.5329 118.548 23.1243 116.156 20.1532 116.156C17.182 116.156 14.7734 118.548 14.7734 121.497C14.7734 124.447 17.182 126.839 20.1532 126.839Z" fill="#E6FBFC"/>
<path d="M20.714 120.013C20.7194 120.473 20.5868 120.924 20.3333 121.309C20.0797 121.694 19.7165 121.996 19.2899 122.176C18.8633 122.356 18.3925 122.405 17.9373 122.319C17.482 122.232 17.063 122.014 16.7334 121.69C16.4038 121.367 16.1784 120.953 16.086 120.502C15.9936 120.051 16.0383 119.583 16.2144 119.158C16.3905 118.732 16.69 118.368 17.075 118.112C17.46 117.856 17.913 117.719 18.3764 117.719C18.9923 117.717 19.5838 117.957 20.0218 118.387C20.4598 118.817 20.7086 119.401 20.714 120.013Z" fill="white"/>
<path d="M18.3752 132.775C18.3752 133.482 18.1641 134.173 17.7684 134.76C17.3728 135.348 16.8105 135.806 16.1527 136.076C15.4949 136.346 14.7712 136.416 14.0731 136.278C13.375 136.14 12.7339 135.799 12.2311 135.298C11.7282 134.798 11.386 134.161 11.248 133.468C11.1099 132.774 11.1822 132.056 11.4555 131.403C11.7288 130.751 12.191 130.194 12.7836 129.802C13.3761 129.41 14.0724 129.202 14.7842 129.203C15.2564 129.203 15.7239 129.296 16.16 129.475C16.5961 129.655 16.9923 129.918 17.3259 130.25C17.6594 130.582 17.9238 130.975 18.1038 131.409C18.2839 131.842 18.3761 132.306 18.3752 132.775Z" fill="#E6FBFC"/>
<path d="M15.1537 131.78C15.1537 132.088 15.0619 132.388 14.8899 132.644C14.718 132.899 14.4735 133.098 14.1875 133.216C13.9015 133.334 13.5868 133.364 13.2832 133.305C12.9796 133.245 12.7007 133.097 12.4819 132.879C12.263 132.662 12.1139 132.385 12.0535 132.084C11.9931 131.782 12.0241 131.47 12.1426 131.186C12.261 130.902 12.4616 130.659 12.719 130.488C12.9764 130.318 13.279 130.227 13.5886 130.227C14.0037 130.227 14.4018 130.39 14.6953 130.682C14.9888 130.973 15.1537 131.368 15.1537 131.78Z" fill="white"/>
<path d="M13.5912 147.063C13.5925 147.37 13.5019 147.672 13.3307 147.928C13.1596 148.184 12.9156 148.385 12.6297 148.503C12.3438 148.622 12.0289 148.654 11.7249 148.594C11.4208 148.535 11.1413 148.388 10.9218 148.171C10.7022 147.954 10.5525 147.677 10.4915 147.375C10.4306 147.074 10.4612 146.761 10.5794 146.476C10.6977 146.192 10.8983 145.949 11.1558 145.778C11.4133 145.607 11.7162 145.516 12.0261 145.516C12.2313 145.515 12.4346 145.554 12.6245 145.631C12.8143 145.709 12.9869 145.823 13.1324 145.966C13.2778 146.11 13.3932 146.281 13.4719 146.469C13.5507 146.657 13.5912 146.859 13.5912 147.063Z" fill="#E6FBFC"/>
<path d="M12.1988 146.649C12.1988 146.782 12.1591 146.912 12.0847 147.023C12.0102 147.134 11.9044 147.22 11.7806 147.271C11.6568 147.322 11.5205 147.335 11.3891 147.309C11.2577 147.283 11.137 147.219 11.0422 147.125C10.9474 147.031 10.8829 146.911 10.8568 146.78C10.8306 146.65 10.844 146.515 10.8953 146.392C10.9466 146.269 11.0335 146.164 11.1449 146.09C11.2563 146.016 11.3873 145.977 11.5213 145.977C11.701 145.977 11.8733 146.047 12.0004 146.174C12.1275 146.3 12.1988 146.471 12.1988 146.649Z" fill="white"/>
<path d="M29.0618 95.0688C32.6728 95.0688 35.6001 92.1625 35.6001 88.5774C35.6001 84.9922 32.6728 82.0859 29.0618 82.0859C25.4507 82.0859 22.5234 84.9922 22.5234 88.5774C22.5234 92.1625 25.4507 95.0688 29.0618 95.0688Z" fill="#E6FBFC"/>
<path d="M26.8926 89.5959C28.4642 89.5959 29.7383 88.331 29.7383 86.7706C29.7383 85.2102 28.4642 83.9453 26.8926 83.9453C25.3209 83.9453 24.0469 85.2102 24.0469 86.7706C24.0469 88.331 25.3209 89.5959 26.8926 89.5959Z" fill="white"/>
<path d="M39.629 72.3705C41.616 72.3705 43.2268 70.7713 43.2268 68.7985C43.2268 66.8258 41.616 65.2266 39.629 65.2266C37.642 65.2266 36.0312 66.8258 36.0312 68.7985C36.0312 70.7713 37.642 72.3705 39.629 72.3705Z" fill="#E6FBFC"/>
<path d="M39.974 67.805C39.9753 68.1126 39.8847 68.4137 39.7135 68.6701C39.5424 68.9266 39.2984 69.1268 39.0125 69.2454C38.7267 69.3641 38.4118 69.3958 38.1077 69.3366C37.8037 69.2774 37.5241 69.1299 37.3046 68.9129C37.085 68.6958 36.9353 68.419 36.8743 68.1174C36.8134 67.8158 36.844 67.503 36.9622 67.2186C37.0805 66.9343 37.2811 66.6912 37.5386 66.5202C37.7962 66.3491 38.099 66.2578 38.4089 66.2578C38.6141 66.2569 38.8175 66.2963 39.0073 66.3737C39.1972 66.451 39.3698 66.5648 39.5152 66.7086C39.6606 66.8524 39.776 67.0232 39.8547 67.2114C39.9335 67.3995 39.974 67.6013 39.974 67.805Z" fill="white"/>
<path d="M48.6034 84.6601C48.6034 85.2205 48.4359 85.7684 48.1222 86.2342C47.8084 86.7001 47.3626 87.0631 46.8409 87.2772C46.3193 87.4914 45.7454 87.5471 45.1919 87.4372C44.6384 87.3274 44.1302 87.057 43.7315 86.6603C43.3329 86.2635 43.0617 85.7583 42.9524 85.2085C42.8431 84.6587 42.9006 84.0891 43.1175 83.5717C43.3345 83.0543 43.7011 82.6125 44.1711 82.3021C44.6411 81.9918 45.1932 81.8268 45.7577 81.8281C46.132 81.8281 46.5026 81.9014 46.8483 82.0438C47.194 82.1862 47.508 82.395 47.7723 82.658C48.0366 82.9211 48.2461 83.2333 48.3887 83.5769C48.5313 83.9204 48.6043 84.2886 48.6034 84.6601Z" fill="#E6FBFC"/>
<path d="M46.0736 83.8638C46.0736 84.1073 46.0009 84.3453 45.8646 84.5477C45.7284 84.7502 45.5347 84.908 45.3082 85.0011C45.0816 85.0943 44.8323 85.1187 44.5918 85.0712C44.3513 85.0237 44.1303 84.9064 43.9569 84.7343C43.7835 84.5621 43.6654 84.3428 43.6176 84.104C43.5697 83.8652 43.5943 83.6177 43.6881 83.3927C43.782 83.1678 43.9409 82.9755 44.1448 82.8403C44.3487 82.705 44.5884 82.6328 44.8337 82.6328C45.1625 82.6328 45.4779 82.7625 45.7104 82.9934C45.9429 83.2242 46.0736 83.5373 46.0736 83.8638Z" fill="white"/>
</g>
<defs>
<clipPath id="clip0_1473_13070">
<rect width="181" height="263" fill="white"/>
</clipPath>
</defs>
</svg>
