<svg width="37" height="36" viewBox="0 0 37 36" fill="none" xmlns="http://www.w3.org/2000/svg">
<path d="M5.68421 0H17.0526C20.1979 0 22.7368 2.53895 22.7368 5.68421V13.2632H20.8421V5.68421C20.8421 3.6 19.1368 1.89474 17.0526 1.89474H5.68421C3.6 1.89474 1.89474 3.6 1.89474 5.68421V30.3158C1.89474 32.4 3.6 34.1053 5.68421 34.1053H17.0526C19.1368 34.1053 20.8421 32.4 20.8421 30.3158V22.7368H22.7368V30.3158C22.7368 33.4611 20.1979 36 17.0526 36H5.68421C2.53895 36 0 33.4611 0 30.3158V5.68421C0 2.53895 2.53895 0 5.68421 0ZM11.3684 17.0526H32.6842L26.5263 10.8947L27.7768 9.47368L36.3032 18L27.7768 26.5263L26.5263 25.1053L32.6842 18.9474H11.3684V17.0526Z" fill="white"/>
</svg>
