<svg width="98" height="56" viewBox="0 0 98 56" fill="none" xmlns="http://www.w3.org/2000/svg">
<g clip-path="url(#clip0_2101_1409)">
<path d="M14.5525 9.16445C14.5667 9.08116 14.5948 9.00085 14.6356 8.92687C14.7112 8.7891 14.8254 8.67639 14.9641 8.60254C15.1029 8.5287 15.2601 8.49692 15.4167 8.51111C15.592 8.53353 15.755 8.61371 15.8797 8.73901C16.0045 8.8643 16.084 9.02757 16.1056 9.20305C16.1201 9.31088 16.1121 9.42055 16.0821 9.52513C16.0521 9.62971 16.0007 9.72693 15.9312 9.81065C15.8618 9.89437 15.7757 9.96277 15.6784 10.0115C15.5811 10.0603 15.4748 10.0884 15.3662 10.094C15.2555 10.1031 15.1443 10.0865 15.0412 10.0452C14.9381 10.004 14.846 9.93934 14.7722 9.85639C14.6891 9.76294 14.6265 9.65303 14.5887 9.53382C14.5508 9.4146 14.5385 9.28875 14.5525 9.16445Z" fill="white"/>
<path d="M28.1321 11.6658C27.7897 9.77321 27.0659 7.97004 26.0047 6.36592C24.9436 4.76181 23.5673 3.39028 21.9595 2.33472C20.3517 1.27916 18.5461 0.561626 16.6523 0.225754C14.7585 -0.110119 12.8162 -0.0573147 10.9435 0.380955C4.50816 1.90144 0.0684688 7.49635 0.00016576 14.2108V32.6972C-0.010795 34.2179 0.522151 35.6925 1.50283 36.8548C2.96095 38.6366 4.88235 39.6463 7.07695 40.1808C7.70356 40.3353 8.35392 40.3887 9.03101 40.4927V39.97C9.04883 36.4895 9.04883 33.012 9.09041 29.5315C9.08002 28.8276 9.22716 28.1302 9.52107 27.4905C9.81498 26.8508 10.2482 26.2849 10.7891 25.8342C11.7557 24.9766 12.5841 23.9749 13.245 22.8645C13.934 21.7747 14.617 20.6788 14.9259 19.4108C15.0401 18.8727 15.2918 18.3734 15.6564 17.9616C16.0781 17.5102 16.5473 17.0885 16.9957 16.6786C17.1118 16.586 17.2035 16.4664 17.263 16.3304C17.3225 16.1943 17.348 16.0457 17.3373 15.8976C17.3333 15.6143 17.3531 15.3312 17.3967 15.0513C17.456 14.6058 17.162 14.0445 16.7077 13.9703C16.1057 13.8276 15.5403 13.5605 15.0476 13.1863C14.4872 12.8339 13.821 12.6889 13.1648 12.7765C12.8433 12.7944 12.5247 12.8472 12.2145 12.9339C11.4424 13.1863 10.9019 12.8834 10.4535 12.2865C10.2813 12.0578 10.0912 11.838 9.91598 11.6123C9.81098 11.5005 9.72203 11.3745 9.65168 11.2382C9.54329 11.4269 9.45376 11.6258 9.38441 11.8321C9.27156 12.4884 9.1498 13.1447 9.08744 13.807C9.07022 14.7554 8.73681 15.671 8.14011 16.4084C7.86775 16.7037 7.53708 16.9393 7.16901 17.1003C6.76514 17.2874 6.61962 17.1954 6.4652 16.7767C6.37014 16.5403 6.31785 16.2889 6.31077 16.0342C6.32859 14.882 6.36621 13.7307 6.42362 12.5805C6.45411 11.7904 6.67958 11.0202 7.07992 10.3383C8.07477 8.6575 9.61604 7.73392 11.4365 7.20829C13.2569 6.68265 14.9704 6.79847 16.58 7.85271C16.7582 7.96853 16.9512 8.0695 17.1383 8.17344C17.6664 8.48094 18.2817 8.60421 18.8874 8.52386C19.713 8.41992 20.5445 8.31301 21.3731 8.28629C21.7801 8.24988 22.1862 8.36516 22.5134 8.60998L22.4451 8.71095C22.4298 8.73346 22.4196 8.75908 22.4154 8.78598C22.4111 8.81289 22.4129 8.8404 22.4206 8.86653C22.4283 8.89266 22.4416 8.91677 22.4597 8.93711C22.4778 8.95745 22.5002 8.97353 22.5253 8.98417L22.9381 9.16532C23.0117 9.31986 23.0675 9.48225 23.1044 9.64938C23.161 9.91712 23.1928 10.1895 23.1994 10.4631C23.2117 11.7556 22.9122 13.0319 22.3263 14.1841C21.581 15.7818 20.5802 17.1776 19.0062 18.0655C18.402 18.384 17.9051 18.8736 17.5778 19.4731C16.3369 21.9074 15.8283 24.6492 16.1137 27.3666C16.1672 28.011 16.485 28.1951 17.1294 28.0585C20.7328 27.2895 23.8958 25.1489 25.9492 22.0895C28.0026 19.0301 28.7855 15.292 28.1321 11.6658ZM14.032 13.7208C14.0816 13.6992 14.135 13.6877 14.1891 13.6873C14.2432 13.6868 14.2969 13.6973 14.3468 13.7181C14.3967 13.7389 14.442 13.7696 14.4797 13.8084C14.5175 13.8471 14.547 13.8931 14.5665 13.9436C14.5977 13.9924 14.6184 14.0471 14.6272 14.1044C14.636 14.1616 14.6328 14.2201 14.6177 14.276C14.6026 14.3319 14.576 14.3841 14.5396 14.4291C14.5031 14.4741 14.4577 14.5111 14.4062 14.5375C14.1478 14.7127 13.934 14.5969 13.7677 14.3682C13.7327 14.31 13.7118 14.2445 13.7066 14.1768C13.7014 14.1091 13.712 14.0412 13.7377 13.9783C13.7633 13.9155 13.8033 13.8595 13.8544 13.8148C13.9055 13.7701 13.9663 13.7379 14.032 13.7208Z" fill="white"/>
</g>
<path d="M97.7745 21.9286C97.9388 22.1864 98.0118 22.4627 97.9935 22.7574C97.9935 23.181 97.9205 23.5494 97.7745 23.8625C97.738 23.9545 97.6832 24.0743 97.6102 24.2216C97.5554 24.369 97.4915 24.5255 97.4185 24.6913C97.3637 24.857 97.2998 25.0136 97.2268 25.1609C97.1538 25.3083 97.099 25.4188 97.0625 25.4925L97.0078 25.6306C96.7522 26.2015 96.5058 26.7541 96.2684 27.2882C96.0311 27.8223 95.7664 28.3933 95.4744 29.0011C95.1823 29.5905 94.8993 30.1706 94.6255 30.7416C94.3699 31.2941 94.1144 31.8375 93.8588 32.3716C93.7858 32.5189 93.7219 32.6663 93.6671 32.8136C93.6124 32.9426 93.5394 33.0807 93.4481 33.228L92.1337 36.0736C91.8964 36.5525 91.6682 37.0221 91.4492 37.4826C91.2484 37.9431 91.0202 38.4035 90.7646 38.864C90.7099 38.956 90.6551 39.0389 90.6003 39.1126C90.5638 39.2047 90.5273 39.2968 90.4908 39.3889C90.363 39.6099 90.1713 39.8217 89.9158 40.0243C89.6785 40.2453 89.4229 40.365 89.1491 40.3834C88.6562 40.4203 88.2272 40.2729 87.8621 39.9414C87.643 39.8125 87.4696 39.6283 87.3418 39.3889C87.2688 39.2231 87.2323 39.0113 87.2323 38.7534C87.2506 38.6429 87.2597 38.5324 87.2597 38.4219C87.2779 38.3298 87.2962 38.2377 87.3145 38.1457C87.351 38.0536 87.3783 37.9615 87.3966 37.8694C87.4149 37.7773 87.4422 37.7036 87.4787 37.6484C87.5335 37.501 87.5792 37.4273 87.6157 37.4273L89.6146 33.0623C89.5233 32.8597 89.432 32.6571 89.3407 32.4545C89.2495 32.2335 89.1673 32.0401 89.0943 31.8743C88.857 31.3033 88.6014 30.7048 88.3276 30.0785C88.072 29.4339 87.8073 28.7985 87.5335 28.1723C87.2597 27.5276 86.9767 26.9014 86.6847 26.2936C86.3926 25.6858 86.1005 25.1057 85.8084 24.5531C85.6989 24.369 85.5985 24.1756 85.5072 23.973C85.416 23.752 85.3429 23.5401 85.2882 23.3375C85.2334 23.1165 85.2152 22.8955 85.2334 22.6745C85.2517 22.4535 85.3338 22.2325 85.4798 22.0114C85.6259 21.7352 85.8176 21.5418 86.0549 21.4313C86.2922 21.3023 86.5386 21.2471 86.7942 21.2655C87.068 21.2655 87.3236 21.3208 87.5609 21.4313C87.7982 21.5418 87.9899 21.6891 88.1359 21.8733C88.4463 22.2048 88.6927 22.5732 88.8752 22.9784C89.0578 23.3836 89.2312 23.798 89.3955 24.2216C89.7424 24.9583 90.0983 25.7319 90.4634 26.5423C90.8285 27.3527 91.1936 28.1447 91.5587 28.9182L92.9826 25.8792C93.1286 25.5845 93.2564 25.2991 93.3659 25.0228C93.4937 24.7465 93.6215 24.4795 93.7493 24.2216C93.8953 23.9085 94.0322 23.5862 94.16 23.2547C94.3061 22.9231 94.4703 22.6192 94.6529 22.343C94.6894 22.2693 94.7259 22.2048 94.7624 22.1496C94.7989 22.0943 94.8354 22.0299 94.872 21.9562C95.0362 21.7352 95.1823 21.5602 95.3101 21.4313C95.4013 21.3576 95.4744 21.3023 95.5291 21.2655C95.6021 21.2103 95.6843 21.1734 95.7756 21.155C95.9033 21.1182 96.022 21.0998 96.1315 21.0998C96.2593 21.0813 96.378 21.0813 96.4875 21.0998C96.6701 21.155 96.8891 21.2379 97.1447 21.3484C97.4185 21.4589 97.6284 21.6523 97.7745 21.9286Z" fill="white"/>
<path d="M82.6338 21.9286C82.7981 22.1864 82.8712 22.4627 82.8529 22.7574C82.8529 23.181 82.7799 23.5494 82.6338 23.8625C82.5973 23.9545 82.5426 24.0743 82.4695 24.2216C82.4148 24.369 82.3509 24.5255 82.2779 24.6913C82.2231 24.857 82.1592 25.0136 82.0862 25.1609C82.0132 25.3083 81.9584 25.4188 81.9219 25.4925L81.8671 25.6306C81.6116 26.2015 81.3651 26.7541 81.1278 27.2882C80.8905 27.8223 80.6258 28.3933 80.3337 29.0011C80.0417 29.5905 79.7587 30.1706 79.4849 30.7416C79.2293 31.2941 78.9737 31.8375 78.7182 32.3716C78.6452 32.5189 78.5813 32.6663 78.5265 32.8136C78.4717 32.9426 78.3987 33.0807 78.3075 33.228L76.9931 36.0736C76.7558 36.5525 76.5276 37.0221 76.3086 37.4826C76.1077 37.9431 75.8796 38.4035 75.624 38.864C75.5692 38.956 75.5145 39.0389 75.4597 39.1126C75.4232 39.2047 75.3867 39.2968 75.3502 39.3889C75.2224 39.6099 75.0307 39.8217 74.7751 40.0243C74.5378 40.2453 74.2823 40.365 74.0084 40.3834C73.5156 40.4203 73.0866 40.2729 72.7215 39.9414C72.5024 39.8125 72.329 39.6283 72.2012 39.3889C72.1282 39.2231 72.0917 39.0113 72.0917 38.7534C72.1099 38.6429 72.1191 38.5324 72.1191 38.4219C72.1373 38.3298 72.1556 38.2377 72.1738 38.1457C72.2103 38.0536 72.2377 37.9615 72.256 37.8694C72.2742 37.7773 72.3016 37.7036 72.3381 37.6484C72.3929 37.501 72.4385 37.4273 72.475 37.4273L74.4739 33.0623C74.3827 32.8597 74.2914 32.6571 74.2001 32.4545C74.1088 32.2335 74.0267 32.0401 73.9537 31.8743C73.7164 31.3033 73.4608 30.7048 73.187 30.0785C72.9314 29.4339 72.6667 28.7985 72.3929 28.1723C72.1191 27.5276 71.8361 26.9014 71.544 26.2936C71.252 25.6858 70.9599 25.1057 70.6678 24.5531C70.5583 24.369 70.4579 24.1756 70.3666 23.973C70.2753 23.752 70.2023 23.5401 70.1475 23.3375C70.0928 23.1165 70.0745 22.8955 70.0928 22.6745C70.111 22.4535 70.1932 22.2325 70.3392 22.0114C70.4853 21.7352 70.6769 21.5418 70.9143 21.4313C71.1516 21.3023 71.398 21.2471 71.6536 21.2655C71.9274 21.2655 72.183 21.3208 72.4203 21.4313C72.6576 21.5418 72.8493 21.6891 72.9953 21.8733C73.3056 22.2048 73.5521 22.5732 73.7346 22.9784C73.9172 23.3836 74.0906 23.798 74.2549 24.2216C74.6017 24.9583 74.9577 25.7319 75.3228 26.5423C75.6879 27.3527 76.053 28.1447 76.4181 28.9182L77.8419 25.8792C77.988 25.5845 78.1158 25.2991 78.2253 25.0228C78.3531 24.7465 78.4809 24.4795 78.6087 24.2216C78.7547 23.9085 78.8916 23.5862 79.0194 23.2547C79.1654 22.9231 79.3297 22.6192 79.5123 22.343C79.5488 22.2693 79.5853 22.2048 79.6218 22.1496C79.6583 22.0943 79.6948 22.0299 79.7313 21.9562C79.8956 21.7352 80.0417 21.5602 80.1694 21.4313C80.2607 21.3576 80.3337 21.3023 80.3885 21.2655C80.4615 21.2103 80.5437 21.1734 80.6349 21.155C80.7627 21.1182 80.8814 21.0998 80.9909 21.0998C81.1187 21.0813 81.2374 21.0813 81.3469 21.0998C81.5294 21.155 81.7485 21.2379 82.0041 21.3484C82.2779 21.4589 82.4878 21.6523 82.6338 21.9286Z" fill="white"/>
<path d="M67.6593 32.0373C67.6417 32.129 67.6241 32.2206 67.6065 32.3123C67.6065 32.3856 67.6065 32.4681 67.6065 32.5598L67.4481 33.1372C67.4129 33.2105 67.3865 33.2563 67.3689 33.2747L67.2897 33.4397C67.2017 33.6413 67.0433 33.8063 66.8146 33.9346C66.3922 34.1546 65.9435 34.2096 65.4683 34.0996C65.1691 34.0629 64.9316 33.9713 64.7556 33.8246C64.5796 33.6963 64.4564 33.5405 64.386 33.3572C64.3156 33.1739 64.2628 32.9905 64.2276 32.8072C64.1748 32.6239 64.1484 32.4589 64.1484 32.3123V16.9139C64.1484 16.7855 64.1484 16.6755 64.1484 16.5839C64.166 16.4739 64.1836 16.3731 64.2012 16.2814C64.2188 16.1531 64.2364 16.0431 64.254 15.9515C64.2892 15.8598 64.3244 15.759 64.3596 15.649C64.4124 15.4657 64.5092 15.319 64.65 15.209C64.8612 15.044 65.0635 14.9524 65.2571 14.9341C65.3803 14.8974 65.4947 14.8791 65.6003 14.8791C65.7059 14.8607 65.8291 14.8516 65.9699 14.8516C66.2162 14.8516 66.4978 14.9249 66.8146 15.0715C67.0609 15.2182 67.2369 15.4198 67.3425 15.6765C67.5185 16.0431 67.6065 16.3822 67.6065 16.6939C67.6241 16.8772 67.6329 17.1522 67.6329 17.5188C67.6505 17.8854 67.6593 18.1604 67.6593 18.3437V18.4537C67.6945 19.0403 67.7121 19.6086 67.7121 20.1585C67.7121 20.6901 67.7033 21.2767 67.6857 21.9183C67.6857 22.5416 67.6769 23.1465 67.6593 23.7332C67.6593 24.3014 67.6593 24.8697 67.6593 25.438V31.2124C67.6593 31.2857 67.6593 31.359 67.6593 31.4324C67.6769 31.4874 67.6857 31.5515 67.6857 31.6248C67.6857 31.8082 67.6769 31.9457 67.6593 32.0373Z" fill="white"/>
<path d="M61.5687 23.7545C61.5687 24.272 61.5687 24.8543 61.5687 25.5012C61.588 26.1482 61.5977 26.8228 61.5977 27.5252C61.5977 28.2092 61.5977 28.8931 61.5977 29.577C61.5977 30.2424 61.588 30.8616 61.5687 31.4346C61.5493 31.7119 61.5202 32.0169 61.4815 32.3496C61.4427 32.6638 61.3652 32.9596 61.2489 33.2369C61.1327 33.5141 60.9486 33.7452 60.6967 33.93C60.4641 34.0964 60.1444 34.1703 59.7375 34.1518C59.1367 34.1149 58.7007 33.8653 58.4295 33.4032C58.1775 32.9411 58.0322 32.2942 57.9935 31.4624C57.9935 31.0372 57.9838 30.5474 57.9644 29.9929C57.9644 29.4384 57.9547 28.8746 57.9353 28.3016C57.9353 27.7286 57.9353 27.174 57.9353 26.638C57.9353 26.0835 57.9353 25.5844 57.9353 25.1408C57.9353 24.882 57.9256 24.5678 57.9062 24.1981C57.9062 23.8284 57.9159 23.4495 57.9353 23.0613C57.9547 22.6731 58.0031 22.3035 58.0807 21.9523C58.1582 21.5826 58.2841 21.2776 58.4585 21.0373C58.5942 20.8894 58.7879 20.7785 59.0399 20.7046C59.2918 20.6122 59.5534 20.5659 59.8247 20.5659C60.1153 20.5659 60.3866 20.6122 60.6385 20.7046C60.9098 20.797 61.1036 20.9264 61.2199 21.0927C61.2974 21.2037 61.3555 21.3608 61.3943 21.5641C61.433 21.7674 61.4621 21.9985 61.4815 22.2572C61.5202 22.4975 61.5396 22.7563 61.5396 23.0336C61.559 23.2924 61.5687 23.5327 61.5687 23.7545ZM60.4641 18.1538C59.8634 18.3016 59.3596 18.2462 58.9527 17.9874C58.5651 17.7101 58.3229 17.3035 58.226 16.7674C58.1485 16.3793 58.1775 16.0373 58.3132 15.7416C58.4488 15.4458 58.6523 15.224 58.9236 15.0761C59.1949 14.9098 59.5049 14.8359 59.8537 14.8543C60.2025 14.8728 60.5513 15.0022 60.9001 15.2425C61.2296 15.4643 61.4621 15.7231 61.5977 16.0188C61.7528 16.3146 61.8012 16.6011 61.7431 16.8784C61.7043 17.1556 61.5784 17.4144 61.3652 17.6547C61.152 17.8765 60.8517 18.0429 60.4641 18.1538Z" fill="white"/>
<path d="M55.7782 27.8287C55.8146 28.4061 55.8329 28.9564 55.8329 29.4796C55.8329 29.9848 55.8146 30.5261 55.7782 31.1034C55.7782 31.3199 55.7782 31.5635 55.7782 31.8341C55.7782 32.1048 55.7599 32.3664 55.7235 32.619C55.687 32.8716 55.6232 33.1061 55.5321 33.3226C55.4409 33.5392 55.3042 33.7106 55.1219 33.8369C54.9031 33.9812 54.657 34.0804 54.3836 34.1346C54.1101 34.1706 53.8549 34.1526 53.6179 34.0804C53.3809 34.0083 53.1713 33.8729 52.9889 33.6745C52.8249 33.476 52.7337 33.1964 52.7155 32.8355C52.6608 32.0055 52.6335 31.1756 52.6335 30.3456C52.6335 29.9306 52.6243 29.5337 52.6061 29.1548C52.6061 28.7759 52.6152 28.2437 52.6335 27.5581C52.6335 27.2152 52.6061 26.8273 52.5514 26.3943C52.4967 25.9432 52.36 25.6275 52.1412 25.4471C51.9772 25.3027 51.7949 25.2215 51.5943 25.2035C51.3938 25.1674 51.1933 25.1855 50.9927 25.2576C50.8104 25.3298 50.6464 25.4651 50.5005 25.6636C50.3547 25.844 50.2544 26.0786 50.1997 26.3672C50.1997 26.6018 50.1906 26.8454 50.1724 27.098C50.1724 27.3325 50.1815 27.5581 50.1997 27.7746C50.218 28.3519 50.2271 28.9022 50.2271 29.4255C50.2271 29.9306 50.218 30.4719 50.1997 31.0493C50.1815 31.2838 50.1724 31.5364 50.1724 31.8071C50.1906 32.0777 50.1906 32.3483 50.1724 32.619C50.1542 32.8716 50.0995 33.1061 50.0083 33.3226C49.9354 33.5392 49.7987 33.7106 49.5981 33.8369C49.3794 33.9812 49.1424 34.0714 48.8872 34.1075C48.6502 34.1255 48.4223 34.0895 48.2035 33.9992C48.003 33.891 47.8207 33.7286 47.6566 33.5121C47.5108 33.2956 47.4287 33.0069 47.4105 32.6461C47.3741 32.2311 47.3467 31.8522 47.3285 31.5094C47.3285 31.1485 47.3285 30.7696 47.3285 30.3727C47.3285 29.9577 47.3376 29.5337 47.3558 29.1007C47.3741 28.6496 47.3649 28.2166 47.3285 27.8016C47.3285 27.6753 47.3194 27.531 47.3011 27.3686C47.3011 27.1882 47.292 27.0078 47.2738 26.8273C47.2738 26.6469 47.2556 26.4755 47.2191 26.3131C47.2009 26.1327 47.1644 25.9884 47.1097 25.8801C46.9639 25.6275 46.6995 25.4651 46.3167 25.393C45.9521 25.3208 45.6422 25.3478 45.387 25.4741C45.1317 25.6004 44.9403 25.7628 44.8127 25.9613C44.6851 26.1598 44.594 26.3763 44.5393 26.6108C44.4846 26.8454 44.4572 27.098 44.4572 27.3686C44.4572 27.6212 44.4572 27.8648 44.4572 28.0993C44.4572 29.2721 44.4572 30.2915 44.4572 31.1575C44.4755 32.0055 44.3843 32.6912 44.1838 33.2144C44.0926 33.485 43.9012 33.6925 43.6095 33.8369C43.3361 33.9812 43.0353 34.0534 42.7071 34.0534C42.3972 34.0534 42.1055 33.9812 41.8321 33.8369C41.5586 33.6925 41.3763 33.467 41.2852 33.1603C41.2305 32.9618 41.1758 32.6821 41.1211 32.3213C41.0846 31.9424 41.0573 31.5274 41.0391 31.0764C41.0208 30.6253 41.0117 30.1742 41.0117 29.7232C41.0117 29.2541 41.0117 28.8301 41.0117 28.4512V24.554C40.9935 24.139 40.9844 23.6879 40.9844 23.2008C40.9844 22.7136 41.0573 22.2716 41.2031 21.8747C41.3307 21.5318 41.5313 21.3153 41.8047 21.2251C42.0782 21.1169 42.3608 21.0718 42.6524 21.0898C42.9806 21.0898 43.2358 21.18 43.4181 21.3604C43.6186 21.5228 43.7645 21.7303 43.8556 21.9829C43.9468 22.2175 44.0015 22.4881 44.0197 22.7948C44.0379 23.0835 44.0562 23.3632 44.0744 23.6338C44.2749 23.1827 44.5119 22.8129 44.7854 22.5242C45.0771 22.2175 45.4872 22.019 46.0159 21.9288C47.3649 21.6762 48.4405 22.019 49.2426 22.9572C49.6073 22.5964 50.0721 22.2987 50.6373 22.0641C51.0748 21.9017 51.5214 21.8295 51.9772 21.8476C52.4329 21.8476 52.8613 21.9288 53.2624 22.0912C53.6817 22.2535 54.0554 22.4881 54.3836 22.7948C54.7299 23.1015 55.0034 23.4714 55.2039 23.9044C55.4774 24.4818 55.6323 25.1223 55.6688 25.826C55.7052 26.5296 55.7417 27.1972 55.7782 27.8287Z" fill="white"/>
<path d="M36.6689 30.4996C36.8908 30.4448 37.1128 30.4083 37.3347 30.3901C37.5752 30.3718 37.7879 30.3992 37.9728 30.4722C38.1763 30.5452 38.3427 30.6729 38.4722 30.8554C38.6017 31.0197 38.6664 31.2569 38.6664 31.5672C38.6664 31.7862 38.6109 31.996 38.4999 32.1968C38.389 32.3975 38.2503 32.58 38.0838 32.7443C37.9173 32.9085 37.7324 33.0545 37.5289 33.1822C37.3255 33.2917 37.1313 33.383 36.9463 33.456C36.4099 33.6932 35.7903 33.8757 35.0875 34.0035C34.4032 34.1312 33.6911 34.1768 32.9513 34.1403C31.9525 34.1038 30.9907 33.9122 30.066 33.5655C29.1597 33.2005 28.4476 32.6074 27.9297 31.7862C27.4488 30.9832 27.1622 30.089 27.0697 29.1035C26.9772 28.118 27.0234 27.1873 27.2084 26.3113C27.4118 25.2528 27.754 24.3951 28.2349 23.7381C28.7343 23.0629 29.3261 22.5245 30.0105 22.1231C30.8428 21.6486 31.7768 21.4022 32.8126 21.384C33.8483 21.3657 34.8378 21.5664 35.7811 21.9862C36.4099 22.2599 36.9741 22.634 37.4734 23.1085C37.9728 23.5648 38.352 24.1214 38.6109 24.7784C38.6849 24.9426 38.7404 25.1433 38.7774 25.3806C38.8329 25.6178 38.8699 25.8733 38.8884 26.1471C38.9068 26.4026 38.9068 26.6581 38.8884 26.9135C38.8699 27.169 38.8236 27.3972 38.7496 27.5979C38.6387 27.9264 38.4999 28.1819 38.3335 28.3644C38.167 28.5469 37.9543 28.6837 37.6954 28.775C37.4364 28.8662 37.122 28.9301 36.7521 28.9666C36.4007 28.9849 35.9753 29.0031 35.4759 29.0214C35.032 29.0396 34.6159 29.0487 34.2275 29.0487C33.8391 29.0487 33.4414 29.0487 33.0345 29.0487C32.6276 29.0305 32.2022 29.0214 31.7583 29.0214C31.3329 29.0031 30.852 28.9849 30.3157 28.9666C30.2602 29.3316 30.3064 29.651 30.4544 29.9247C30.6208 30.1802 30.8428 30.3992 31.1202 30.5817C31.3976 30.7459 31.7121 30.8737 32.0635 30.9649C32.4149 31.0562 32.7571 31.1109 33.09 31.1292C33.7188 31.1657 34.3199 31.1201 34.8933 30.9923C35.4667 30.8463 36.0585 30.6821 36.6689 30.4996ZM35.4759 25.189C35.1245 24.7875 34.7546 24.4955 34.3662 24.313C34.0703 24.1852 33.7558 24.1305 33.4229 24.1488C33.1085 24.1488 32.8033 24.1944 32.5074 24.2856C31.971 24.4134 31.5179 24.6871 31.148 25.1068C31.111 25.1433 31.0462 25.2346 30.9537 25.3806C30.8613 25.5083 30.7688 25.6452 30.6763 25.7912C30.6023 25.9372 30.5468 26.0741 30.5099 26.2018C30.4729 26.3296 30.4914 26.3934 30.5653 26.3934H36.003C35.9845 26.1379 35.9383 25.9281 35.8643 25.7638C35.7903 25.5813 35.6609 25.3897 35.4759 25.189Z" fill="white"/>
<path d="M97.925 47.9219L97.8725 52.1427H97.198L97.1414 47.9219H97.925ZM97.1172 53.4271C97.1172 53.3059 97.1535 53.2036 97.2262 53.1201C97.3016 53.0367 97.412 52.9949 97.5574 52.9949C97.7002 52.9949 97.8092 53.0367 97.8846 53.1201C97.9627 53.2036 98.0017 53.3059 98.0017 53.4271C98.0017 53.5429 97.9627 53.6425 97.8846 53.726C97.8092 53.8095 97.7002 53.8512 97.5574 53.8512C97.412 53.8512 97.3016 53.8095 97.2262 53.726C97.1535 53.6425 97.1172 53.5429 97.1172 53.4271Z" fill="white"/>
<path d="M94.3413 53.3554L95.5571 49.4375H96.3568L94.6039 54.4823C94.5635 54.59 94.5096 54.7058 94.4423 54.8296C94.3777 54.9562 94.2942 55.076 94.1919 55.1891C94.0896 55.3022 93.9657 55.3937 93.8203 55.4638C93.6776 55.5365 93.5066 55.5728 93.3073 55.5728C93.2481 55.5728 93.1727 55.5647 93.0811 55.5486C92.9896 55.5324 92.925 55.519 92.8873 55.5082L92.8832 54.9023C92.9048 54.905 92.9384 54.9077 92.9842 54.9104C93.0327 54.9158 93.0663 54.9185 93.0852 54.9185C93.2548 54.9185 93.3989 54.8956 93.5174 54.8498C93.6358 54.8067 93.7355 54.7327 93.8163 54.6277C93.8997 54.5254 93.9711 54.384 94.0303 54.2036L94.3413 53.3554ZM93.4487 49.4375L94.5837 52.8303L94.7775 53.6179L94.2404 53.8926L92.6328 49.4375H93.4487Z" fill="white"/>
<path d="M91.9153 47.6016V53.8055H91.1641V47.6016H91.9153Z" fill="white"/>
<path d="M89.9016 49.4351V53.8054H89.1503V49.4351H89.9016ZM89.0938 48.2759C89.0938 48.1548 89.1301 48.0524 89.2028 47.969C89.2782 47.8855 89.3886 47.8438 89.534 47.8438C89.6767 47.8438 89.7858 47.8855 89.8612 47.969C89.9393 48.0524 89.9783 48.1548 89.9783 48.2759C89.9783 48.3917 89.9393 48.4913 89.8612 48.5748C89.7858 48.6556 89.6767 48.696 89.534 48.696C89.3886 48.696 89.2782 48.6556 89.2028 48.5748C89.1301 48.4913 89.0938 48.3917 89.0938 48.2759Z" fill="white"/>
<path d="M82.5794 50.3007V53.8026H81.8281V49.4323H82.539L82.5794 50.3007ZM82.4259 51.4519L82.0785 51.4397C82.0812 51.1409 82.1203 50.8649 82.1957 50.6117C82.2711 50.3559 82.3828 50.1338 82.5309 49.9453C82.679 49.7568 82.8635 49.6114 83.0843 49.5091C83.3051 49.4041 83.5609 49.3516 83.8517 49.3516C84.0563 49.3516 84.2448 49.3812 84.4172 49.4404C84.5895 49.497 84.7389 49.5872 84.8655 49.711C84.992 49.8349 85.0903 49.9938 85.1603 50.1876C85.2303 50.3815 85.2654 50.6158 85.2654 50.8904V53.8026H84.5181V50.9268C84.5181 50.6979 84.4791 50.5148 84.401 50.3775C84.3256 50.2402 84.2179 50.1405 84.0779 50.0786C83.9379 50.014 83.7736 49.9817 83.5851 49.9817C83.3643 49.9817 83.1799 50.0207 83.0318 50.0988C82.8837 50.1769 82.7652 50.2846 82.6763 50.4219C82.5875 50.5592 82.5228 50.7168 82.4825 50.8945C82.4448 51.0695 82.4259 51.2553 82.4259 51.4519ZM85.2573 51.0399L84.7564 51.1934C84.7591 50.9537 84.7982 50.7235 84.8736 50.5027C84.9517 50.2819 85.0634 50.0853 85.2088 49.913C85.3569 49.7407 85.5387 49.6047 85.7541 49.505C85.9695 49.4027 86.2159 49.3516 86.4932 49.3516C86.7275 49.3516 86.9348 49.3825 87.1152 49.4445C87.2983 49.5064 87.4518 49.602 87.5757 49.7312C87.7022 49.8578 87.7978 50.0207 87.8625 50.22C87.9271 50.4192 87.9594 50.6562 87.9594 50.9308V53.8026H87.2081V50.9228C87.2081 50.6777 87.1691 50.4879 87.091 50.3532C87.0156 50.2159 86.9079 50.1203 86.7679 50.0665C86.6305 50.0099 86.4663 49.9817 86.2751 49.9817C86.1109 49.9817 85.9655 50.0099 85.8389 50.0665C85.7123 50.123 85.606 50.2011 85.5198 50.3007C85.4336 50.3977 85.3677 50.5094 85.3219 50.636C85.2788 50.7625 85.2573 50.8972 85.2573 51.0399Z" fill="white"/>
<path d="M79.9171 53.0554V50.8056C79.9171 50.6333 79.8821 50.4838 79.8121 50.3573C79.7448 50.228 79.6424 50.1284 79.5051 50.0584C79.3678 49.9884 79.1981 49.9534 78.9962 49.9534C78.8077 49.9534 78.6421 49.9857 78.4994 50.0503C78.3594 50.1149 78.249 50.1998 78.1682 50.3048C78.0901 50.4098 78.0511 50.5229 78.0511 50.6441H77.3038C77.3038 50.4879 77.3442 50.3331 77.425 50.1796C77.5058 50.0261 77.6216 49.8874 77.7724 49.7635C77.9258 49.637 78.109 49.5374 78.3217 49.4647C78.5371 49.3893 78.7767 49.3516 79.0406 49.3516C79.3584 49.3516 79.6384 49.4054 79.8807 49.5131C80.1258 49.6208 80.317 49.7837 80.4543 50.0018C80.5943 50.2173 80.6643 50.4879 80.6643 50.8137V52.8494C80.6643 52.9948 80.6764 53.1496 80.7007 53.3139C80.7276 53.4781 80.7666 53.6195 80.8178 53.738V53.8026H80.0383C80.0006 53.7164 79.971 53.602 79.9494 53.4593C79.9279 53.3139 79.9171 53.1792 79.9171 53.0554ZM80.0463 51.153L80.0544 51.6781H79.2991C79.0864 51.6781 78.8966 51.6956 78.7296 51.7306C78.5627 51.7629 78.4227 51.8127 78.3096 51.88C78.1965 51.9473 78.1103 52.0321 78.0511 52.1345C77.9918 52.2341 77.9622 52.3512 77.9622 52.4859C77.9622 52.6232 77.9932 52.7484 78.0551 52.8615C78.117 52.9746 78.2099 53.0648 78.3338 53.1321C78.4603 53.1967 78.6152 53.229 78.7983 53.229C79.0272 53.229 79.2291 53.1806 79.4041 53.0836C79.5792 52.9867 79.7178 52.8682 79.8202 52.7282C79.9252 52.5882 79.9817 52.4522 79.9898 52.3203L80.3089 52.6797C80.29 52.7928 80.2389 52.918 80.1554 53.0554C80.0719 53.1927 79.9602 53.3246 79.8202 53.4512C79.6828 53.5751 79.5186 53.6787 79.3274 53.7622C79.1389 53.843 78.9262 53.8834 78.6892 53.8834C78.393 53.8834 78.1332 53.8255 77.9097 53.7097C77.6889 53.5939 77.5166 53.4391 77.3927 53.2452C77.2715 53.0486 77.2109 52.8292 77.2109 52.5868C77.2109 52.3526 77.2567 52.1466 77.3483 51.9689C77.4398 51.7885 77.5718 51.639 77.7441 51.5205C77.9164 51.3994 78.1238 51.3078 78.3661 51.2459C78.6084 51.1839 78.8791 51.153 79.178 51.153H80.0463Z" fill="white"/>
<path d="M75.5785 53.8044H74.8313V48.9737C74.8313 48.6587 74.8878 48.3934 75.0009 48.178C75.1167 47.9599 75.2823 47.7957 75.4977 47.6853C75.7132 47.5722 75.969 47.5156 76.2652 47.5156C76.3513 47.5156 76.4375 47.521 76.5237 47.5318C76.6125 47.5426 76.6987 47.5587 76.7822 47.5802L76.7418 48.1901C76.6852 48.1767 76.6206 48.1673 76.5479 48.1619C76.4779 48.1565 76.4079 48.1538 76.3379 48.1538C76.179 48.1538 76.0417 48.1861 75.9259 48.2507C75.8128 48.3127 75.7266 48.4042 75.6674 48.5254C75.6081 48.6466 75.5785 48.796 75.5785 48.9737V53.8044ZM76.5075 49.4342V50.0077H74.1406V49.4342H76.5075Z" fill="white"/>
<path d="M70.4951 52.9573V47.6016H71.2464V53.8055H70.5597L70.4951 52.9573ZM67.5547 51.6689V51.5841C67.5547 51.2502 67.5951 50.9472 67.6759 50.6753C67.7593 50.4006 67.8765 50.165 68.0273 49.9684C68.1807 49.7719 68.3625 49.6211 68.5725 49.5161C68.7852 49.4084 69.0222 49.3545 69.2834 49.3545C69.5581 49.3545 69.7977 49.403 70.0023 49.4999C70.2097 49.5942 70.3847 49.7328 70.5274 49.9159C70.6728 50.0963 70.7873 50.3145 70.8707 50.5703C70.9542 50.8261 71.0121 51.1155 71.0444 51.4387V51.8102C71.0148 52.1307 70.9569 52.4188 70.8707 52.6746C70.7873 52.9304 70.6728 53.1485 70.5274 53.3289C70.3847 53.5093 70.2097 53.648 70.0023 53.745C69.795 53.8392 69.5527 53.8863 69.2753 53.8863C69.0195 53.8863 68.7852 53.8311 68.5725 53.7207C68.3625 53.6103 68.1807 53.4555 68.0273 53.2562C67.8765 53.057 67.7593 52.8227 67.6759 52.5534C67.5951 52.2815 67.5547 51.9866 67.5547 51.6689ZM68.3059 51.5841V51.6689C68.3059 51.887 68.3275 52.0916 68.3706 52.2828C68.4164 52.474 68.4864 52.6423 68.5806 52.7877C68.6748 52.9331 68.7947 53.0475 68.9401 53.131C69.0855 53.2118 69.2592 53.2522 69.4611 53.2522C69.7088 53.2522 69.9121 53.1997 70.071 53.0947C70.2326 52.9896 70.3618 52.851 70.4588 52.6786C70.5557 52.5063 70.6311 52.3192 70.6849 52.1172V51.1438C70.6526 50.9957 70.6055 50.853 70.5436 50.7157C70.4843 50.5756 70.4063 50.4518 70.3093 50.3441C70.2151 50.2337 70.0979 50.1462 69.9579 50.0815C69.8206 50.0169 69.6577 49.9846 69.4692 49.9846C69.2645 49.9846 69.0882 50.0277 68.9401 50.1138C68.7947 50.1973 68.6748 50.3131 68.5806 50.4612C68.4864 50.6066 68.4164 50.7763 68.3706 50.9701C68.3275 51.1613 68.3059 51.366 68.3059 51.5841Z" fill="white"/>
<path d="M65.1715 53.8834C64.8672 53.8834 64.5912 53.8322 64.3435 53.7299C64.0984 53.6249 63.8871 53.4781 63.7093 53.2896C63.5343 53.1011 63.3997 52.8776 63.3054 52.6191C63.2112 52.3607 63.1641 52.0779 63.1641 51.771V51.6013C63.1641 51.2459 63.2166 50.9295 63.3216 50.6521C63.4266 50.3721 63.5693 50.1351 63.7497 49.9413C63.9301 49.7474 64.1348 49.6006 64.3637 49.501C64.5925 49.4014 64.8295 49.3516 65.0745 49.3516C65.3869 49.3516 65.6562 49.4054 65.8823 49.5131C66.1112 49.6208 66.2984 49.7716 66.4438 49.9655C66.5892 50.1567 66.6969 50.3829 66.7669 50.6441C66.8369 50.9026 66.8719 51.1853 66.8719 51.4923V51.8275H63.6084V51.2176H66.1247V51.1611C66.1139 50.9672 66.0735 50.7787 66.0035 50.5956C65.9362 50.4125 65.8285 50.2617 65.6804 50.1432C65.5323 50.0247 65.3303 49.9655 65.0745 49.9655C64.9049 49.9655 64.7487 50.0018 64.606 50.0746C64.4633 50.1446 64.3408 50.2496 64.2384 50.3896C64.1361 50.5296 64.0567 50.7006 64.0001 50.9026C63.9436 51.1045 63.9153 51.3374 63.9153 51.6013V51.771C63.9153 51.9783 63.9436 52.1735 64.0001 52.3566C64.0594 52.537 64.1442 52.6959 64.2546 52.8332C64.3677 52.9705 64.5037 53.0783 64.6625 53.1563C64.8241 53.2344 65.0072 53.2735 65.2119 53.2735C65.4757 53.2735 65.6992 53.2196 65.8823 53.1119C66.0654 53.0042 66.2257 52.8601 66.363 52.6797L66.8154 53.0392C66.7211 53.1819 66.6013 53.3179 66.4559 53.4472C66.3105 53.5764 66.1314 53.6814 65.9187 53.7622C65.7087 53.843 65.4596 53.8834 65.1715 53.8834Z" fill="white"/>
<path d="M61.4404 52.9573V47.6016H62.1917V53.8055H61.505L61.4404 52.9573ZM58.5 51.6689V51.5841C58.5 51.2502 58.5404 50.9472 58.6212 50.6753C58.7046 50.4006 58.8218 50.165 58.9726 49.9684C59.1261 49.7719 59.3078 49.6211 59.5178 49.5161C59.7306 49.4084 59.9675 49.3545 60.2287 49.3545C60.5034 49.3545 60.743 49.403 60.9477 49.4999C61.155 49.5942 61.33 49.7328 61.4727 49.9159C61.6181 50.0963 61.7326 50.3145 61.8161 50.5703C61.8995 50.8261 61.9574 51.1155 61.9897 51.4387V51.8102C61.9601 52.1307 61.9022 52.4188 61.8161 52.6746C61.7326 52.9304 61.6181 53.1485 61.4727 53.3289C61.33 53.5093 61.155 53.648 60.9477 53.745C60.7403 53.8392 60.498 53.8863 60.2206 53.8863C59.9648 53.8863 59.7306 53.8311 59.5178 53.7207C59.3078 53.6103 59.1261 53.4555 58.9726 53.2562C58.8218 53.057 58.7046 52.8227 58.6212 52.5534C58.5404 52.2815 58.5 51.9866 58.5 51.6689ZM59.2513 51.5841V51.6689C59.2513 51.887 59.2728 52.0916 59.3159 52.2828C59.3617 52.474 59.4317 52.6423 59.5259 52.7877C59.6202 52.9331 59.74 53.0475 59.8854 53.131C60.0308 53.2118 60.2045 53.2522 60.4064 53.2522C60.6542 53.2522 60.8575 53.1997 61.0163 53.0947C61.1779 52.9896 61.3071 52.851 61.4041 52.6786C61.501 52.5063 61.5764 52.3192 61.6303 52.1172V51.1438C61.5979 50.9957 61.5508 50.853 61.4889 50.7157C61.4297 50.5756 61.3516 50.4518 61.2546 50.3441C61.1604 50.2337 61.0433 50.1462 60.9032 50.0815C60.7659 50.0169 60.603 49.9846 60.4145 49.9846C60.2099 49.9846 60.0335 50.0277 59.8854 50.1138C59.74 50.1973 59.6202 50.3131 59.5259 50.4612C59.4317 50.6066 59.3617 50.7763 59.3159 50.9701C59.2728 51.1613 59.2513 51.366 59.2513 51.5841Z" fill="white"/>
<path d="M54.8644 50.3654V53.8026H54.1172V49.4323H54.824L54.8644 50.3654ZM54.6867 51.4519L54.3757 51.4397C54.3784 51.1409 54.4228 50.8649 54.509 50.6117C54.5951 50.3559 54.7163 50.1338 54.8725 49.9453C55.0287 49.7568 55.2145 49.6114 55.4299 49.5091C55.648 49.4041 55.889 49.3516 56.1529 49.3516C56.3683 49.3516 56.5622 49.3812 56.7345 49.4404C56.9068 49.497 57.0536 49.5885 57.1747 49.7151C57.2986 49.8416 57.3929 50.0059 57.4575 50.2078C57.5221 50.4071 57.5544 50.6508 57.5544 50.9389V53.8026H56.8032V50.9308C56.8032 50.7019 56.7695 50.5188 56.7022 50.3815C56.6349 50.2415 56.5366 50.1405 56.4073 50.0786C56.2781 50.014 56.1192 49.9817 55.9307 49.9817C55.7449 49.9817 55.5753 50.0207 55.4218 50.0988C55.271 50.1769 55.1404 50.2846 55.03 50.4219C54.9223 50.5592 54.8375 50.7168 54.7756 50.8945C54.7163 51.0695 54.6867 51.2553 54.6867 51.4519Z" fill="white"/>
<path d="M51.5387 53.8834C51.2344 53.8834 50.9584 53.8322 50.7107 53.7299C50.4656 53.6249 50.2542 53.4781 50.0765 53.2896C49.9015 53.1011 49.7669 52.8776 49.6726 52.6191C49.5784 52.3607 49.5312 52.0779 49.5312 51.771V51.6013C49.5312 51.2459 49.5838 50.9295 49.6888 50.6521C49.7938 50.3721 49.9365 50.1351 50.1169 49.9413C50.2973 49.7474 50.502 49.6006 50.7308 49.501C50.9597 49.4014 51.1967 49.3516 51.4417 49.3516C51.7541 49.3516 52.0233 49.4054 52.2495 49.5131C52.4784 49.6208 52.6655 49.7716 52.811 49.9655C52.9564 50.1567 53.0641 50.3829 53.1341 50.6441C53.2041 50.9026 53.2391 51.1853 53.2391 51.4923V51.8275H49.9755V51.2176H52.4919V51.1611C52.4811 50.9672 52.4407 50.7787 52.3707 50.5956C52.3034 50.4125 52.1957 50.2617 52.0476 50.1432C51.8995 50.0247 51.6975 49.9655 51.4417 49.9655C51.2721 49.9655 51.1159 50.0018 50.9732 50.0746C50.8305 50.1446 50.708 50.2496 50.6056 50.3896C50.5033 50.5296 50.4239 50.7006 50.3673 50.9026C50.3108 51.1045 50.2825 51.3374 50.2825 51.6013V51.771C50.2825 51.9783 50.3108 52.1735 50.3673 52.3566C50.4266 52.537 50.5114 52.6959 50.6218 52.8332C50.7349 52.9705 50.8709 53.0783 51.0297 53.1563C51.1913 53.2344 51.3744 53.2735 51.579 53.2735C51.8429 53.2735 52.0664 53.2196 52.2495 53.1119C52.4326 53.0042 52.5928 52.8601 52.7302 52.6797L53.1825 53.0392C53.0883 53.1819 52.9685 53.3179 52.8231 53.4472C52.6777 53.5764 52.4986 53.6814 52.2859 53.7622C52.0758 53.843 51.8268 53.8834 51.5387 53.8834Z" fill="white"/>
<path d="M48.855 49.4373V50.0108H46.4922V49.4373H48.855ZM47.2919 48.375H48.0391V52.7251C48.0391 52.8732 48.062 52.9849 48.1078 53.0603C48.1536 53.1357 48.2128 53.1855 48.2855 53.2097C48.3582 53.234 48.4363 53.2461 48.5198 53.2461C48.5817 53.2461 48.6463 53.2407 48.7137 53.2299C48.7837 53.2165 48.8362 53.2057 48.8712 53.1976L48.8752 53.8075C48.816 53.8264 48.7379 53.8439 48.641 53.86C48.5467 53.8789 48.4323 53.8883 48.2976 53.8883C48.1145 53.8883 47.9462 53.8519 47.7928 53.7792C47.6393 53.7065 47.5168 53.5854 47.4252 53.4157C47.3363 53.2434 47.2919 53.0118 47.2919 52.721V48.375Z" fill="white"/>
<path d="M43.4204 49.4375L44.3776 51.0289L45.347 49.4375H46.2235L44.7936 51.5944L46.2679 53.8077H45.4035L44.3938 52.1679L43.384 53.8077H42.5156L43.9858 51.5944L42.5601 49.4375H43.4204Z" fill="white"/>
<path d="M40.3433 53.8834C40.0391 53.8834 39.7631 53.8322 39.5153 53.7299C39.2703 53.6249 39.0589 53.4781 38.8812 53.2896C38.7062 53.1011 38.5715 52.8776 38.4773 52.6191C38.3831 52.3607 38.3359 52.0779 38.3359 51.771V51.6013C38.3359 51.2459 38.3884 50.9295 38.4935 50.6521C38.5985 50.3721 38.7412 50.1351 38.9216 49.9413C39.102 49.7474 39.3067 49.6006 39.5355 49.501C39.7644 49.4014 40.0014 49.3516 40.2464 49.3516C40.5588 49.3516 40.828 49.4054 41.0542 49.5131C41.2831 49.6208 41.4702 49.7716 41.6156 49.9655C41.761 50.1567 41.8688 50.3829 41.9388 50.6441C42.0088 50.9026 42.0438 51.1853 42.0438 51.4923V51.8275H38.7802V51.2176H41.2966V51.1611C41.2858 50.9672 41.2454 50.7787 41.1754 50.5956C41.1081 50.4125 41.0004 50.2617 40.8523 50.1432C40.7042 50.0247 40.5022 49.9655 40.2464 49.9655C40.0768 49.9655 39.9206 50.0018 39.7779 50.0746C39.6352 50.1446 39.5126 50.2496 39.4103 50.3896C39.308 50.5296 39.2286 50.7006 39.172 50.9026C39.1155 51.1045 39.0872 51.3374 39.0872 51.6013V51.771C39.0872 51.9783 39.1155 52.1735 39.172 52.3566C39.2313 52.537 39.3161 52.6959 39.4265 52.8332C39.5396 52.9705 39.6756 53.0783 39.8344 53.1563C39.996 53.2344 40.1791 53.2735 40.3837 53.2735C40.6476 53.2735 40.8711 53.2196 41.0542 53.1119C41.2373 53.0042 41.3975 52.8601 41.5349 52.6797L41.9872 53.0392C41.893 53.1819 41.7732 53.3179 41.6278 53.4472C41.4824 53.5764 41.3033 53.6814 41.0906 53.7622C40.8805 53.843 40.6315 53.8834 40.3433 53.8834Z" fill="white"/>
<path d="M34.7538 52.6434C34.7538 52.5357 34.7296 52.436 34.6811 52.3445C34.6354 52.2503 34.5398 52.1654 34.3944 52.09C34.2516 52.0119 34.0362 51.9446 33.7481 51.8881C33.5058 51.8369 33.2863 51.7763 33.0897 51.7063C32.8959 51.6363 32.7303 51.5515 32.5929 51.4519C32.4583 51.3522 32.3546 51.2351 32.2819 51.1005C32.2092 50.9658 32.1729 50.8083 32.1729 50.6279C32.1729 50.4556 32.2106 50.2927 32.286 50.1392C32.3641 49.9857 32.4731 49.8497 32.6131 49.7312C32.7559 49.6128 32.9268 49.5199 33.1261 49.4525C33.3254 49.3852 33.5475 49.3516 33.7925 49.3516C34.1426 49.3516 34.4415 49.4135 34.6892 49.5374C34.9369 49.6612 35.1268 49.8268 35.2587 50.0342C35.3907 50.2388 35.4566 50.4663 35.4566 50.7168H34.7094C34.7094 50.5956 34.6731 50.4785 34.6003 50.3654C34.5303 50.2496 34.4267 50.154 34.2893 50.0786C34.1547 50.0032 33.9891 49.9655 33.7925 49.9655C33.5852 49.9655 33.4169 49.9978 33.2877 50.0624C33.1611 50.1244 33.0682 50.2038 33.009 50.3007C32.9524 50.3977 32.9241 50.5 32.9241 50.6077C32.9241 50.6885 32.9376 50.7612 32.9645 50.8258C32.9942 50.8877 33.0453 50.9456 33.118 50.9995C33.1907 51.0507 33.293 51.0991 33.425 51.1449C33.5569 51.1907 33.7252 51.2365 33.9299 51.2822C34.288 51.363 34.5828 51.4599 34.8144 51.573C35.046 51.6861 35.2183 51.8248 35.3314 51.9891C35.4445 52.1533 35.5011 52.3526 35.5011 52.5868C35.5011 52.778 35.4607 52.953 35.3799 53.1119C35.3018 53.2708 35.1874 53.4081 35.0366 53.5239C34.8885 53.637 34.7107 53.7258 34.5034 53.7905C34.2988 53.8524 34.0685 53.8834 33.8127 53.8834C33.4277 53.8834 33.1019 53.8147 32.8353 53.6774C32.5687 53.5401 32.3668 53.3623 32.2294 53.1442C32.0921 52.9261 32.0234 52.6959 32.0234 52.4535H32.7747C32.7855 52.6582 32.8447 52.8211 32.9524 52.9423C33.0601 53.0608 33.1921 53.1456 33.3482 53.1967C33.5044 53.2452 33.6593 53.2694 33.8127 53.2694C34.0174 53.2694 34.1884 53.2425 34.3257 53.1887C34.4657 53.1348 34.5721 53.0608 34.6448 52.9665C34.7175 52.8723 34.7538 52.7646 34.7538 52.6434Z" fill="white"/>
<path d="M31.5434 47.6016V48.0459L31.4585 49.5322H30.9375L30.9415 48.1145V47.6016H31.5434Z" fill="white"/>
<path d="M30.2066 49.4373V50.0108H27.8438V49.4373H30.2066ZM28.6435 48.375H29.3907V52.7251C29.3907 52.8732 29.4136 52.9849 29.4594 53.0603C29.5051 53.1357 29.5644 53.1855 29.6371 53.2097C29.7098 53.234 29.7879 53.2461 29.8714 53.2461C29.9333 53.2461 29.9979 53.2407 30.0652 53.2299C30.1352 53.2165 30.1877 53.2057 30.2227 53.1976L30.2268 53.8075C30.1675 53.8264 30.0895 53.8439 29.9925 53.86C29.8983 53.8789 29.7838 53.8883 29.6492 53.8883C29.4661 53.8883 29.2978 53.8519 29.1443 53.7792C28.9908 53.7065 28.8683 53.5854 28.7768 53.4157C28.6879 53.2434 28.6435 53.0118 28.6435 52.721V48.375Z" fill="white"/>
<path d="M25.8043 53.8834C25.5 53.8834 25.224 53.8322 24.9763 53.7299C24.7312 53.6249 24.5199 53.4781 24.3421 53.2896C24.1671 53.1011 24.0325 52.8776 23.9382 52.6191C23.844 52.3607 23.7969 52.0779 23.7969 51.771V51.6013C23.7969 51.2459 23.8494 50.9295 23.9544 50.6521C24.0594 50.3721 24.2021 50.1351 24.3825 49.9413C24.5629 49.7474 24.7676 49.6006 24.9965 49.501C25.2254 49.4014 25.4623 49.3516 25.7073 49.3516C26.0197 49.3516 26.289 49.4054 26.5152 49.5131C26.744 49.6208 26.9312 49.7716 27.0766 49.9655C27.222 50.1567 27.3297 50.3829 27.3997 50.6441C27.4697 50.9026 27.5047 51.1853 27.5047 51.4923V51.8275H24.2412V51.2176H26.7575V51.1611C26.7467 50.9672 26.7063 50.7787 26.6363 50.5956C26.569 50.4125 26.4613 50.2617 26.3132 50.1432C26.1651 50.0247 25.9631 49.9655 25.7073 49.9655C25.5377 49.9655 25.3815 50.0018 25.2388 50.0746C25.0961 50.1446 24.9736 50.2496 24.8713 50.3896C24.7689 50.5296 24.6895 50.7006 24.633 50.9026C24.5764 51.1045 24.5481 51.3374 24.5481 51.6013V51.771C24.5481 51.9783 24.5764 52.1735 24.633 52.3566C24.6922 52.537 24.777 52.6959 24.8874 52.8332C25.0005 52.9705 25.1365 53.0783 25.2954 53.1563C25.4569 53.2344 25.64 53.2735 25.8447 53.2735C26.1086 53.2735 26.332 53.2196 26.5152 53.1119C26.6983 53.0042 26.8585 52.8601 26.9958 52.6797L27.4482 53.0392C27.3539 53.1819 27.2341 53.3179 27.0887 53.4472C26.9433 53.5764 26.7642 53.6814 26.5515 53.7622C26.3415 53.843 26.0924 53.8834 25.8043 53.8834Z" fill="white"/>
<path d="M20.095 50.2725V55.4828H19.3438V49.4323H20.0304L20.095 50.2725ZM23.0395 51.5811V51.6659C23.0395 51.9837 23.0018 52.2785 22.9264 52.5505C22.851 52.8198 22.7406 53.054 22.5952 53.2533C22.4525 53.4525 22.2761 53.6074 22.0661 53.7178C21.856 53.8282 21.615 53.8834 21.3431 53.8834C21.0657 53.8834 20.8207 53.8376 20.608 53.746C20.3952 53.6545 20.2148 53.5212 20.0667 53.3462C19.9186 53.1712 19.8002 52.9611 19.7113 52.7161C19.6251 52.4711 19.5659 52.1951 19.5336 51.8881V51.4357C19.5659 51.1126 19.6265 50.8231 19.7153 50.5673C19.8042 50.3115 19.9213 50.0934 20.0667 49.913C20.2148 49.7299 20.3939 49.5912 20.6039 49.497C20.814 49.4 21.0563 49.3516 21.331 49.3516C21.6056 49.3516 21.8493 49.4054 22.062 49.5131C22.2748 49.6181 22.4538 49.7689 22.5992 49.9655C22.7446 50.1621 22.8537 50.3977 22.9264 50.6723C23.0018 50.9443 23.0395 51.2472 23.0395 51.5811ZM22.2882 51.6659V51.5811C22.2882 51.363 22.2653 51.1584 22.2196 50.9672C22.1738 50.7733 22.1024 50.6037 22.0055 50.4583C21.9112 50.3102 21.7901 50.1944 21.642 50.1109C21.4939 50.0247 21.3175 49.9817 21.1129 49.9817C20.9244 49.9817 20.7601 50.014 20.6201 50.0786C20.4828 50.1432 20.3656 50.2307 20.2687 50.3411C20.1718 50.4488 20.0923 50.5727 20.0304 50.7127C19.9711 50.85 19.9267 50.9928 19.8971 51.1409V52.187C19.951 52.3755 20.0263 52.5532 20.1233 52.7201C20.2202 52.8844 20.3495 53.0177 20.511 53.12C20.6726 53.2196 20.8759 53.2694 21.1209 53.2694C21.3229 53.2694 21.4966 53.2277 21.642 53.1442C21.7901 53.0581 21.9112 52.9409 22.0055 52.7928C22.1024 52.6447 22.1738 52.4751 22.2196 52.2839C22.2653 52.09 22.2882 51.884 22.2882 51.6659Z" fill="white"/>
<path d="M15.2394 50.119V53.8026H14.4922V49.4323H15.2192L15.2394 50.119ZM16.6046 49.4081L16.6006 50.1028C16.5386 50.0894 16.4794 50.0813 16.4229 50.0786C16.369 50.0732 16.3071 50.0705 16.2371 50.0705C16.0647 50.0705 15.9126 50.0974 15.7806 50.1513C15.6487 50.2051 15.537 50.2805 15.4454 50.3775C15.3539 50.4744 15.2811 50.5902 15.2273 50.7248C15.1761 50.8568 15.1425 51.0022 15.1263 51.1611L14.9163 51.2822C14.9163 51.0183 14.9419 50.7706 14.993 50.539C15.0469 50.3075 15.129 50.1028 15.2394 49.9251C15.3498 49.7447 15.4898 49.6047 15.6595 49.505C15.8318 49.4027 16.0364 49.3516 16.2734 49.3516C16.3273 49.3516 16.3892 49.3583 16.4592 49.3718C16.5292 49.3825 16.5777 49.3946 16.6046 49.4081Z" fill="white"/>
<path d="M12.6041 52.798V49.4375H13.3553V53.8077H12.6404L12.6041 52.798ZM12.7454 51.8771L13.0564 51.869C13.0564 52.1598 13.0255 52.4291 12.9635 52.6768C12.9043 52.9218 12.8074 53.1346 12.6727 53.315C12.5381 53.4954 12.3617 53.6368 12.1436 53.7391C11.9255 53.8387 11.6603 53.8885 11.3479 53.8885C11.1352 53.8885 10.94 53.8576 10.7623 53.7956C10.5872 53.7337 10.4364 53.6381 10.3099 53.5089C10.1833 53.3796 10.085 53.2113 10.015 53.004C9.94772 52.7966 9.91406 52.5476 9.91406 52.2568V49.4375H10.6613V52.2648C10.6613 52.4614 10.6828 52.6243 10.7259 52.7536C10.7717 52.8801 10.8323 52.9811 10.9077 53.0565C10.9858 53.1292 11.0719 53.1803 11.1662 53.21C11.2631 53.2396 11.3627 53.2544 11.4651 53.2544C11.7828 53.2544 12.0346 53.1938 12.2204 53.0726C12.4062 52.9488 12.5394 52.7832 12.6202 52.5758C12.7037 52.3658 12.7454 52.1329 12.7454 51.8771Z" fill="white"/>
<path d="M5.01562 51.6659V51.573C5.01562 51.258 5.0614 50.9658 5.15295 50.6966C5.2445 50.4246 5.37645 50.189 5.54878 49.9897C5.72111 49.7878 5.9298 49.6316 6.17483 49.5212C6.41987 49.4081 6.69452 49.3516 6.9988 49.3516C7.30576 49.3516 7.58177 49.4081 7.8268 49.5212C8.07453 49.6316 8.28456 49.7878 8.45689 49.9897C8.63192 50.189 8.76521 50.4246 8.85676 50.6966C8.94831 50.9658 8.99408 51.258 8.99408 51.573V51.6659C8.99408 51.981 8.94831 52.2731 8.85676 52.5424C8.76521 52.8117 8.63192 53.0473 8.45689 53.2492C8.28456 53.4485 8.07588 53.6047 7.83084 53.7178C7.5885 53.8282 7.31384 53.8834 7.00687 53.8834C6.69991 53.8834 6.42391 53.8282 6.17887 53.7178C5.93383 53.6047 5.7238 53.4485 5.54878 53.2492C5.37645 53.0473 5.2445 52.8117 5.15295 52.5424C5.0614 52.2731 5.01562 51.981 5.01562 51.6659ZM5.76285 51.573V51.6659C5.76285 51.884 5.78843 52.09 5.83959 52.2839C5.89075 52.4751 5.96749 52.6447 6.06982 52.7928C6.17483 52.9409 6.30543 53.0581 6.4616 53.1442C6.61778 53.2277 6.79954 53.2694 7.00687 53.2694C7.21152 53.2694 7.39058 53.2277 7.54407 53.1442C7.70024 53.0581 7.82949 52.9409 7.93182 52.7928C8.03414 52.6447 8.11088 52.4751 8.16204 52.2839C8.2159 52.09 8.24282 51.884 8.24282 51.6659V51.573C8.24282 51.3576 8.2159 51.1543 8.16204 50.9631C8.11088 50.7693 8.03279 50.5983 7.92778 50.4502C7.82545 50.2994 7.6962 50.1809 7.54003 50.0947C7.38654 50.0086 7.20613 49.9655 6.9988 49.9655C6.79415 49.9655 6.61374 50.0086 6.45756 50.0947C6.30408 50.1809 6.17483 50.2994 6.06982 50.4502C5.96749 50.5983 5.89075 50.7693 5.83959 50.9631C5.78843 51.1543 5.76285 51.3576 5.76285 51.573Z" fill="white"/>
<path d="M0.892629 47.9219L2.41939 50.8744L3.95019 47.9219H4.83474L2.80714 51.6055V53.8027H2.0276V51.6055L0 47.9219H0.892629Z" fill="white"/>
<defs>
<clipPath id="clip0_2101_1409">
<rect width="28.3576" height="40.4859" fill="white"/>
</clipPath>
</defs>
</svg>
