<svg width="32" height="26" viewBox="0 0 32 26" fill="none" xmlns="http://www.w3.org/2000/svg">
<path d="M2.12848 1.83333L11.5768 11.6456M30.1667 2.12848L20.5333 11.6456M2.12848 23.5C2.71609 24.0186 3.48796 24.3333 4.33333 24.3333H27.6667C28.6622 24.3333 29.5559 23.8969 30.1667 23.2048M2.12848 23.5C1.43646 22.8892 1 21.9956 1 21V4.33333C1 2.49238 2.49238 1 4.33333 1H27.6667C29.5076 1 31 2.49238 31 4.33333V21C31 21.8454 30.6853 22.6172 30.1667 23.2048M2.12848 23.5L11.5768 11.6456M11.5768 11.6456L13.7257 13.8772C15.0064 15.0725 16.9938 15.0725 18.2745 13.8772L20.5333 11.6456M20.5333 11.6456L30.1667 23.2048" stroke="#E667C0" stroke-width="2" stroke-linecap="round" stroke-linejoin="round"/>
</svg>
