<svg width="10" height="10" viewBox="0 0 10 10" fill="none" xmlns="http://www.w3.org/2000/svg">
<path d="M8.41911 0.0078125H6.69593C6.07595 0.627794 5.72835 0.975393 5.10837 1.59537V1.59538H7.29653L5.69036 3.20155C5.15936 2.87184 4.53285 2.68142 3.86185 2.68142C1.94474 2.68142 0.390625 4.23554 0.390625 6.15264C0.390625 8.06974 1.94474 9.62386 3.86185 9.62386C5.77895 9.62386 7.33307 8.06974 7.33307 6.15264C7.33307 5.48163 7.14264 4.85512 6.81294 4.32413L8.41911 2.71795V4.90612C9.03909 4.28614 9.38669 3.93854 10.0067 3.31856V1.59538V0.0078125H8.41911ZM3.86185 8.10259C2.78492 8.10259 1.9119 7.22957 1.9119 6.15264C1.9119 5.07571 2.78492 4.20269 3.86185 4.20269C4.93877 4.20269 5.8118 5.07571 5.8118 6.15264C5.8118 7.22957 4.93877 8.10259 3.86185 8.10259Z" fill="#8EB1E6"/>
</svg>
