<svg width="59" height="59" viewBox="0 0 59 59" fill="none" xmlns="http://www.w3.org/2000/svg">
<g filter="url(#filter0_i_2381_1868)">
<circle cx="29.5" cy="29.5" r="29.5" fill="url(#paint0_linear_2381_1868)"/>
</g>
<path d="M21.4286 16.95H21.4286C20.6124 16.95 19.95 17.6205 19.95 18.4444V41.5556C19.95 42.3795 20.6124 43.05 21.4286 43.05H38.5714C39.3876 43.05 40.05 42.3795 40.05 41.5556V22.2963C40.05 22.2786 40.0461 22.2628 40.0434 22.2521C40.0428 22.2498 40.0423 22.2478 40.0418 22.246C40.0395 22.2374 40.0383 22.2328 40.0378 22.2279C40.0351 22.2052 40.0311 22.1844 40.0243 22.1623C40.0016 22.0758 39.9639 21.99 39.8963 21.9217L35.1344 17.1069C35.0666 17.0384 34.9816 17.0002 34.897 16.9772C34.8737 16.9703 34.8519 16.9662 34.8282 16.9636L34.8226 17.0132L34.8285 16.9636C34.824 16.9631 34.8198 16.9619 34.8114 16.9596C34.8097 16.9591 34.8079 16.9586 34.8058 16.9581C34.7954 16.9552 34.7797 16.9512 34.7619 16.9512L21.4286 16.95ZM38.5714 41.987H21.4285C21.1936 41.987 21.0023 41.7945 21.0023 41.5555V18.4444C21.0023 18.2055 21.1936 18.013 21.4285 18.013H34.2358V22.2961C34.2358 22.5892 34.4708 22.8276 34.762 22.8276H38.9976V41.5555C38.9976 41.7944 38.8052 41.987 38.5714 41.987ZM35.2893 18.7659L38.2552 21.7648H35.2893V18.7659ZM36.6679 32.4576C36.9591 32.4576 37.194 32.2192 37.194 31.9261C37.194 31.633 36.9591 31.3946 36.6679 31.3946H30.0012C29.71 31.3946 29.475 31.633 29.475 31.9261C29.475 32.2192 29.71 32.4576 30.0012 32.4576H36.6679ZM24.7631 29.9501C23.685 29.9501 22.8083 30.8373 22.8083 31.9261C22.8083 33.0148 23.685 33.902 24.7631 33.902C25.8412 33.902 26.7179 33.0148 26.7179 31.9261C26.7179 30.8373 25.8412 29.9501 24.7631 29.9501ZM24.7631 32.839C24.2662 32.839 23.8607 32.4298 23.8607 31.9261C23.8607 31.4223 24.2662 31.0131 24.7631 31.0131C25.26 31.0131 25.6655 31.4223 25.6655 31.9261C25.6655 32.4298 25.26 32.839 24.7631 32.839ZM36.6679 38.717C36.9591 38.717 37.194 38.4786 37.194 38.1855C37.194 37.8924 36.9591 37.654 36.6679 37.654H30.0012C29.71 37.654 29.475 37.8924 29.475 38.1855C29.475 38.4786 29.71 38.717 30.0012 38.717H36.6679ZM24.7631 36.2096C23.685 36.2096 22.8083 37.0967 22.8083 38.1855C22.8083 39.2742 23.685 40.1614 24.7631 40.1614C25.8412 40.1614 26.7179 39.2742 26.7179 38.1855C26.7179 37.0967 25.8412 36.2096 24.7631 36.2096ZM24.7631 39.0985C24.2662 39.0985 23.8607 38.6892 23.8607 38.1855C23.8607 37.6817 24.2662 37.2725 24.7631 37.2725C25.26 37.2725 25.6655 37.6817 25.6655 38.1855C25.6655 38.6892 25.26 39.0985 24.7631 39.0985ZM29.575 26.6799H30.9536C31.2448 26.6799 31.4798 26.4416 31.4798 26.1485V23.2596C31.4798 22.9665 31.2448 22.7281 30.9536 22.7281H29.575V21.3336C29.575 21.0405 29.34 20.8022 29.0488 20.8022H26.1917C25.9004 20.8022 25.6655 21.0405 25.6655 21.3336V22.7281H24.2869C23.9957 22.7281 23.7607 22.9665 23.7607 23.2596V26.1485C23.7607 26.4416 23.9957 26.6799 24.2869 26.6799H25.6655V28.0744C25.6655 28.3675 25.9004 28.6059 26.1917 28.6059H29.0488C29.34 28.6059 29.575 28.3675 29.575 28.0744V26.6799ZM29.0488 25.617C28.7576 25.617 28.5226 25.8553 28.5226 26.1485V27.5429H26.7179V26.1485C26.7179 25.8553 26.4829 25.617 26.1917 25.617H24.8131V23.791H26.1917C26.4829 23.791 26.7179 23.5527 26.7179 23.2596V21.8651H28.5226V23.2596C28.5226 23.5527 28.7576 23.791 29.0488 23.791H30.4274V25.617H29.0488Z" fill="white" stroke="white" stroke-width="0.1"/>
<defs>
<filter id="filter0_i_2381_1868" x="0" y="0" width="59" height="63" filterUnits="userSpaceOnUse" color-interpolation-filters="sRGB">
<feFlood flood-opacity="0" result="BackgroundImageFix"/>
<feBlend mode="normal" in="SourceGraphic" in2="BackgroundImageFix" result="shape"/>
<feColorMatrix in="SourceAlpha" type="matrix" values="0 0 0 0 0 0 0 0 0 0 0 0 0 0 0 0 0 0 127 0" result="hardAlpha"/>
<feOffset dy="4"/>
<feGaussianBlur stdDeviation="18.5"/>
<feComposite in2="hardAlpha" operator="arithmetic" k2="-1" k3="1"/>
<feColorMatrix type="matrix" values="0 0 0 0 0 0 0 0 0 0 0 0 0 0 0 0 0 0 0.25 0"/>
<feBlend mode="normal" in2="shape" result="effect1_innerShadow_2381_1868"/>
</filter>
<linearGradient id="paint0_linear_2381_1868" x1="15.9368" y1="12.546" x2="49.1667" y2="51.2011" gradientUnits="userSpaceOnUse">
<stop stop-color="#EE741C"/>
<stop offset="1" stop-color="#E43812"/>
</linearGradient>
</defs>
</svg>
