<svg width="77" height="77" viewBox="0 0 77 77" fill="none" xmlns="http://www.w3.org/2000/svg">
<circle cx="38.5" cy="38.5" r="38.5" fill="#6DC2A4"/>
<path d="M44.6144 57.9999C42.8515 59.5557 40.536 60.4998 38 60.4998C35.464 60.4998 33.1485 59.5557 31.3856 57.9999M52.9935 40.952V33C52.9935 24.6943 46.3057 18 38 18C29.6943 18 22.9159 24.4089 22.9159 33V40.8982C22.9159 42.1061 22.7276 43.3061 22.3584 44.452L20.5122 50.1808C20.4616 50.3377 20.5745 50.4997 20.7344 50.4997H55.158C55.327 50.4997 55.4469 50.335 55.3951 50.1741L53.5364 44.4064C53.1767 43.2902 52.9935 42.1247 52.9935 40.952Z" stroke="white" stroke-width="2" stroke-linecap="round"/>
</svg>
