<svg width="12" height="16" viewBox="0 0 12 16" fill="none" xmlns="http://www.w3.org/2000/svg">
<path d="M10.3392 1.70728L10.3389 1.70723L3.57434 1.2034L3.54355 1.16399C3.54355 1.164 3.54355 1.164 3.54355 1.164C3.33318 1.32835 3.19647 1.57025 3.16427 1.83579L2.98728 3.27353H1.95957C1.40223 3.27353 0.950071 3.72569 0.950071 4.28303V14.0277C0.94687 14.2976 1.05131 14.5577 1.24121 14.7496C1.43051 14.9416 1.68946 15.05 1.95957 15.05H8.05141H8.05153C8.6069 15.0487 9.0571 14.5985 9.05841 14.0431V14.043V13.393C9.55275 13.3772 9.96652 13.0031 10.0275 12.5074L10.0275 12.5074L11.2119 2.8275L11.2119 2.8272C11.2757 2.27849 10.8873 1.77955 10.3392 1.70728ZM8.45871 14.0429C8.45871 14.1507 8.41593 14.2542 8.33967 14.3311C8.26279 14.4074 8.15931 14.4501 8.05145 14.4501L1.95986 14.4501C1.95979 14.4501 1.95973 14.4501 1.95967 14.4501C1.73361 14.4489 1.55103 14.2663 1.54985 14.0403V4.29554C1.55103 4.06944 1.73366 3.88682 1.95976 3.88565H8.05145C8.27621 3.88565 8.45872 4.06815 8.45872 4.29292L8.45871 14.0429Z" fill="#827397" stroke="#827397" stroke-width="0.1"/>
<path d="M7.80006 12.0672H2.20299C2.03733 12.0672 1.90312 12.2014 1.90312 12.3671C1.90312 12.5327 2.03733 12.6669 2.20299 12.6669H7.80006C7.96572 12.6669 8.09993 12.5327 8.09993 12.3671C8.09993 12.2014 7.96572 12.0672 7.80006 12.0672Z" fill="#827397" stroke="#827397" stroke-width="0.1"/>
<path d="M5.90105 13.4031H2.20299C2.03733 13.4031 1.90312 13.5373 1.90312 13.703C1.90312 13.8687 2.03733 14.0029 2.20299 14.0029H5.90105C6.06672 14.0029 6.20092 13.8687 6.20092 13.703C6.20092 13.5373 6.06672 13.4031 5.90105 13.4031Z" fill="#827397" stroke="#827397" stroke-width="0.1"/>
<path d="M7.80006 9.67656H2.20299C2.03733 9.67656 1.90312 9.81076 1.90312 9.97643C1.90312 10.1421 2.03733 10.2763 2.20299 10.2763H7.80006C7.96572 10.2763 8.09993 10.1421 8.09993 9.97643C8.09993 9.81076 7.96572 9.67656 7.80006 9.67656Z" fill="#827397" stroke="#827397" stroke-width="0.1"/>
<path d="M2.20299 11.6122H5.90105C6.06672 11.6122 6.20092 11.478 6.20092 11.3124C6.20092 11.1467 6.06672 11.0125 5.90105 11.0125H2.20299C2.03733 11.0125 1.90312 11.1467 1.90312 11.3124C1.90312 11.478 2.03733 11.6122 2.20299 11.6122Z" fill="#827397" stroke="#827397" stroke-width="0.1"/>
<path d="M4.83808 9.13506H4.83813C5.47605 9.13506 6.08781 8.8818 6.53883 8.43142L6.53886 8.4314C6.98985 7.98041 7.24375 7.36928 7.24443 6.73137L7.24434 6.72928C7.1143 3.5444 2.56448 3.54441 2.43442 6.72928L2.43437 6.72928L2.43438 6.73137C2.43501 7.36864 2.68827 7.97979 3.13931 8.43015C3.5897 8.88115 4.20088 9.13442 4.83808 9.13506ZM4.8382 4.92735C5.83474 4.92738 6.64302 5.7341 6.6446 6.73056C6.55859 9.11878 3.12009 9.11879 3.03407 6.73056C3.03578 5.73534 3.84281 4.92859 4.8382 4.92735Z" fill="#827397" stroke="#827397" stroke-width="0.1"/>
<path d="M4.45366 6.82729L4.14098 6.22954L4.14098 6.22954L4.14085 6.22928C4.06291 6.08241 3.88145 6.02696 3.73467 6.10485C3.5878 6.18278 3.53235 6.36424 3.61024 6.51103L3.61024 6.51103L4.08489 7.40534C4.08491 7.40538 4.08493 7.40542 4.08495 7.40545C4.12546 7.48265 4.19812 7.53881 4.2836 7.55831C4.36904 7.57779 4.45822 7.55903 4.52856 7.50739L4.52857 7.50739L4.52886 7.50716L5.96928 6.43308C6.04909 6.39366 6.1073 6.32137 6.12798 6.23451C6.14968 6.14666 6.1301 6.05364 6.07464 5.98169C6.01934 5.90994 5.93473 5.86641 5.84388 5.86415C5.75493 5.86195 5.66991 5.89996 5.61164 5.96598L4.45366 6.82729Z" fill="#827397" stroke="#827397" stroke-width="0.1"/>
</svg>
