<svg width="49" height="62" viewBox="0 0 49 62" fill="none" xmlns="http://www.w3.org/2000/svg">
<path d="M38.5403 0.429688H0.75V61.707H48.7519V10.6413L38.5403 0.429688Z" fill="#E8E8E8"/>
<path d="M40.6042 30.7322C39.8679 29.4199 37.3237 29.0076 36.1565 28.8221C35.2365 28.6758 34.2973 28.6321 33.3668 28.6329C32.6362 28.6281 31.9163 28.664 31.2057 28.7045C30.9437 28.722 30.6844 28.7447 30.4253 28.7671C30.1597 28.4922 29.9031 28.2083 29.6547 27.9178C28.0742 26.0469 26.798 23.9252 25.7582 21.7204C26.0343 20.655 26.2552 19.5432 26.3886 18.3886C26.6321 16.2812 26.7158 13.8795 25.9261 11.8703C25.6535 11.1769 24.9265 10.3327 24.0877 10.7531C23.1235 11.2365 22.8522 12.6062 22.7736 13.5771C22.7104 14.3619 22.7546 15.1487 22.8864 15.9204C23.0206 16.6973 23.2367 17.435 23.4719 18.1717C23.6914 18.8472 23.9333 19.5174 24.1971 20.1813C24.0297 20.7039 23.8521 21.2175 23.6655 21.7179C23.2306 22.8584 22.7603 23.9419 22.308 24.9842C22.0695 25.501 21.836 26.0069 21.6077 26.5015C20.8849 28.089 20.1003 29.6475 19.2197 31.154C17.1657 31.8786 15.3224 32.7186 13.7917 33.7057C12.9705 34.2362 12.2451 34.8124 11.641 35.4444C11.0707 36.041 10.491 36.8153 10.4403 37.6725C10.4118 38.1563 10.6034 38.6258 10.9997 38.9128C11.5448 39.3201 12.2671 39.293 12.8995 39.1604C14.9712 38.7259 16.562 36.9451 17.9167 35.4442C18.8499 34.4104 19.912 33.0977 21.0229 31.5101C21.0254 31.5065 21.0278 31.5029 21.0304 31.4992C22.9359 30.9085 25.0098 30.4097 27.2107 30.043C28.2162 29.8763 29.2484 29.7399 30.3012 29.6441C31.0415 30.3375 31.8415 30.9689 32.7142 31.4962C33.3939 31.9144 34.1168 32.2675 34.8735 32.5308C35.6387 32.7808 36.4086 32.9849 37.2035 33.1141C37.6049 33.1715 38.0153 33.1976 38.4347 33.1818C39.3707 33.1464 40.7141 32.7875 40.8022 31.6518C40.8293 31.3042 40.7543 30.9994 40.6042 30.7322ZM18.1964 32.816C17.7581 33.4951 17.3353 34.1058 16.9369 34.6433C15.9613 35.9707 14.8471 37.5474 13.2338 38.1369C12.9274 38.2489 12.524 38.3645 12.0988 38.3394C11.72 38.3172 11.3465 38.1501 11.3637 37.72C11.3722 37.4948 11.4824 37.2076 11.6513 36.9255C11.8362 36.6161 12.0652 36.3323 12.3132 36.0714C12.8446 35.5131 13.5164 34.9721 14.2893 34.4711C15.4746 33.702 16.8898 33.0098 18.4673 32.3922C18.3765 32.5357 18.286 32.6783 18.1964 32.816ZM23.6983 15.7862C23.5766 15.076 23.5582 14.3559 23.633 13.6634C23.6702 13.3172 23.7407 12.9793 23.8428 12.6626C23.9293 12.3938 24.116 11.7377 24.4139 11.6535C24.9051 11.5144 25.0561 12.5688 25.1116 12.8671C25.4281 14.564 25.1492 16.4511 24.7695 18.1157C24.709 18.3805 24.6417 18.641 24.5728 18.9005C24.4552 18.5769 24.343 18.2523 24.2397 17.9261C24.0174 17.2137 23.8141 16.493 23.6983 15.7862ZM27.0701 29.182C25.2248 29.4812 23.4695 29.8731 21.8195 30.3357C22.0181 30.2801 22.926 28.5595 23.1285 28.2024C24.0827 26.5219 24.8632 24.7581 25.4241 22.9077C26.4144 24.8664 27.6164 26.7402 29.093 28.408C29.229 28.5593 29.3673 28.7089 29.5079 28.8566C28.6805 28.9458 27.8662 29.0543 27.0701 29.182ZM39.5492 31.5455C39.4816 31.9103 38.7025 32.1189 38.3389 32.1763C37.2645 32.3453 36.1278 32.2101 35.0995 31.8646C34.3939 31.6278 33.7134 31.3052 33.0669 30.9172C32.4242 30.5289 31.8229 30.0721 31.2608 29.5685C31.9539 29.5268 32.6554 29.4996 33.3603 29.5129C34.0653 29.52 34.7757 29.5555 35.4774 29.6471C36.7934 29.7938 38.268 30.2455 39.3038 31.0995C39.5077 31.2678 39.5728 31.4166 39.5492 31.5455Z" fill="#FB3449"/>
<path d="M40.1206 5.53559H0.75V0.429688H38.5403L40.1206 5.53559Z" fill="#FB3449"/>
<path d="M19.7482 49.1701C19.7482 50.2536 19.4289 51.0904 18.7898 51.6805C18.1507 52.2709 17.2433 52.566 16.067 52.566H15.3307V55.783H12.7109V46.0859H16.0672C17.292 46.0859 18.2118 46.3535 18.8264 46.8885C19.441 47.4235 19.7482 48.184 19.7482 49.1701ZM15.3309 50.4303H15.8085C16.202 50.4303 16.5148 50.3199 16.7471 50.0986C16.9793 49.8775 17.0953 49.5723 17.0953 49.1833C17.0953 48.5288 16.7327 48.2016 16.0076 48.2016H15.3309V50.4303Z" fill="#A4A9AD"/>
<path d="M29.5282 50.7288C29.5282 52.3471 29.0826 53.5941 28.1917 54.4697C27.3008 55.3452 26.0481 55.783 24.4342 55.783H21.2969V46.0859H24.6531C26.2096 46.0859 27.4111 46.4839 28.2579 47.2798C29.1046 48.0757 29.5282 49.2255 29.5282 50.7288ZM26.8088 50.8218C26.8088 49.9329 26.633 49.2742 26.2815 48.8451C25.93 48.4163 25.3961 48.2018 24.6796 48.2018H23.917V53.6339H24.5007C25.2968 53.6339 25.8803 53.4029 26.2518 52.9407C26.6231 52.4789 26.8088 51.7725 26.8088 50.8218Z" fill="#A4A9AD"/>
<path d="M33.8458 55.783H31.2656V46.0859H36.9964V48.1885H33.8458V50.039H36.7509V52.1416H33.8458V55.783Z" fill="#A4A9AD"/>
<path d="M38.5391 10.6413H48.7507L38.5391 0.429688V10.6413Z" fill="#D1D3D3"/>
</svg>
