<svg width="59" height="59" viewBox="0 0 59 59" fill="none" xmlns="http://www.w3.org/2000/svg">
<g filter="url(#filter0_i_2156_2973)">
<circle cx="29.5" cy="29.5" r="29.5" fill="url(#paint0_linear_2156_2973)"/>
</g>
<path fill-rule="evenodd" clip-rule="evenodd" d="M28.8415 17.2474C29.2185 16.9175 29.7815 16.9175 30.1585 17.2474L41.6585 27.3099C41.8755 27.4998 42 27.7741 42 28.0625V30.2681C42 31.057 41.1438 31.5129 40.5 31.1351V41.8356C40.5 42.3879 40.0523 42.8356 39.5 42.8356H34.5H24.5H19.5C18.9477 42.8356 18.5 42.3879 18.5 41.8356V31.1351C17.8562 31.5129 17 31.057 17 30.2681V28.0625C17 27.7741 17.1245 27.4998 17.3415 27.3099L28.8415 17.2474ZM19.4998 30.32C19.4999 30.3252 19.5 30.3304 19.5 30.3356V41.8356H24.5V31.8356C24.5 29.0742 26.7386 26.8356 29.5 26.8356C32.2614 26.8356 34.5 29.0742 34.5 31.8356V41.8356H39.5V30.3356C39.5 30.3304 39.5001 30.3252 39.5002 30.32L29.5 21.9865L19.4998 30.32ZM33.5 41.8356V31.8356C33.5 29.6265 31.7091 27.8356 29.5 27.8356C27.2909 27.8356 25.5 29.6265 25.5 31.8356V41.8356H33.5ZM29.5 18L18 28.0625L18 30.2681L28.8598 21.2182C29.2307 20.9092 29.7693 20.9092 30.1402 21.2182L41 30.2681V28.0625L29.5 18Z" fill="white"/>
<path fill-rule="evenodd" clip-rule="evenodd" d="M27.3419 33.5151C28.9587 32.9762 30.1039 33.7583 30.7202 34.467C30.73 34.4782 30.7394 34.4845 30.7454 34.4875C30.7482 34.4888 30.7499 34.4893 30.7507 34.4895L32.0901 34.4895C32.5278 34.4895 33.0682 34.8245 33.0166 35.4391C32.9255 36.5256 32.0141 37.9895 30 37.9895C29.3306 37.9895 28.718 38.4524 28.1826 39.2368C27.6571 40.0067 27.2849 40.9778 27.0788 41.7328C26.9611 42.1643 26.5711 42.4895 26.0989 42.4895H25.5C24.9477 42.4895 24.5 42.0418 24.5 41.4895V38.3799C24.5 37.9005 24.8308 37.5662 25.1397 37.4091C25.3729 37.2905 25.5235 37.0998 25.6378 36.8189C25.7551 36.5308 25.8176 36.1924 25.8916 35.7915C25.8943 35.777 25.897 35.7624 25.8997 35.7477C25.9722 35.3557 26.0596 34.8926 26.2527 34.4937C26.458 34.0695 26.7909 33.6988 27.3419 33.5151ZM29.9657 35.1232C29.5047 34.5932 28.7546 34.0983 27.6581 34.4638C27.4123 34.5458 27.2654 34.6967 27.1528 34.9293C27.028 35.1871 26.9595 35.5158 26.883 35.9295C26.8784 35.9548 26.8736 35.9806 26.8689 36.0066C26.801 36.3763 26.7214 36.8093 26.564 37.1959C26.3883 37.6275 26.1009 38.0421 25.5931 38.3004C25.5513 38.3217 25.5232 38.3476 25.509 38.367C25.5033 38.3747 25.5009 38.3797 25.5 38.382V41.4895H26.0989L26.0996 41.4894C26.1 41.4893 26.1012 41.4888 26.1031 41.4873C26.1071 41.4841 26.1117 41.4783 26.1141 41.4695C26.3378 40.6502 26.7476 39.5654 27.3567 38.6731C27.9558 37.7952 28.8301 36.9895 30 36.9895C31.3132 36.9895 31.8876 36.1408 32.0026 35.4895L30.75 35.4895C30.4291 35.4895 30.1508 35.3361 29.9657 35.1232ZM32.0901 35.4895C32.0911 35.4895 32.091 35.4897 32.0899 35.4895H32.0901ZM25.4995 38.3837C25.4995 38.3837 25.4996 38.3833 25.4998 38.3825L25.4995 38.3837Z" fill="white"/>
<path fill-rule="evenodd" clip-rule="evenodd" d="M27.0705 33.9943C27.3438 34.0334 27.5338 34.2867 27.4947 34.56C27.427 35.0343 27.5292 35.5654 27.7084 35.9774C27.7739 36.1282 27.8444 36.2504 27.9103 36.341C27.9218 36.2906 27.9329 36.2321 27.9429 36.1652C27.9988 35.792 27.9998 35.3305 27.9998 34.9893C27.9998 34.7132 28.2236 34.4893 28.4998 34.4893C28.7759 34.4893 28.9998 34.7132 28.9998 34.9893L28.9998 35.0039C28.9998 35.3307 28.9998 35.8601 28.9319 36.3134C28.898 36.5391 28.8414 36.7917 28.7328 37.0009C28.6247 37.2092 28.3971 37.4893 28 37.4893C27.6609 37.4893 27.4002 37.276 27.2393 37.0991C27.0624 36.9045 26.9106 36.6505 26.7913 36.3762C26.5537 35.8299 26.4059 35.111 26.5048 34.4186C26.5438 34.1452 26.7971 33.9553 27.0705 33.9943Z" fill="white"/>
<defs>
<filter id="filter0_i_2156_2973" x="0" y="0" width="59" height="63" filterUnits="userSpaceOnUse" color-interpolation-filters="sRGB">
<feFlood flood-opacity="0" result="BackgroundImageFix"/>
<feBlend mode="normal" in="SourceGraphic" in2="BackgroundImageFix" result="shape"/>
<feColorMatrix in="SourceAlpha" type="matrix" values="0 0 0 0 0 0 0 0 0 0 0 0 0 0 0 0 0 0 127 0" result="hardAlpha"/>
<feOffset dy="4"/>
<feGaussianBlur stdDeviation="18.5"/>
<feComposite in2="hardAlpha" operator="arithmetic" k2="-1" k3="1"/>
<feColorMatrix type="matrix" values="0 0 0 0 0 0 0 0 0 0 0 0 0 0 0 0 0 0 0.25 0"/>
<feBlend mode="normal" in2="shape" result="effect1_innerShadow_2156_2973"/>
</filter>
<linearGradient id="paint0_linear_2156_2973" x1="15.9368" y1="12.546" x2="49.1667" y2="51.2011" gradientUnits="userSpaceOnUse">
<stop stop-color="#DE2975"/>
<stop offset="1" stop-color="#5D378E"/>
</linearGradient>
</defs>
</svg>
