<svg width="17" height="15" viewBox="0 0 17 15" fill="none" xmlns="http://www.w3.org/2000/svg">
<path d="M7.4375 7.8559C7.4375 8.06777 7.49981 8.27489 7.61656 8.45106C7.73331 8.62723 7.89925 8.76453 8.0934 8.84561C8.28755 8.92669 8.50118 8.94791 8.70728 8.90658C8.91339 8.86524 9.10271 8.76321 9.2513 8.61339C9.39989 8.46358 9.50109 8.2727 9.54208 8.06489C9.58308 7.85709 9.56204 7.64169 9.48162 7.44595C9.4012 7.2502 9.26502 7.08289 9.09029 6.96518C8.91557 6.84747 8.71014 6.78464 8.5 6.78464C8.2183 6.78495 7.94823 6.89791 7.74904 7.09875C7.54985 7.29958 7.43781 7.57188 7.4375 7.8559ZM8.85417 7.8559C8.85417 7.92653 8.8334 7.99556 8.79448 8.05429C8.75556 8.11301 8.70025 8.15878 8.63553 8.1858C8.57082 8.21283 8.49961 8.2199 8.43091 8.20613C8.3622 8.19235 8.2991 8.15834 8.24957 8.1084C8.20004 8.05846 8.1663 7.99483 8.15264 7.92556C8.13897 7.8563 8.14599 7.7845 8.17279 7.71925C8.1996 7.654 8.24499 7.59823 8.30324 7.55899C8.36148 7.51976 8.42995 7.49881 8.5 7.49881C8.59389 7.49894 8.68391 7.5366 8.7503 7.60354C8.81669 7.67048 8.85404 7.76123 8.85417 7.8559ZM10.625 10.3555C10.8351 10.3555 11.0406 10.2927 11.2153 10.175C11.39 10.0573 11.5262 9.88995 11.6066 9.6942C11.687 9.49845 11.7081 9.28306 11.6671 9.07525C11.6261 8.86745 11.5249 8.67657 11.3763 8.52675C11.2277 8.37693 11.0384 8.27491 10.8323 8.23357C10.6262 8.19223 10.4125 8.21345 10.2184 8.29453C10.0243 8.37561 9.85831 8.51292 9.74156 8.68909C9.62481 8.86525 9.5625 9.07237 9.5625 9.28425C9.56281 9.56827 9.67485 9.84056 9.87404 10.0414C10.0732 10.2422 10.3433 10.3552 10.625 10.3555ZM10.625 8.92716C10.695 8.92716 10.7635 8.9481 10.8218 8.98734C10.88 9.02658 10.9254 9.08235 10.9522 9.14759C10.979 9.21284 10.986 9.28464 10.9724 9.35391C10.9587 9.42318 10.925 9.4868 10.8754 9.53674C10.8259 9.58668 10.7628 9.62069 10.6941 9.63447C10.6254 9.64825 10.5542 9.64118 10.4895 9.61415C10.4248 9.58712 10.3694 9.54135 10.3305 9.48263C10.2916 9.42391 10.2708 9.35487 10.2708 9.28425C10.271 9.18958 10.3083 9.09882 10.3747 9.03188C10.4411 8.96494 10.5311 8.92728 10.625 8.92716ZM7.4375 9.28425C7.4375 9.07237 7.37519 8.86525 7.25844 8.68909C7.14169 8.51292 6.97575 8.37561 6.7816 8.29453C6.58745 8.21345 6.37382 8.19223 6.16772 8.23357C5.96161 8.27491 5.77229 8.37693 5.6237 8.52675C5.47511 8.67657 5.37391 8.86745 5.33292 9.07525C5.29192 9.28306 5.31296 9.49845 5.39338 9.6942C5.4738 9.88995 5.60998 10.0573 5.78471 10.175C5.95943 10.2927 6.16486 10.3555 6.375 10.3555C6.6567 10.3552 6.92677 10.2422 7.12596 10.0414C7.32515 9.84056 7.43719 9.56827 7.4375 9.28425ZM6.375 9.64133C6.30495 9.64133 6.23648 9.62039 6.17824 9.58115C6.11999 9.54191 6.0746 9.48615 6.04779 9.4209C6.02099 9.35565 6.01397 9.28385 6.02764 9.21458C6.0413 9.14531 6.07503 9.08169 6.12457 9.03175C6.1741 8.98181 6.2372 8.9478 6.3059 8.93402C6.37461 8.92024 6.44582 8.92731 6.51053 8.95434C6.57525 8.98137 6.63056 9.02714 6.66948 9.08586C6.7084 9.14458 6.72917 9.21362 6.72917 9.28425C6.72904 9.37891 6.69169 9.46967 6.6253 9.53661C6.55891 9.60355 6.46889 9.64121 6.375 9.64133ZM15.9375 0H1.0625C0.780802 0.000310021 0.510729 0.113274 0.311539 0.314107C0.112348 0.51494 0.000307486 0.787239 0 1.07126V2.4996C0.000307486 2.78362 0.112348 3.05592 0.311539 3.25676C0.510729 3.45759 0.780802 3.57055 1.0625 3.57086H7.4375V5.11771C6.24339 5.38183 5.18815 6.08143 4.47442 7.08214C3.76069 8.08286 3.43879 9.31415 3.57054 10.5396C3.7023 11.765 4.2784 12.8981 5.18824 13.7214C6.09807 14.5446 7.27749 15 8.5 15C9.72251 15 10.9019 14.5446 11.8118 13.7214C12.7216 12.8981 13.2977 11.765 13.4295 10.5396C13.5612 9.31415 13.2393 8.08286 12.5256 7.08214C11.8119 6.08143 10.7566 5.38183 9.5625 5.11771V3.57086H15.9375C16.2192 3.57055 16.4893 3.45759 16.6885 3.25676C16.8877 3.05592 16.9997 2.78362 17 2.4996V1.07126C16.9997 0.787239 16.8877 0.51494 16.6885 0.314107C16.4893 0.113274 16.2192 0.000310021 15.9375 0ZM12.75 9.99842C12.75 10.8459 12.5007 11.6744 12.0337 12.3791C11.5667 13.0837 10.903 13.633 10.1264 13.9573C9.34982 14.2816 8.49529 14.3665 7.67087 14.2011C6.84645 14.0358 6.08917 13.6277 5.4948 13.0284C4.90042 12.4291 4.49565 11.6656 4.33166 10.8344C4.16768 10.0032 4.25184 9.14159 4.57351 8.35861C4.89518 7.57562 5.43992 6.90639 6.13883 6.43554C6.83774 5.96469 7.65943 5.71338 8.5 5.71338C9.62677 5.71468 10.707 6.16656 11.5038 6.96987C12.3005 7.77319 12.7487 8.86235 12.75 9.99842ZM8.85417 5.0173C8.7367 5.00885 8.61954 4.99921 8.5 4.99921C8.38046 4.99921 8.2633 5.00885 8.14583 5.0173V3.57086H8.85417V5.0173ZM16.2917 2.4996C16.2915 2.59427 16.2542 2.68503 16.1878 2.75197C16.1214 2.81891 16.0314 2.85657 15.9375 2.85669H1.0625C0.968607 2.85657 0.878594 2.81891 0.812201 2.75197C0.745808 2.68503 0.708455 2.59427 0.708333 2.4996V1.07126C0.708455 0.976592 0.745808 0.885837 0.812201 0.818896C0.878594 0.751956 0.968607 0.714296 1.0625 0.714173H15.9375C16.0314 0.714296 16.1214 0.751956 16.1878 0.818896C16.2542 0.885837 16.2915 0.976592 16.2917 1.07126V2.4996ZM13.8125 1.78543C13.8125 1.88014 13.7752 1.97096 13.7088 2.03793C13.6423 2.1049 13.5523 2.14252 13.4583 2.14252H10.625C10.5311 2.14252 10.441 2.1049 10.3746 2.03793C10.3081 1.97096 10.2708 1.88014 10.2708 1.78543C10.2708 1.69073 10.3081 1.5999 10.3746 1.53293C10.441 1.46597 10.5311 1.42835 10.625 1.42835H13.4583C13.5523 1.42835 13.6423 1.46597 13.7088 1.53293C13.7752 1.5999 13.8125 1.69073 13.8125 1.78543ZM15.2292 1.78543C15.2292 1.85606 15.2084 1.9251 15.1695 1.98382C15.1306 2.04254 15.0752 2.08831 15.0105 2.11534C14.9458 2.14236 14.8746 2.14944 14.8059 2.13566C14.7372 2.12188 14.6741 2.08787 14.6246 2.03793C14.575 1.98799 14.5413 1.92436 14.5276 1.8551C14.514 1.78583 14.521 1.71403 14.5478 1.64878C14.5746 1.58353 14.62 1.52776 14.6782 1.48853C14.7365 1.44929 14.805 1.42835 14.875 1.42835C14.9689 1.42835 15.059 1.46597 15.1254 1.53293C15.1919 1.5999 15.2292 1.69073 15.2292 1.78543ZM9.20833 10.3555H7.79167C7.50997 10.3558 7.2399 10.4688 7.04071 10.6696C6.84151 10.8704 6.72947 11.1427 6.72917 11.4268V12.1409C6.72947 12.425 6.84151 12.6973 7.04071 12.8981C7.2399 13.0989 7.50997 13.2119 7.79167 13.2122H9.20833C9.49003 13.2119 9.7601 13.0989 9.95929 12.8981C10.1585 12.6973 10.2705 12.425 10.2708 12.1409V11.4268C10.2705 11.1427 10.1585 10.8704 9.95929 10.6696C9.7601 10.4688 9.49003 10.3558 9.20833 10.3555ZM9.5625 12.1409C9.56238 12.2356 9.52502 12.3264 9.45863 12.3933C9.39224 12.4602 9.30223 12.4979 9.20833 12.498H7.79167C7.69777 12.4979 7.60776 12.4602 7.54137 12.3933C7.47498 12.3264 7.43762 12.2356 7.4375 12.1409V11.4268C7.43762 11.3321 7.47498 11.2413 7.54137 11.1744C7.60776 11.1075 7.69777 11.0698 7.79167 11.0697H9.20833C9.30223 11.0698 9.39224 11.1075 9.45863 11.1744C9.52502 11.2413 9.56238 11.3321 9.5625 11.4268V12.1409Z" fill="#C2C2C2"/>
</svg>
