<svg width="26" height="38" viewBox="0 0 26 38" fill="none" xmlns="http://www.w3.org/2000/svg">
<rect x="1" y="1" width="24" height="36" rx="3" stroke="#355879" stroke-width="1.5" stroke-linecap="round" stroke-linejoin="round"/>
<path d="M13 32C12.7329 32 12.4818 31.896 12.2929 31.7071C12.104 31.5182 12 31.2671 12 31C12 30.8016 12.0583 30.6095 12.1685 30.4445C12.2788 30.2794 12.434 30.1521 12.6173 30.0761C12.7393 30.0256 12.868 30 13 30C13.0654 30 13.131 30.0065 13.1951 30.0192C13.3897 30.0579 13.5668 30.1526 13.7071 30.2929C13.8474 30.4332 13.9421 30.6103 13.9808 30.8049C14.0195 30.9996 13.9998 31.1993 13.9239 31.3827C13.8479 31.566 13.7206 31.7212 13.5556 31.8315C13.3905 31.9417 13.1985 32 13 32Z" fill="#355879"/>
<path d="M13 33C12.4696 33 11.9609 32.7893 11.5858 32.4142C11.2107 32.0392 11 31.5304 11 31C11 30.6044 11.1173 30.2178 11.3371 29.8889C11.5568 29.56 11.8692 29.3036 12.2346 29.1523C12.6001 29.0009 13.0022 28.9613 13.3902 29.0384C13.7782 29.1156 14.1345 29.3061 14.4142 29.5858C14.6939 29.8655 14.8844 30.2219 14.9616 30.6098C15.0388 30.9978 14.9991 31.3999 14.8478 31.7654C14.6964 32.1308 14.44 32.4432 14.1111 32.6629C13.7823 32.8827 13.3956 33 13 33Z" fill="#355879"/>
</svg>
