<svg width="13" height="14" viewBox="0 0 13 14" fill="none" xmlns="http://www.w3.org/2000/svg">
<path d="M2.24124 8.58541C2.24124 8.78173 2.40085 8.94134 2.59716 8.94134H9.57324C9.76955 8.94134 9.92916 8.78173 9.92916 8.58541C9.92916 8.3891 9.76955 8.22949 9.57324 8.22949H2.59602C2.39971 8.23005 2.24124 8.3891 2.24124 8.58541Z" fill="#827397"/>
<path d="M8.41424 10.4639H3.75607C3.5592 10.4639 3.40015 10.6235 3.40015 10.8198C3.40015 11.0167 3.5592 11.1757 3.75607 11.1757H8.41424C8.6111 11.1757 8.77016 11.0167 8.77016 10.8198C8.77016 10.6235 8.6111 10.4639 8.41424 10.4639Z" fill="#827397"/>
<path d="M8.61483e-05 11.2711C0.000642383 11.9946 0.288155 12.6881 0.7998 13.1997C1.31145 13.7114 2.00492 13.9989 2.72847 14H9.44202C10.1655 13.9989 10.859 13.7114 11.3707 13.1997C11.8823 12.6881 12.1698 11.9946 12.1704 11.2711V4.15262C12.1704 4.10535 12.1593 4.05752 12.1559 4.01025C12.1559 3.99913 12.1621 3.98967 12.1621 3.9791H12.1626C12.1604 3.94574 12.1543 3.91293 12.1432 3.88123C12.0831 3.36236 11.8451 2.8802 11.4691 2.51705L9.47596 0.618986C9.05664 0.22024 8.49995 -0.0016564 7.92157 9.31061e-06H2.72839C2.00487 0.00112164 1.31137 0.288634 0.799714 0.800279C0.288055 1.31192 0.000555239 2.0054 0 2.72895L8.61483e-05 11.2711ZM10.9791 3.0326C11.1493 3.19721 11.2795 3.39909 11.3584 3.62209H9.34519C8.7557 3.62154 8.27798 3.14382 8.27743 2.55433V0.758059C8.54215 0.819789 8.78572 0.950485 8.98315 1.1379L10.9791 3.0326ZM0.71193 2.72896C0.713043 1.61559 1.61509 0.713014 2.72844 0.711875H7.56571V2.55427C7.56682 3.53639 8.36265 4.33274 9.34532 4.33388H11.4592L11.4587 11.2711C11.4575 12.3845 10.5555 13.287 9.44214 13.2882H2.7286C1.61523 13.2871 0.713225 12.3845 0.712086 11.2711L0.71193 2.72896Z" fill="#827397"/>
<path d="M2.42698 5.50605C2.6233 5.50605 2.7829 5.34644 2.7829 5.15012V4.6357H3.38964L3.80452 5.05502L3.45638 5.40316V5.40371C3.38742 5.46989 3.34849 5.5611 3.34738 5.65619C3.34682 5.75184 3.38464 5.8436 3.45193 5.9109C3.51923 5.97875 3.61154 6.01601 3.70665 6.01545C3.8023 6.01434 3.8935 5.97541 3.95968 5.90645L4.30448 5.56109L4.7516 6.01323C4.81778 6.08219 4.90844 6.12167 5.00408 6.12279C5.09918 6.12445 5.19149 6.08719 5.25935 6.0199C5.3272 5.95317 5.36501 5.8614 5.36446 5.76575C5.36446 5.67065 5.32553 5.57944 5.25768 5.51271L4.80833 5.05836L5.15647 4.71022V4.70967C5.2955 4.57063 5.2955 4.3454 5.15647 4.20636C5.01744 4.06733 4.7922 4.06733 4.65317 4.20636L4.30836 4.55172L4.14263 4.38488L4.14208 4.38432C4.46797 4.10682 4.58587 3.65524 4.43738 3.25372C4.28944 2.85219 3.90627 2.58581 3.47805 2.58692H2.42697C2.23011 2.58692 2.07105 2.74653 2.07105 2.94284V5.14956C2.07049 5.2441 2.10831 5.33475 2.17505 5.40148C2.24178 5.46821 2.33245 5.50605 2.42698 5.50605ZM2.7829 3.29876H3.47806C3.65101 3.29876 3.79116 3.4389 3.79116 3.61186C3.79116 3.78481 3.65102 3.92495 3.47806 3.92495H2.7829V3.29876Z" fill="#827397"/>
</svg>
