<svg width="12" height="15" viewBox="0 0 12 15" fill="none" xmlns="http://www.w3.org/2000/svg">
<path d="M8.53787 0.964499C8.52464 0.960647 8.51226 0.95838 8.49918 0.956926L8.49366 1.00662L8.4995 0.956963L8.4996 0.956976C8.4996 0.956975 8.49917 0.956907 8.49807 0.956633L8.49151 0.954872C8.48598 0.953386 8.47543 0.950602 8.46296 0.950602L1.72223 0.95H1.72222C1.29619 0.95 0.95 1.29619 0.95 1.72222V13.2778C0.95 13.7038 1.29619 14.05 1.72222 14.05H10.3889C10.8149 14.05 11.1611 13.7038 11.1611 13.2778V3.64815C11.1611 3.63583 11.1584 3.62522 11.1569 3.61965L11.1551 3.61279C11.1548 3.61146 11.1547 3.61096 11.1547 3.61096C11.1533 3.59848 11.151 3.58671 11.1471 3.57415C11.1349 3.52855 11.1143 3.48128 11.076 3.44307L8.66864 1.03566C8.63034 0.99736 8.58294 0.976672 8.53787 0.964499ZM8.53787 0.964499C8.53807 0.964556 8.53826 0.964613 8.53846 0.96467L8.52435 1.01264L8.53733 0.964351C8.53751 0.964401 8.53769 0.96445 8.53787 0.964499ZM10.3889 13.4685H1.7222C1.61681 13.4685 1.53146 13.3832 1.53146 13.2778V1.72222C1.53146 1.61682 1.61681 1.53148 1.7222 1.53148H8.17228V3.64807C8.17228 3.80869 8.3024 3.93881 8.46302 3.93881H10.5796V13.2778C10.5796 13.3831 10.4937 13.4685 10.3889 13.4685ZM8.75431 1.94285L10.1689 3.3574H8.75431V1.94285ZM9.42652 8.75378C9.58715 8.75378 9.71726 8.62366 9.71726 8.46304C9.71726 8.30241 9.58715 8.1723 9.42652 8.1723H6.05615C5.89553 8.1723 5.76541 8.30241 5.76541 8.46304C5.76541 8.62366 5.89553 8.75378 6.05615 8.75378H9.42652ZM3.40801 7.45007C2.84956 7.45007 2.39504 7.90459 2.39504 8.46304C2.39504 9.02148 2.84956 9.476 3.40801 9.476C3.96645 9.476 4.42097 9.02148 4.42097 8.46304C4.42097 7.90459 3.96645 7.45007 3.40801 7.45007ZM3.40801 8.89452C3.1702 8.89452 2.97652 8.70085 2.97652 8.46304C2.97652 8.22523 3.1702 8.03156 3.40801 8.03156C3.64581 8.03156 3.83949 8.22523 3.83949 8.46304C3.83949 8.70085 3.64581 8.89452 3.40801 8.89452ZM9.42652 11.8835C9.58715 11.8835 9.71726 11.7534 9.71726 11.5927C9.71726 11.4321 9.58715 11.302 9.42652 11.302H6.05615C5.89553 11.302 5.76541 11.4321 5.76541 11.5927C5.76541 11.7534 5.89553 11.8835 6.05615 11.8835H9.42652ZM3.40801 10.5798C2.84956 10.5798 2.39504 11.0343 2.39504 11.5927C2.39504 12.1512 2.84956 12.6057 3.40801 12.6057C3.96645 12.6057 4.42097 12.1512 4.42097 11.5927C4.42097 11.0343 3.96645 10.5798 3.40801 10.5798ZM3.40801 12.0242C3.1702 12.0242 2.97652 11.8306 2.97652 11.5927C2.97652 11.3549 3.1702 11.1613 3.40801 11.1613C3.64581 11.1613 3.83949 11.3549 3.83949 11.5927C3.83949 11.8306 3.64581 12.0242 3.40801 12.0242ZM5.86541 5.86497H6.53763C6.69826 5.86497 6.82838 5.73485 6.82838 5.57423V4.12978C6.82838 3.96916 6.69826 3.83904 6.53763 3.83904H5.86541V3.16682C5.86541 3.00619 5.7353 2.87608 5.57467 2.87608H4.13023C3.9696 2.87608 3.83949 3.00619 3.83949 3.16682V3.83904H3.16726C3.00664 3.83904 2.87652 3.96916 2.87652 4.12978V5.57423C2.87652 5.73485 3.00664 5.86497 3.16726 5.86497H3.83949V6.53719C3.83949 6.69781 3.9696 6.82793 4.13023 6.82793H5.57467C5.7353 6.82793 5.86541 6.69781 5.86541 6.53719V5.86497ZM5.57467 5.28348C5.41405 5.28348 5.28393 5.4136 5.28393 5.57423V6.24645H4.42097V5.57423C4.42097 5.4136 4.29085 5.28348 4.13023 5.28348H3.45801V4.42052H4.13023C4.29085 4.42052 4.42097 4.2904 4.42097 4.12978V3.45756H5.28393V4.12978C5.28393 4.2904 5.41405 4.42052 5.57467 4.42052H6.24689V5.28348H5.57467Z" fill="#827397" stroke="#827397" stroke-width="0.1"/>
</svg>
