<svg width="19" height="18" viewBox="0 0 19 18" fill="none" xmlns="http://www.w3.org/2000/svg">
<path fill-rule="evenodd" clip-rule="evenodd" d="M2.66163 8C2.66163 4.691 5.35259 2 8.66155 2C11.9705 2 14.6615 4.691 14.6615 8C14.6615 11.309 11.9705 14 8.66155 14C5.35259 14 2.66163 11.309 2.66163 8ZM18.3708 16.293L14.9759 12.897C16.0288 11.543 16.6638 9.846 16.6638 8C16.6638 3.589 13.0749 0 8.66395 0C4.25301 0 0.664062 3.589 0.664062 8C0.664062 12.411 4.25301 16 8.66395 16C10.5099 16 12.2069 15.365 13.5609 14.312L16.9568 17.707C17.1518 17.902 17.4078 18 17.6638 18C17.9198 18 18.1758 17.902 18.3708 17.707C18.7618 17.316 18.7618 16.684 18.3708 16.293Z" fill="#827397"/>
</svg>
