<svg width="77" height="77" viewBox="0 0 77 77" fill="none" xmlns="http://www.w3.org/2000/svg">
<circle cx="38.5" cy="38.5" r="38.5" fill="#6DA9C2"/>
<path d="M31.2157 41.4545C31.755 41.3354 32.0956 40.8016 31.9765 40.2624C31.8574 39.7231 31.3236 39.3824 30.7843 39.5016L31.2157 41.4545ZM52.75 46.7504C52.75 47.3915 52.4618 48.0776 51.7879 48.7857C51.1091 49.499 50.0795 50.1869 48.7308 50.7863C46.0359 51.9841 42.2428 52.7504 38 52.7504V54.7504C42.4557 54.7504 46.5376 53.9497 49.5431 52.614C51.0445 51.9466 52.3215 51.1261 53.2367 50.1645C54.1567 49.1977 54.75 48.0423 54.75 46.7504H52.75ZM38 52.7504C33.7572 52.7504 29.9641 51.9841 27.2692 50.7863C25.9205 50.1869 24.8909 49.499 24.2121 48.7857C23.5382 48.0776 23.25 47.3915 23.25 46.7504H21.25C21.25 48.0423 21.8433 49.1977 22.7633 50.1645C23.6785 51.1261 24.9555 51.9466 26.4569 52.614C29.4624 53.9497 33.5443 54.7504 38 54.7504V52.7504ZM23.25 46.7504C23.25 45.8439 23.8399 44.8255 25.2551 43.8313C26.6525 42.8496 28.7041 42.0092 31.2157 41.4545L30.7843 39.5016C28.1098 40.0923 25.7865 41.0138 24.1054 42.1948C22.4421 43.3633 21.25 44.9084 21.25 46.7504H23.25ZM44.7843 41.4545C47.2959 42.0092 49.3475 42.8496 50.7449 43.8313C52.1601 44.8255 52.75 45.8439 52.75 46.7504H54.75C54.75 44.9084 53.5579 43.3633 51.8946 42.1948C50.2135 41.0138 47.8902 40.0923 45.2157 39.5016L44.7843 41.4545ZM39 46.75V31.0002H37V46.75H39ZM42.25 25.75C42.25 28.0973 40.3472 30.0002 38 30.0002V32.0002C41.4518 32.0002 44.25 29.2017 44.25 25.75H42.25ZM38 30.0002C35.6528 30.0002 33.75 28.0973 33.75 25.75H31.75C31.75 29.2017 34.5482 32.0002 38 32.0002V30.0002ZM33.75 25.75C33.75 23.4028 35.6528 21.5 38 21.5V19.5C34.5482 19.5 31.75 22.2982 31.75 25.75H33.75ZM38 21.5C40.3472 21.5 42.25 23.4028 42.25 25.75H44.25C44.25 22.2982 41.4518 19.5 38 19.5V21.5Z" fill="white"/>
</svg>
