<svg width="20" height="20" viewBox="0 0 20 20" fill="none" xmlns="http://www.w3.org/2000/svg">
<circle cx="10" cy="10" r="10" fill="#AE4973"/>
<path fill-rule="evenodd" clip-rule="evenodd" d="M10.4222 4.49046C10.1766 4.28866 9.82342 4.28866 9.57784 4.49046L6.06686 7.37553C5.60259 7.75703 5.33333 8.32768 5.33333 8.93015V13.9913C5.33333 14.3611 5.63181 14.6609 6 14.6609H7.33333V10.6436C7.33333 9.90399 7.93029 9.30445 8.66667 9.30445H11.3333C12.0697 9.30445 12.6667 9.90399 12.6667 10.6436V14.6609H14C14.3682 14.6609 14.6667 14.3611 14.6667 13.9913V8.93015C14.6667 8.32768 14.3974 7.75703 13.9331 7.37553L10.4222 4.49046ZM14 16C15.1046 16 16 15.1007 16 13.9913V8.93015C16 7.92604 15.5512 6.97495 14.7775 6.33911L11.2665 3.45404C10.5297 2.84865 9.47026 2.84865 8.73352 3.45404L5.22254 6.33911C4.44876 6.97495 4 7.92604 4 8.93015V13.9913C4 15.1007 4.89543 16 6 16H14ZM11.3333 14.6609V10.6436H8.66667V14.6609H11.3333Z" fill="white"/>
</svg>
