<svg width="20" height="20" viewBox="0 0 20 20" fill="none" xmlns="http://www.w3.org/2000/svg">
<circle cx="10" cy="10" r="10" fill="#EB9682"/>
<path fill-rule="evenodd" clip-rule="evenodd" d="M7.41746 6.33289C8.83933 6.31772 9.64022 5.9184 10.0804 5.51083C10.4948 5.12713 10.6389 4.6926 10.6629 4.41638C10.451 4.36216 10.2288 4.33333 10 4.33333C8.7576 4.33333 7.71364 5.18296 7.41746 6.33289ZM11.8759 5.10467C11.7312 5.56616 11.4508 6.05907 10.9863 6.48917C10.2473 7.17341 9.09702 7.6509 7.41725 7.66628C7.71314 8.81663 8.7573 9.66667 10 9.66667C11.4728 9.66667 12.6667 8.47276 12.6667 7C12.6667 6.25867 12.3642 5.58799 11.8759 5.10467ZM12.5307 10.0978C13.4275 9.36432 14 8.24901 14 7C14 4.79086 12.2091 3 10 3C7.79086 3 6 4.79086 6 7C6 8.24901 6.57246 9.36432 7.46933 10.0978C6.86264 10.3162 6.30844 10.6118 5.82876 10.9716C4.73734 11.7901 4 12.9719 4 14.3333C4 14.7015 4.29848 15 4.66667 15C5.03486 15 5.33333 14.7015 5.33333 14.3333C5.33333 13.4856 5.7899 12.6674 6.62876 12.0382C7.46783 11.4089 8.65754 11 10 11C11.3425 11 12.5322 11.4089 13.3712 12.0382C14.2101 12.6674 14.6667 13.4856 14.6667 14.3333C14.6667 14.7015 14.9651 15 15.3333 15C15.7015 15 16 14.7015 16 14.3333C16 12.9719 15.2627 11.7901 14.1712 10.9716C13.6916 10.6118 13.1374 10.3162 12.5307 10.0978Z" fill="#803C2D"/>
</svg>
