<svg width="20" height="20" viewBox="0 0 20 20" fill="none" xmlns="http://www.w3.org/2000/svg">
<circle cx="10" cy="10" r="10" fill="#A2D4DE"/>
<path fill-rule="evenodd" clip-rule="evenodd" d="M4 5.8C4 4.80589 4.8483 4 5.89474 4H6.73684C7.08565 4 7.36842 4.26863 7.36842 4.6C7.36842 4.93137 7.08565 5.2 6.73684 5.2H5.89474C5.54593 5.2 5.26316 5.46863 5.26316 5.8V8.8C5.26316 10.1255 6.39423 11.2 7.78947 11.2C9.18472 11.2 10.3158 10.1255 10.3158 8.8V5.8C10.3158 5.46863 10.033 5.2 9.68421 5.2H8.84211C8.49329 5.2 8.21053 4.93137 8.21053 4.6C8.21053 4.26863 8.49329 4 8.84211 4H9.68421C10.7306 4 11.5789 4.80589 11.5789 5.8V8.8C11.5789 10.5838 10.2133 12.0646 8.42105 12.3502V12.4C8.42105 13.7255 9.55212 14.8 10.9474 14.8C12.3426 14.8 13.4737 13.7255 13.4737 12.4V12.2976C12.7378 12.0505 12.2105 11.3837 12.2105 10.6C12.2105 9.60589 13.0588 8.8 14.1053 8.8C15.1517 8.8 16 9.60589 16 10.6C16 11.3837 15.4728 12.0505 14.7368 12.2976V12.4C14.7368 14.3882 13.0402 16 10.9474 16C8.8545 16 7.15789 14.3882 7.15789 12.4V12.3502C5.36565 12.0646 4 10.5838 4 8.8V5.8ZM14.1053 10C13.7565 10 13.4737 10.2686 13.4737 10.6C13.4737 10.9314 13.7565 11.2 14.1053 11.2C14.4541 11.2 14.7368 10.9314 14.7368 10.6C14.7368 10.2686 14.4541 10 14.1053 10Z" fill="#2A8294"/>
</svg>
