<svg width="400" height="400" viewBox="0 0 400 400" fill="none" xmlns="http://www.w3.org/2000/svg">
<path d="M199.707 -0.244104C200.502 -0.242421 201.298 -0.240737 202.117 -0.239002C213.53 -0.200197 224.727 -0.00418399 235.938 2.34379C236.699 2.499 237.461 2.65422 238.245 2.81414C276.044 10.7209 310.41 27.8432 338.281 54.6875C339.054 55.4283 339.054 55.4283 339.842 56.184C347.255 63.3281 354.083 70.5917 360.156 78.9063C360.827 79.8055 361.497 80.7048 362.167 81.604C366.885 88.0034 371.071 94.6548 375 101.563C375.285 102.056 375.57 102.55 375.863 103.058C392.742 132.549 400.373 165.961 400.244 199.707C400.242 200.502 400.241 201.298 400.239 202.117C400.2 213.53 400.004 224.727 397.656 235.938C397.423 237.08 397.423 237.08 397.186 238.245C387.451 284.781 362.537 328.808 324.219 357.813C323.798 358.137 323.377 358.461 322.943 358.796C298.045 377.937 269.488 390.821 238.721 397.119C238.159 397.234 237.597 397.349 237.019 397.468C225.553 399.647 214.206 400.273 202.557 400.247C200.26 400.244 197.965 400.263 195.668 400.282C185.22 400.317 175.145 399.375 164.844 397.656C163.511 397.436 163.511 397.436 162.152 397.211C128.349 391.139 96.279 375.524 70.3125 353.125C69.7304 352.63 69.1484 352.134 68.5486 351.624C57.9979 342.396 48.0983 332.435 39.8438 321.094C39.1747 320.195 38.5053 319.297 37.8357 318.399C33.117 312.001 28.9112 305.356 25 298.438C24.6858 297.885 24.3716 297.333 24.0479 296.763C13.8718 278.689 7.03674 259.024 2.8809 238.721C2.76577 238.159 2.65065 237.597 2.53204 237.019C0.208715 224.795 -0.291373 212.707 -0.244104 200.293C-0.242421 199.498 -0.240737 198.703 -0.239002 197.883C-0.200197 186.47 -0.00418399 175.273 2.34379 164.063C2.499 163.301 2.65422 162.539 2.81414 161.755C10.7209 123.956 27.8432 89.5904 54.6875 61.7188C55.1814 61.2037 55.6752 60.6885 56.184 60.1578C63.3281 52.7451 70.5917 45.9171 78.9063 39.8438C79.8055 39.1734 80.7048 38.5031 81.604 37.8327C88.0022 33.1158 94.6449 28.9105 101.563 25C102.115 24.6858 102.668 24.3716 103.237 24.0479C121.311 13.8718 140.976 7.03674 161.279 2.8809C161.841 2.76577 162.403 2.65065 162.981 2.53204C175.205 0.208715 187.294 -0.291373 199.707 -0.244104ZM153.906 78.125C153.399 78.5208 152.891 78.9166 152.368 79.3244C139.227 89.9362 131.776 106.332 128.906 122.656C127.52 142.958 131.17 162.169 144.531 178.125C156.586 191.762 172.314 201.571 190.625 203.906C212.209 205.149 230.892 200.669 247.44 186.334C260.695 174.432 269.936 157.927 271.259 139.943C272.172 119.479 267.329 101.752 253.906 85.9375C253.522 85.4481 253.137 84.9587 252.741 84.4544C241.941 70.97 224.172 63.6863 207.526 61.3495C188.039 59.3918 168.762 65.362 153.906 78.125ZM116.357 217.041C115.88 217.461 115.402 217.881 114.91 218.314C113.578 219.493 112.256 220.682 110.938 221.875C110.404 222.351 109.87 222.828 109.32 223.319C92.9033 238.823 77.4634 264.526 75.5371 287.256C75.7814 295.985 81.1985 301.467 87.0259 307.323C88.2088 308.52 89.3632 309.739 90.5121 310.968C103.276 324.441 119.218 334.377 135.938 342.188C136.818 342.604 137.698 343.021 138.605 343.451C175.118 359.955 217.487 359.834 254.81 346.213C275.194 338.49 292.893 326.764 308.594 311.719C309.21 311.135 309.21 311.135 309.838 310.539C320.033 300.887 320.033 300.887 324.512 287.939C323.713 264.428 306.454 240.957 291.406 224.219C290.687 223.414 290.687 223.414 289.954 222.592C287.143 219.622 283.976 217.115 280.762 214.6C280.331 214.261 279.901 213.922 279.457 213.573C273.977 209.386 269.298 208.557 262.5 209.375C258.143 210.832 254.455 213.422 250.635 215.918C243.432 220.565 235.832 223.956 227.637 226.416C227.134 226.568 226.631 226.72 226.114 226.877C217.601 229.279 209.009 229.975 200.195 229.932C199.238 229.927 198.28 229.923 197.294 229.918C189.899 229.82 182.926 229.274 175.781 227.344C175.221 227.193 174.66 227.042 174.082 226.886C162.245 223.564 151.68 217.999 141.486 211.182C138.685 209.433 136.294 209.21 133.057 209.131C132.28 209.102 131.504 209.072 130.704 209.042C124.888 209.793 120.62 213.235 116.357 217.041Z" fill="#879DB4"/>
</svg>
