<svg width="18" height="12" viewBox="0 0 18 12" fill="none" xmlns="http://www.w3.org/2000/svg">
<path d="M16.6695 5.20246C16.9852 5.68371 16.9852 6.28787 16.6695 6.76912C15.6751 8.28493 13.0873 11.4716 8.90625 11.4716C4.72519 11.4716 2.13745 8.28493 1.14303 6.76912C0.827322 6.28787 0.827322 5.68371 1.14303 5.20246C2.13745 3.68665 4.72519 0.5 8.90625 0.5C13.0873 0.5 15.6751 3.68665 16.6695 5.20246Z" stroke="#827397" stroke-linecap="round" stroke-linejoin="round"/>
<path d="M11.6491 5.98579C11.6491 7.50065 10.4211 8.72868 8.90624 8.72868C7.39139 8.72868 6.16335 7.50065 6.16335 5.98579C6.16335 4.47093 7.39139 3.24289 8.90624 3.24289C10.4211 3.24289 11.6491 4.47093 11.6491 5.98579Z" stroke="#827397" stroke-linecap="round" stroke-linejoin="round"/>
</svg>
