<svg width="34" height="34" viewBox="0 0 34 34" fill="none" xmlns="http://www.w3.org/2000/svg">
<path d="M16.8333 32.6667C25.5778 32.6667 32.6667 25.5778 32.6667 16.8333C32.6667 8.08882 25.5778 1 16.8333 1M16.8333 32.6667C8.08882 32.6667 1 25.5778 1 16.8333C1 8.08882 8.08882 1 16.8333 1M16.8333 32.6667C20.5152 32.6667 23.5 25.5778 23.5 16.8333C23.5 8.08882 20.5152 1 16.8333 1M16.8333 32.6667C13.1514 32.6667 10.1667 25.5778 10.1667 16.8333C10.1667 8.08882 13.1514 1 16.8333 1M1.83333 11.8333H31.8333M1.83333 21.8333H31.8333" stroke="#43608D" stroke-width="2" stroke-linecap="round" stroke-linejoin="round"/>
</svg>
